<?xml version="1.0" encoding="utf-8"?>
<!-- Generator: Adobe Illustrator 26.0.2, SVG Export Plug-In . SVG Version: 6.00 Build 0)  -->
<svg version="1.1" id="Layer_1" xmlns="http://www.w3.org/2000/svg" xmlns:xlink="http://www.w3.org/1999/xlink" x="0px" y="0px"
	 viewBox="0 0 512 512" style="enable-background:new 0 0 512 512;" xml:space="preserve">
<style type="text/css">
	.st0{fill:#4A4A4A;}
	.st1{fill:#819EBD;}
	.st2{fill:#224B78;}
	.st3{fill:#265587;}
	.st4{fill:#BFCBD1;}
	.st5{fill:#B1BCC2;}
	.st6{fill:#728CA7;}
	.st7{fill:#2E69A7;}
	.st8{fill:#2A6099;}
</style>
<path d="M150.3,462.9c-3.2,5.7-5.7,6.7-11.8,4.4c-23.8-9-42.5-24.4-56-46c-2.1-3.4-4.4-4.5-8.2-4.5c-11.6-0.1-23.3,1.3-34.9-0.8
	C17.5,412.3,2,394.2,1.3,371.9c-0.3-7.8-0.2-15.6,0-23.5c0.2-8.1,4.9-14.5,12.6-16.6c3.5-1,4.1-2.5,4.1-5.8
	c-0.1-44.8,0-89.5-0.1-134.3c0-5,1.1-8.9,6.7-10c4.9-0.9,7.2,0.3,9,4.6c0.8,2,1.1,4.2,1.1,6.3c0,42.2,0.2,84.4-0.1,126.6
	c0.3,10.6-1.5,10.2,10.2,10.1c4,0,7.9,0,11.9,0c5.4-0.1,5.8-0.4,5.9-6c0-1.3,0.1-2.6,0.1-4c-0.2-1.8-0.1-3.7-0.1-5.5
	c0-69.9,0-139.8,0-209.7c0-1.5,0-3,0-4.5c-0.2-5.4-0.7-5.9-6.1-6c-4.8-0.1-9.7,0-14.5,0c-6.8,0-7.1,0.3-7.1,7c0,17.3,0,34.6,0,51.9
	c0,2.5,0.1,5-0.5,7.5c-1.1,4.6-3.7,6.7-8.2,6.9c-7-1.8-8.1-3.2-8.1-10.4c0-19.7-0.1-39.3,0-59c0-3.3-0.1-5.3-4.4-5.9
	c-7-1-10.6-6.7-13.4-12.7c0-14.3,0-28.7,0-43C3.8,25.8,11.1,21.7,22,22c18.5,0.4,37,0.1,55.5,0.1c12.6,0,19.6,7.1,19.7,19.8
	c0,10.3,0,20.6,0,31c0,10.8-4.6,16.7-15,19.2c-2.1,0.5-2.9,1.3-2.7,3.3c0,0.5,0,1,0,1.5c0,64.6,0,129.2,0,193.8c0,0.8,0,1.6,0,2.2
	c0.9,0.5,1.2,0.2,1.5-0.2c17.3-26.6,42-44,70.4-56.9c30.9-14,63.6-20.9,97.3-24c38.5-3.5,76.8-2.3,114.8,5.2
	c38,7.4,73.7,20.3,103.9,45.4c22.8,18.9,38,42.4,43.2,72c0.4,2.2-0.5,4.7,1.4,6.5c0,6.3,0,12.7,0,19c-0.6,0.7-0.6,1.3,0,2
	c0,2,0,4,0,6c-2.3,4-1.9,8.5-2.8,12.8c-9.9,49.3-46.3,84.9-96.1,92.8c-23.2,3.7-45.8,0.8-67.1-9.6c-2.9-1.4-4.4-1-6.6,1.4
	c-14.5,15.9-32,25.3-54,24.5c-19.7-0.7-35.7-9.7-48.8-23.9c-2.6-2.8-4.4-3.3-7.9-1.6c-17.4,8.5-36,11.4-55.2,10.5
	c-5.8-0.3-7.9-2.6-8.6-8.8c0.2-4.7,2.7-7,7.9-7.3c6.6-0.3,13.3-0.2,19.9-0.9c20.3-2.1,37.5-10.7,52.9-23.8
	c8-6.8,15.2-14.4,22.7-21.8c1.2-1.2,2.3-2.4,3.6-3.5c11.9-10.6,19.2-10.4,31.4-0.1c10.3,8.7,19,19.1,29.4,27.8
	c39.4,33.1,100.9,28.3,135.4-9.1c8.7-9.4,15.2-20.2,19.8-32.1c5.2-13.7,7.8-27.9,7.7-42.5c-0.2-26-9.7-48.3-27.5-67.2
	c-21.1-22.4-47.7-35.3-76.3-44.6c-23.4-7.6-47.6-11.5-72-13.4c-18.4-1.4-36.8-1.7-55.3-0.5c-25.7,1.7-51,5.2-75.7,12.4
	c-24.3,7.1-47.2,17.2-67.2,33.1C100,289.7,84.7,311,81.2,339c-2.4,19.4-0.6,38.6,6.9,56.9c10.2,26.1,28.5,44.3,54.1,55.3
	c1.7,0.7,3.4,1.3,5,2.3C150.4,455.9,152.2,458.8,150.3,462.9z"/>
<path class="st0" d="M511.9,362c-1.3-0.7-1-1.3,0-2C511.9,360.6,511.9,361.3,511.9,362z"/>
<path class="st1" d="M33.1,320c-0.1-13.6-0.2-27.3-0.2-40.9c0-29.1,0-58.2,0-87.4c0-6.9-2-9.1-8.4-9.9c3-4.7,0.7-9.9,1.4-14.8
	c5.3-1.6,7-5.3,7-10.6c-0.2-19.6,0-39.3-0.1-58.9c0-3.7,0.6-5.3,4.8-5.1c7.6,0.4,15.3,0.2,23,0c3.1-0.1,4.1,0.9,3.9,4
	c-0.2,4-0.1,8-0.1,12c0,68.5,0,137.1,0,205.6c0,2-0.2,4-0.3,6c-1.2,1-2.6,1.5-4.1,1.5c-7.6,0.2-15.2,0.2-22.8,0
	C35.7,321.4,34.2,321.1,33.1,320z"/>
<path class="st2" d="M150.3,462.9c0.7-5.7-2.6-8.2-7.4-10.1c-25.1-9.9-43-27.4-54.3-51.7c-0.6-1.3-1-2.8-1.4-4.2
	c2.7-0.3,3.2,2,4.3,3.5c19.6,28.1,46.4,44.1,80.5,46.9c28.8,2.4,54.6-5.9,77-24.5c7.6-6.3,14.3-13.4,21.3-20.3
	c3.1-3.1,6.3-6,9.7-8.6c6.1-4.8,8.6-4.9,15.2-0.5c3.9,2.6,7,6.2,10.3,9.5c9.8,9.8,19.6,19.4,31.2,27.2
	c25.6,17.1,53.5,21.5,83.1,14.8c27.7-6.2,49.5-21.4,65-45.4c1-1.6,1.8-3.7,4.3-3.5c-12.5,32.1-35.6,52.7-68.8,60.8
	c-35.9,8.8-67.9,0.2-95-25.3c-7.6-7.2-14.9-14.8-22.7-21.8c-11.2-10.2-17.7-10.3-29-0.1c-7.4,6.7-14.4,13.9-21.6,20.8
	c-21.4,20.8-46.9,31-76.8,29.5c-5-0.3-8.4,1.3-10,6.2C159.9,465.5,155.1,464.3,150.3,462.9z"/>
<path class="st3" d="M488.8,395.9c-5.9,7.8-11,16.1-18.2,22.8C453.2,435,433,445,409.2,448c-22.6,2.9-44-0.5-64.1-11
	c-11.4-6-21.2-14.2-30.6-22.9c-7-6.6-13-14.3-20.9-19.9c-5.9-4.2-7.6-3.8-13.1,0.7c-8.3,6.7-15.3,14.7-23,22.1
	c-16.6,15.9-35.7,27.4-58.6,30.7c-35.5,5-67.4-3.3-93.8-28.9c-6.8-6.6-12.3-14.3-18-21.7c-13.7-33.3-13-76.9,17.2-110.1
	c19.1-21,43-34.4,69.3-43.8c43.6-15.6,88.8-19.6,134.8-17.4c34.8,1.6,68.8,7.3,101.2,20.4c27.6,11.1,52.4,26.4,69.7,51.4
	C500.6,328.4,501.4,361.6,488.8,395.9z"/>
<path class="st4" d="M324.1,459.2c-20.5,21-52.8,20.9-73.1-0.3c-0.5-1.2,0.2-1.9,1-2.6c8.2-7.3,15.3-15.8,23.6-23
	c10.1-8.7,12.2-10.8,24.3,0.3c7.5,6.8,14,14.7,21.9,21.1C323.1,455.7,324.8,456.9,324.1,459.2z"/>
<path class="st4" d="M17.2,377c-2.1-9.2-0.6-18.6-0.9-27.9c-0.1-2.2,1.4-3.2,3.6-3.2c13.7,0,27.3,0,41,0c2.1,0,3,0.6,2.9,2.8
	c-0.7,13.9,1.3,27.5,4.4,41c0,2.9-2.4,2.4-4,2.5c-7.3,0.2-14.7,0.9-21.9-0.2C32,390.6,22.9,386.5,17.2,377z"/>
<path class="st4" d="M15.2,67.1c-0.1-8.5,0-17-0.2-25.4c-0.1-3.6,1.6-4.6,4.9-4.6c19.1,0.1,38.2,0.1,57.4,0c3.3,0,4.9,1,4.8,4.6
	c-0.2,8.5-0.2,17-0.2,25.4c-1.9,1.8-4.3,1.6-6.6,1.6c-17.8,0-35.6,0-53.5,0C19.5,68.7,17.1,68.9,15.2,67.1z"/>
<path class="st5" d="M15.2,67.1c22.2,0,44.4,0,66.7,0c0.6,10.3,0.6,10.3-9.3,10.3c-16,0-32,0-48,0C14.7,77.4,14.7,77.4,15.2,67.1z"
	/>
<path class="st5" d="M324.1,459.2c-10.5-9.6-19.8-20.5-30.9-29.5c-4.1-3.3-7.9-2.8-12,0.4c-6.4,4.9-11.6,11-17.3,16.4
	c-4.3,4.1-8.6,8.2-12.9,12.4c-5.1-4.4-5.1-4.4-0.2-8.1c10.7-8.2,19.7-18.4,29.6-27.5c8.3-7.6,6.3-7.7,14.4-0.1
	c10.5,9.9,20.3,20.7,32.1,29.3c2.1,1.5,2.1,2.6,0.2,4.1C326,457.4,325.1,458.3,324.1,459.2z"/>
<path class="st5" d="M17.2,377c6.5,6.2,13.5,12.1,22.7,13.3c9.4,1.2,18.9,1.8,28.3-0.5C73,401.9,73,402,60,401.9
	c-6.8-0.1-13.7,1-20.3-1C27.6,397.3,19.6,389.7,17.2,377z"/>
<path class="st6" d="M33.1,320c10.4,0,20.7,0,31.1,0c0.9,10.9,0.9,10.9-9.5,10.9c-5.8,0-11.7-0.2-17.5,0.1c-3.6,0.2-4.7-1.1-4.3-4.5
	C33.1,324.3,33,322.1,33.1,320z"/>
<path class="st7" d="M365.1,267c4.7,1.3,9.4,2.7,14.1,4c1.7,5.9,6.1,8.5,11.6,10.4c12.6,4.4,24.5,10.3,35.4,18.2
	c12.5,9,22.8,19.9,27.9,34.9c5,14.7,4,29.4-1.3,43.9c-8.8,13.5-21.1,22.7-36.3,27.5c-24,7.5-46,3.3-65.6-12.8
	c-8.7-7.1-16.1-15.5-24.2-23.1c-9.2-8.6-19.2-15.8-32.2-17.9c-11.5-1.9-21.8,1.1-31.5,6.8c-8.4,4.9-15.3,11.7-22.2,18.5
	c-7.6,7.7-15,15.6-24.2,21.5c-23.8,15.2-56.7,13.4-79.1-4.3c-5.7-4.5-10.2-10-14.6-15.7c-2.5-4.3-3.1-9.1-3.8-13.9
	c-3.6-24.5,4.3-44.5,23.3-60.3c20.4-16.9,44.4-25.9,69.8-32c29.2-7,58.8-9.2,88.7-8.1c15.9,0.6,31.9,1.8,47.6,5.1
	C354.6,271.2,360.2,271.9,365.1,267z"/>
<path d="M451.7,378c9.7-29.9,2.6-54-21.4-73.5c-13.2-10.7-28.3-17.9-44.2-23.4c-4.9-1.7-7.5-4.6-6.9-10c3.6-5.5,5.8-6.3,12.1-4.1
	c23.3,8.3,44.5,19.7,61.6,38.3c34.8,37.8,18.8,115.8-43.2,127.3c-24.2,4.5-45.9-1.3-64.4-17.9c-7.8-7-15.1-14.6-22.7-21.8
	c-6.7-6.3-13.9-12-22.8-14.9c-12-4-23.3-1.9-33.9,4.6c-6.7,4.1-12.4,9.5-18,15c-6.6,6.6-13,13.3-20.3,19.3
	c-43.5,35.7-108.4,13.2-120.6-41.7c-8.6-38.7,5.4-69.3,41.4-91.5c24.1-14.8,50.5-22.8,78-27.5c42.9-7.3,85.8-6.8,128.6,1
	c7.8,1.4,9.5,3.1,10,9.9c-2.1,4.9-5.4,6.4-10.8,5.4c-53.5-9.9-106.6-9.1-158.9,6.6c-19.9,6-38.5,14.7-54.1,28.7
	c-21,18.8-26.9,42.7-17.1,71.2c4.4,7.8,8.6,15.6,15.2,22.1c21.3,20.8,55.4,22.2,78.3,3c8.4-7.1,15.8-15.2,23.8-22.8
	c8.3-7.8,17.2-14.6,28.2-18.4c19.9-6.9,37.8-2.3,54.1,9.8c10.9,8.1,20.1,17.9,29.7,27.4c11.1,11,24.5,17.6,40.2,17.5
	c23.6-0.2,42.1-9.9,53.6-31.2C448.7,383.5,450.4,380.8,451.7,378z"/>
<path class="st8" d="M451.7,378c-7.7,26.7-35.8,44.3-64,40.6c-14.2-1.9-25.7-8.4-35.9-18.1c-8-7.6-15.6-15.5-23.9-22.7
	c-25.8-22.4-54.2-22.6-80.2-0.3c-10.2,8.8-19.3,18.8-29.6,27.6C187,431.5,138.8,419,124.4,381c-0.2-0.6-0.3-1.3-0.4-1.9
	c7.3,8.9,15.1,17.2,25.8,21.9c25.4,11.2,49.5,10.1,72-7.4c8.6-6.7,15.4-15.1,23.4-22.4c7.3-6.5,14.5-12.9,23.8-16.9
	c18.9-8.1,35.6-3.6,51,8.4c8.8,6.9,16,15.5,24.1,23.1c9.1,8.4,18.7,15.9,30.9,19.4c21.9,6.3,41.9,2.3,60.5-10.4
	C442.2,390.2,446.8,383.9,451.7,378z"/>
</svg>
