<?xml version="1.0" encoding="utf-8"?>
<!-- Generator: Adobe Illustrator 26.0.2, SVG Export Plug-In . SVG Version: 6.00 Build 0)  -->
<svg version="1.1" id="Layer_1" xmlns="http://www.w3.org/2000/svg" xmlns:xlink="http://www.w3.org/1999/xlink" x="0px" y="0px"
	 viewBox="0 0 512 512" style="enable-background:new 0 0 512 512;" xml:space="preserve">
<style type="text/css">
	.st0{fill:#D3EFFC;}
	.st1{fill:#525252;}
	.st2{fill:#505050;}
	.st3{fill:#010101;}
	.st4{fill:#B3E5FC;}
	.st5{fill:#C8F2FE;}
	.st6{fill:#F9F0B0;}
	.st7{fill:#FEFEFE;}
</style>
<path class="st0" d="M49.9,456.3c16.3,0.1,32.7,0.1,49,0c8.3,0,12.3-2.9,12.2-8.5c-0.1-5.5-4.1-8.3-12.5-8.3c-15.3,0-30.7,0-46,0
	c-20.9-0.1-34.1-13.2-34.1-34.1c-0.1-83.8,0-167.6,0-251.4c0-8.7,0.8-9.5,9.4-9.5c152.3,0,304.5,0,456.8,0c7.9,0,8.8,0.9,8.8,9
	c0,84.1,0.1,168.3,0,252.4c0,20.5-13.3,33.6-34.1,33.6c-83.3,0.1-166.6,0-249.9,0c-2,0-4,0-6,0c-6.7,0.2-10.4,3.2-10.5,8.2
	c-0.1,5.2,3.7,8.3,10.7,8.5c1.3,0,2.7,0,4,0"/>
<path d="M511,416.1c-2.8,22.2-23.2,40.6-46.2,41.7c-2.2,0.1-4.3,0.1-6.5,0.1c-84.5,0-168.9,0-253.4,0c-9.2,0-13.8-3.3-13.9-9.9
	c-0.1-6.7,4.7-10.1,14.2-10.1c84.5,0,168.9,0,253.4,0c21.3,0,33.3-12.1,33.3-33.5c0-84.5,0-168.9,0.1-253.4c0-4.1-0.9-5.1-5.1-5.1
	c-153.9,0.1-307.9,0.1-461.8,0c-4.1,0-5.1,0.9-5.1,5.1c0.1,84.8,0.1,169.6,0.1,254.4c0,20.2,12.4,32.5,32.8,32.5c16,0,32,0,48,0
	c7.6,0,12.3,3.9,12.2,10.1c-0.1,6.1-4.6,9.9-11.9,9.9c-17.7,0-35.3,0.3-53-0.1C24.6,457.3,3.8,438.6,1,416.1c-1-1.6,0.3-3.6-0.9-5.1
	c0-105,0-209.9,0-314.9c1.8-27,29.4-43.9,53.2-43.8c135.8,0.5,271.5,0.2,407.3,0.3c19.3,0,34.3,8.2,45,24.3
	c3.7,5.5,5.8,11.6,5.8,18.3c0.2,2-0.5,4.1,0.5,6c0,103.3,0,206.6,0,309.9C510.7,412.5,512,414.5,511,416.1z"/>
<path class="st1" d="M511,95.9c0.3,0.1,0.6,0.2,0.9,0.1c0,1.7,0,3.3,0,5C510.6,99.5,510.7,97.7,511,95.9z"/>
<path class="st2" d="M0.1,411c1.3,1.5,1.2,3.3,0.9,5.1c-0.3-0.1-0.6-0.2-0.9-0.1C0.1,414.3,0.1,412.6,0.1,411z"/>
<path class="st1" d="M511,416.1c-0.3-1.8-0.4-3.6,0.9-5.1c0,1.7,0,3.3,0,5C511.6,415.9,511.3,416,511,416.1z"/>
<path d="M53.8,292c0-32.3,0-64.6,0-96.9c0-9.9,3.2-13,13.2-13c51.1,0,102.3,0,153.4,0c10.1,0,13.4,3.3,13.4,13.5
	c0,64.3,0,128.6,0,192.8c0,10.2-3.3,13.5-13.4,13.5c-51.1,0-102.3,0-153.4,0c-10,0-13.2-3.1-13.2-13C53.8,356.6,53.8,324.3,53.8,292
	z"/>
<path d="M356.5,256c-29,0-58,0-86.9,0c-9.3,0-12.6-3.3-12.6-12.6c0-16.5,0-33,0-49.5c0-8.3,3.6-11.8,11.9-11.8
	c58.8,0,117.6,0,176.4,0c8.3,0,11.8,3.6,11.9,11.9c0,16.8,0,33.6,0,50.5c0,7.9-3.7,11.6-11.6,11.6C415.7,256,386.1,256,356.5,256z"
	/>
<path d="M356.7,354.2c-28.5,0-57,0-85.4,0c-1.8,0-3.7,0-5.5-0.2c-4.8-0.5-8.4-4.1-8.8-8.7c-0.5-5,2.3-9.3,7.2-10.6
	c2.1-0.5,4.3-0.6,6.4-0.6c57.6,0,115.2,0,172.9,0c2.3,0,4.7-0.1,6.9,0.7c4.5,1.6,7.1,5.8,6.6,10.5c-0.5,4.4-3.8,8-8.4,8.6
	c-2,0.3-4,0.2-6,0.2C414,354.2,385.3,354.2,356.7,354.2z"/>
<path d="M356.7,403.4c-28.5,0-56.9,0-85.4,0c-2,0-4,0-6-0.3c-5-0.7-8.3-4.7-8.4-9.6c0-4.9,3.2-8.9,8.2-9.8c2-0.3,4-0.3,6-0.3
	c57.3,0,114.6,0,171.8,0c2.2,0,4.4,0,6.5,0.4c4.7,0.9,7.7,5,7.6,9.7c-0.1,4.7-3.3,8.7-7.9,9.5c-2,0.3-4,0.3-6,0.3
	C414.3,403.4,385.5,403.4,356.7,403.4z"/>
<path d="M378.4,305.1c-22.1,0-44.3,0-66.4,0c-7.4,0-11.9-3.6-12-9.7c-0.1-6.2,4.6-10.3,12.1-10.3c44.4,0,88.8,0,133.3,0
	c4.5,0,8.2,1.2,10.5,5.3c1.8,3.3,1.7,6.7-0.3,10c-2.2,3.6-5.6,4.8-9.8,4.7C423.3,305,400.8,305.1,378.4,305.1z"/>
<path class="st3" d="M154,457.9c-5.5,0-10.1-4.7-10-10.2c0.1-5.3,4.7-9.7,10-9.7c5.3,0,9.8,4.4,10,9.7
	C164.1,453.2,159.5,457.9,154,457.9z"/>
<path class="st3" d="M276.9,295.3c-0.1,5.5-4.9,9.9-10.4,9.7c-5.4-0.2-9.6-4.6-9.5-10.1c0.1-5.5,4.9-10.1,10.3-9.8
	C272.5,285.4,277,290.1,276.9,295.3z"/>
<path class="st4" d="M255.8,126.1c-76.8,0-153.6,0-230.4,0.1c-4.3,0-5.8-0.8-5.4-5.3c0.5-5.8,0-11.7,0.2-17.5
	c0.4-15.9,13.1-28.7,29-29.2c1,0,2,0,3,0c135.9,0,271.8,0,407.7,0c16.9,0,29.6,10,31.6,25.8c1,7.9,0.3,16,0.5,24
	c0,1.8-0.6,2.4-2.3,2.3c-1.2-0.1-2.3,0-3.5,0C409.3,126.1,332.5,126.1,255.8,126.1z"/>
<path class="st5" d="M213.3,320.5c-1.6-0.3-2.1-1.6-2.9-2.6c-8.8-9.5-19-17.2-31-22.1c-3.4-1.4-3.6-2.4-1.4-5.4
	c15.5-21.9,6.8-52.2-17.8-62.7c-16.9-7.2-36.7-2.5-48.5,11.5c-12,14.3-13.2,34.6-3,50.1c0.9,1.4,1.9,2.7,3.2,4.6
	c-7,3.3-14.1,6.5-20.3,11.1c-6.3,4.6-12,9.7-17.1,15.9c-1.2-1.7-0.7-3.3-0.7-4.7c0-36.5,0-72.9-0.1-109.4c0-3.9,0.9-4.9,4.8-4.9
	c43.5,0.2,86.9,0.1,130.4,0c3.9,0,4.9,1,4.9,4.9c-0.2,36.5-0.1,72.9-0.1,109.4C213.7,317.6,214.3,319.2,213.3,320.5z"/>
<path class="st4" d="M157.7,382c9-20.5,17.7-40.4,26.6-60.6c19.4,14.8,29,33.9,29.5,57.7c0.1,2.7-1.2,2.9-3.3,2.9
	C193.2,381.9,175.9,382,157.7,382z"/>
<path class="st4" d="M128.9,382c-17.4,0-34.8,0-52.3,0c-2.2,0-2.8-0.8-2.8-2.9c0-22.8,9.1-41.2,26.6-55.7c1.5-1.2,2.7-2.4,4,0.6
	c8.1,18.9,16.5,37.8,24.7,56.6C129.1,380.9,129,381.3,128.9,382z"/>
<path class="st6" d="M143.3,288.2c-12.1-0.2-21.6-9.9-21.4-22.2c0.1-12.1,10.1-21.9,22.1-21.7c12,0.2,21.9,10.2,21.9,22.1
	C165.7,278.6,155.6,288.4,143.3,288.2z"/>
<path class="st7" d="M143.7,364.1c-7.4-16.9-14.5-33-21.6-49.1c-1-2.2-0.7-3,1.6-3.7c13.3-3.9,26.6-3.8,39.9-0.1
	c1.6,0.4,3.2,0.6,2,3.3C158.3,330.6,151.2,346.9,143.7,364.1z"/>
<path class="st6" d="M357,236c-25.1,0-50.3-0.1-75.4,0.1c-3.6,0-4.9-0.7-4.7-4.6c0.3-8.5,0.2-17,0-25.5c0-2.8,0.3-4.1,3.7-4.1
	c51,0.1,101.9,0.1,152.9,0c3.4,0,3.7,1.3,3.7,4.1c-0.1,8.7-0.2,17.3,0,26c0.1,3.4-1.1,4.1-4.2,4.1C407.6,236,382.3,236,357,236z"/>
</svg>
