<?xml version="1.0" encoding="utf-8"?>
<!-- Generator: Adobe Illustrator 26.0.2, SVG Export Plug-In . SVG Version: 6.00 Build 0)  -->
<svg version="1.1" id="Layer_1" xmlns="http://www.w3.org/2000/svg" xmlns:xlink="http://www.w3.org/1999/xlink" x="0px" y="0px"
	 viewBox="0 0 512 512" style="enable-background:new 0 0 512 512;" xml:space="preserve">
<style type="text/css">
	.st0{fill:#969696;}
	.st1{fill:#828282;}
	.st2{fill:#CCCDCF;}
	.st3{fill:#E6E6E6;}
	.st4{fill:#E5E5E5;}
	.st5{fill:#787878;}
	.st6{fill:#EDEDED;}
	.st7{fill:#7D7D7D;}
	.st8{fill:#EEEEEE;}
	.st9{fill:#707070;}
	.st10{fill:#F5F5F5;}
	.st11{fill:#EAEAEA;}
	.st12{fill:#737373;}
	.st13{fill:#EBEBEB;}
	.st14{fill:#F6F6F6;}
	.st15{fill:#EFEFEF;}
	.st16{fill:#F1F1F1;}
	.st17{fill:#DCDCDD;}
	.st18{fill:#F7F7F7;}
	.st19{fill:#F8F8F8;}
	.st20{fill:#ECECEC;}
	.st21{fill:#DEDFE0;}
	.st22{fill:#808080;}
	.st23{fill:#F9F9F9;}
	.st24{fill:#FDFDFD;}
	.st25{fill:#E9E9E9;}
	.st26{fill:#F4F4F4;}
	.st27{fill:#FEFEFE;}
	.st28{fill:#FFFFFF;}
	.st29{fill:#FCFDFD;}
	.st30{fill:#FCFDFC;}
	.st31{fill:#FBFDFC;}
	.st32{fill:#FDFEFE;}
	.st33{fill:#696969;}
	.st34{fill:#F6FAF8;}
</style>
<path class="st0" d="M41.5,161.2c0.5-0.4,1-0.2,1.6-0.2c42.2,0,84.4,0,126.6,0c0.3,0,0.7,0,1,0c0.5,0,0.7,0.2,0.7,0.7
	c0,0.4,0,0.9,0,1.3c0,12,0,23.9,0,35.9c0,0.6,0,1.2,0,1.8c-1.3,1.2-2.9,1.2-4.2,0.2c-2-1.6-3.8-3.5-6-5c-1.1-0.8-2.3-1.2-3.7-1.2
	c-5.7-0.1-11.3,0.2-16.9,0.9c-2.6,0.2-5.2,0.5-7.8,0.9c-1.8,0.2-3.7,0.5-5.5,0.8c-2.2,0.2-4.4,0.7-6.6,1c-3.4,0.4-6.7,1-10.1,1.6
	c-8.6,1.6-17,3.8-25.6,5.4c-1.7,0.3-3.4,0.6-5.2,0.9c-2.5,0.3-3.3-0.1-4.2-2.6c-1-2.7-2.9-4.1-5.7-4.6c-1.1-0.2-2.2-0.2-3.2,0.1
	c-1.3,0.2-2.6,0-3.8,0.3c-3.8,0.4-7.6,1.1-11.4,2c-2,0.3-4,0.9-5.9,1.4c-4.1,1.4-4.1,1.4-4.1-2.8C41.5,187,41.4,174.1,41.5,161.2z"
	/>
<path class="st0" d="M171.3,210.9c0,12.6,0,25.1,0,37.7c-1.3,1.2-3.3,1.3-4.6,0.1c-1.6-1.5-3-3.1-4.9-4.2c-1.6-1.5-3.6-2-5.7-1.9
	c-1.8,0.1-3.7-0.3-5.5,0.2c-0.7,0.1-1.3,0.1-2,0.1c-1.8-0.1-3.6,0.4-5.4,0.4c-2.7,0.3-5.5,0.6-8.2,1c-3.9,0.4-7.7,1.1-11.6,1.6
	c-0.5,0-0.9,0-1.3,0.2c-0.2,0.1-0.4,0.1-0.5,0.1c-8.3,1.1-16.4,2.8-24.5,4.6c-5.6,1.3-11.3,2.5-17,3.4c-1,0.2-2.1,0.3-3-0.2
	c-0.8-0.6-1.2-1.4-1.4-2.3c-0.7-2.4-2.3-3.7-4.6-4.3c-1.3-0.3-2.7-0.1-4-0.2c-2.4-0.1-4.7,0.4-7.1,0.7c-0.6,0.1-1.2,0.2-1.8,0.1
	c-0.2-0.1-0.3-0.2-0.4-0.4c-0.2-0.8-0.1-1.6-0.1-2.4c0-12.4,0-24.8,0-37.2c0-1,0.1-2.1-0.8-2.9c-0.2-0.8,0.5-0.8,1-0.9
	c0.7-0.1,1.4-0.1,2.1-0.1c1.2,0,2.4,0.2,3.6-0.1c0.4-0.1,0.7-0.1,1.1,0c0.8,0.3,1.7,0.1,2.5,0.4c0.2,0.1,0.3,0.3,0.4,0.6
	c0,0.4-0.1,0.9,0.1,1.3c0.2,0.9,0.8,1.6,1.5,2.2c2.5,2.1,5.5,3,8.8,3.1c5.3,0.3,10.5-0.8,15.6-2.1c5.4-1.4,10.8-2.6,16.2-3.7
	c0.3-0.1,0.7-0.1,1.1-0.1c0.4,0,0.9-0.1,1.3-0.2c3.1-0.6,6.2-1.1,9.3-1.6c2.1-0.3,4.1-0.6,6.2-1c1.2-0.1,2.3-0.3,3.4-0.5
	c0.5,0,1,0,1.5-0.2c0.3-0.1,0.5-0.1,0.8-0.1c1.9-0.2,3.8-0.4,5.7-0.7c4-0.3,8-0.8,12-1.2c2.7-0.3,5.1-0.1,6.8,2.3
	c0.5,0.7,1.2,1.3,1.8,1.8c1.9,1.7,4.1,2.6,6.7,2.6c1.5,0,3.1-0.4,4.5,0.4C171.8,208.4,171.4,209.6,171.3,210.9z"/>
<path class="st1" d="M171.4,259.6c0,4.6,0,9.2-0.1,13.7c0,4.1,0,8.3,0,12.4c0,1.2,0,1.2-1.3,1.3c-0.4,0-0.8,0-1.1,0
	c-41.9,0-83.8,0-125.7,0c-0.5,0-1,0-1.5,0c-0.4-0.5-0.2-1.2-0.2-1.7c0-8.1,0-16.2,0-24.4c0-1.9-0.6-3.8,0-5.6c0.3-1,1.1-0.9,1.8-1.1
	c2.5-0.5,5-1,7.5-1.5c2.5-0.4,5-0.7,7.5-1c0.5-0.1,1.1-0.1,1.7-0.1c2,0.1,4,0,6,0c1.1,0,1.8,0.3,1.9,1.6c0.1,1.9,1.5,3,3,4
	c1.5,0.9,3.1,1.4,4.8,1.7c4.9,0.7,9.7,0.2,14.4-1c10.7-2.7,21.4-4.9,32.3-6.6c4.7-0.7,9.3-1.4,14-2c2-0.3,4.1-0.4,6.2-0.7
	c1.4,0,2.8-0.3,4.1-0.4c0.7,0,1.4,0.1,2.1-0.2c0.2-0.1,0.3-0.1,0.5-0.1c1.4,0,2.8-0.2,4.2-0.4c1.6-0.1,2.8,0.5,3.8,1.8
	c1.3,1.7,2.9,3,4.7,4.1c2.3,1.2,4.7,1.2,7.2,1.3c0.8,0.1,1.8-0.2,2.5,0.6C172,256.9,172.1,258.3,171.4,259.6z"/>
<path class="st2" d="M171.4,259.6c0-1.4,0-2.8-0.1-4.3c0.2-0.8,0.9-0.8,1.4-0.8c7.3-0.3,14.5-1.6,21.7-2.9c7.6-1.3,15.2-2,22.9-2.4
	c7.7-0.4,15.4-0.8,23.2-1c6.1-0.1,11.8,1,17.4,3.3c1.7,0.7,3.3,1.4,5,2c3.2,1.2,6.7,1.7,10,2.4c1.9,0.4,3.7,0.5,5.6,0.7
	c0.6,0.1,1.3,0.2,1.8,0.6c0.7,0,1.3,0,2,0c1.2,0.2,2.4,0.2,3.7,0c2.1-0.4,4.3-0.1,6.5-0.1c3.2,0,6.5-0.6,9.7-0.3
	c0.5,0,1-0.1,1.4-0.2c3.6-0.3,7.2-0.4,10.9-0.7c5.9-0.2,11.9-0.5,17.8-0.8c5.8-0.3,11.7-0.4,17.5-0.8c2.5,0,5.1,0,7.6-0.3
	c2.4,0,4.8-0.3,7.3,0.3c0.5,0.1,1.1,0.1,1.6-0.1c2,0,3.9,0,5.9,0c1.2-0.6,2.6-0.7,3.9-0.8c3.2-0.1,6.4,0.1,9.5-0.3
	c5.2,0.1,10.4-0.6,15.6-0.4c1.9,0.1,3.8-0.5,5.7-0.3c5,0.1,10-0.4,15-0.4c7.4,0,14.7-0.1,22.1-0.4c13-0.5,26-0.1,39.1-0.2
	c1.5,0,3.1,0,4.4,0.9c0.6,0.4,1.5,0.4,2,1.3c0.7,1.3,0.2,2.3-1.3,2.3c-1.2,0-2.4,0-3.6,0c-15.7,0-31.4,0-47.2,0
	c-0.9,0-1.7,0.2-2.5,0.4c-1.2,0.4-2.5,0.5-3.9,0.5c-4.7,0-9.4,0-14.1,0c-1.4,0-2.7-0.1-4.1,0.3c-0.1,0-0.2,0-0.3,0
	c-4.2-0.8-8.4,0.6-12.7,0.4c-4.5-0.2-9.1,0-13.6,0c-0.7,0-1.4-0.1-2,0.4c-0.4,0.3-0.9,0.2-1.4,0.2c-2.6,0-5.1,0-7.7,0
	c-2.2,0-4.4,0.3-6.7,0c-1.1-0.1-2.3-0.3-3.3,0.5c-0.3,0.2-1,0.1-1.4,0.1c-4.6,0-9.2,0-13.8,0c-0.6,0-1.3-0.1-1.9,0.4
	c-0.3,0.3-0.8,0.2-1.3,0.2c-1.6,0-3.3-0.1-4.9,0.1c-2.3,0.2-4.5,0-6.8,0c-1,0-2-0.2-3,0.5c-0.3,0.2-0.8,0.1-1.3,0.1
	c-3.4,0-6.8,0-10.2,0c-0.7,0-1.5-0.1-2.2,0.5c-0.3,0.3-0.8,0.2-1.3,0.2c-2.3,0-4.6,0-6.8,0.1c-1.3,0-2.6-0.1-4,0.5
	c-1.1,0.5-2.4,0.4-3.7,0.4c-1.5,0.1-3.1,0-4.6,0c-1.3,0-2.6,0-3.9,0.2c-1,0.2-2,0.1-3.1-0.1c-2.4-0.4-4.7,0.1-7.1,0.4
	c-0.1,0-0.2,0.1-0.3,0.2c-0.5-0.3-0.4-0.9-0.5-1.3c-0.4-1.4-1.3-2.2-2.6-2.2c-1.3,0-2.3,0.8-2.6,2.2c-0.1,0.5,0,1-0.5,1.3
	c-0.6-1.3-1.9-1.4-3.1-1.6c-0.8-0.2-1.8,0.2-2.4-0.1c-1.5-0.8-3.3-0.3-4.8-1c-0.9-0.4-2.1-0.5-3.1-0.8c-2.4-0.8-4.8-1.4-7.1-2.7
	c-1.3-0.8-2.9-1.1-4.4-1.5c-1.7-0.5-3.5-0.8-5.2-1.2c-0.5-0.1-1.1-0.1-1.6-0.1c-6.5,0-13,0-19.5,0c-0.7,0-1.3,0-1.9,0.4
	c-0.4,0.3-0.9,0.2-1.4,0.2c-2.5,0-5,0-7.5,0c-0.8,0-1.5-0.1-2.2,0.5c-0.3,0.3-0.8,0.1-1.3,0.1c-1.9,0-3.8,0-5.7,0
	c-0.3,0-0.6-0.1-0.8,0.1c-1.1,0.8-2.4,0.5-3.6,0.6c-0.6,0-1.2,0-1.7,0.4c-0.8,0.5-1.8,0.2-2.7,0.3c-0.8,0.1-1.6-0.1-2.3,0.6
	c-0.3,0.3-0.9,0.4-1.4,0.4c-1.1-0.1-2,0.4-3.1,0.5c-2.1,0.2-4,0.9-6.1,0.9c-0.7,0-1.3,0.2-1.8,0.6c2.8,0,5.5,0,8.3,0
	c2.6,0,5.2,0,7.9,0c0.5,0,1.1-0.2,1.5,0.4c-0.7,0.6-1.6,0.5-2.5,0.5c-6.5,0-13.1,0-19.6,0c-2.6,0-2.5,0-2.6,2.7
	c0,1.4,0.4,2.9-0.5,4.3c-0.5-0.3-0.3-0.9-0.4-1.3c0-1.6,0-3.1,0-4.7c0-1.1,0-1.2-1.2-1.2C172.9,259.3,172.1,259.1,171.4,259.6z"/>
<path class="st3" d="M259.3,304.5c72.8,0,145.5,0,218.3,0c0.4,0,0.9,0,1.3,0c1.4,0,1.4,0.1,1.4,1.5c0,0.7-0.2,1.2-1,1.1
	c-0.5,0-1,0-1.5,0c-145.6,0-291.3,0-436.9,0c-0.4,0-0.9,0-1.3,0c-1.3,0-1.3-0.1-1.3-1.3c0-1.2,0-1.3,1.3-1.3c0.4,0,0.9,0,1.3,0
	C113.6,304.5,186.5,304.5,259.3,304.5z"/>
<path class="st2" d="M171.3,210.9c-0.5-1.1-0.2-2.4-0.3-3.5c1.2-1,2.7-0.7,4.1-0.8c6.7-0.5,13.3-1.7,19.9-2.9
	c6.8-1.2,13.6-1.8,20.5-2.2c5.3-0.3,10.7-0.5,16-0.9c2.2-0.1,4.3-0.1,6.5,0c1.8,0,3.7,0,5.5,0c0.7,0,1.4,0,2,0.5
	c1.8-0.1,3.5,0.6,5.2,0.7c2.2,0,4.2,1.1,6.2,1.7c2.5,1.1,5.1,2.2,7.7,2.9c3.7,1.1,7.4,1.9,11.2,2.2c4.3,0.7,8.7,0.8,13,0.8
	c4.2,0.1,8.4,0,12.5-0.4c1.1-0.1,2.2-0.1,3.3-0.1c2,0,3.9-0.5,5.9-0.3c2.1-0.2,4.2-0.4,6.3-0.3c0.5,0,1.1-0.1,1.6,0.2
	c2.4,0.1,4.8-0.2,7.2-0.3c1.8-0.8,3.8-0.6,5.8-0.8c1.2-0.1,2.5-0.1,3.7-0.3c6.1-0.3,12.2-0.9,18.3-1c0.4,0,0.7-0.1,1.1-0.2
	c4.2-0.4,8.5-0.5,12.7-0.8c5.3-0.4,10.7-0.5,16-0.9c3.4-0.2,6.9-0.3,10.3-0.4c10.1-0.1,20.3-0.1,30.4,0c0.9,0,1.9-0.2,2.6,0.6
	c-0.3,0.3-0.7,0.4-0.4,1c0.6,1-0.3,2.6-1.5,2.8c-0.5,0.1-1.1,0-1.6,0c-10.8,0-21.5,0-32.3,0c-1.5,0-2.9,0.2-4.4,0.2
	c-2.2,0-4.3-0.1-6.4,0.4c-1.2,0.2-2.5,0-3.8,0.1c-1.4,0-2.8,0.2-4.2,0.2c-2,0-3.9,0.2-5.8,0.4c-1.8,0.2-3.6-0.1-5.4,0.3
	c-0.3,0.1-0.7-0.1-1.1-0.1c-1-0.1-1.9-0.4-2.8,0.3c-0.4,0.3-0.8,0.2-1.3,0.2c-2.1,0-4.3,0-6.4,0c-1,0-2.1-0.2-3,0.5
	c-0.2,0.1-0.5,0.1-0.8,0.1c-2.3-0.1-4.5,0.3-6.8,0.1c-0.8-0.1-1.6-0.2-2.3,0.4c-0.3,0.3-0.8,0.2-1.3,0.2c-2.1,0-4.3,0-6.4,0
	c-1.3,0-2.5,0-3.8,0.5c-1.3,0.5-2.8,0.4-4.2,0.4c-3.1,0-6.1,0-9.1,0.4c-2.2,0.3-4.4,0.1-6.5,0.3c-2.1,0.2-4.1,0.1-6.2,0.5
	c-0.5,0.1-1,0.1-1.5,0.1c-5.9,0-11.8,0-17.7,0c-1.4,0-2.8-0.1-4.1-0.8c-0.3-0.1-0.6-0.1-1-0.1c-0.7-0.1-1,0.2-1,0.9
	c0,1.7,0,3.4,0,5.1c0,0.6,0.3,0.9,0.9,0.9c0.9,0,1.9,0,2.8,0c0.5,0,0.9,0,0.8,0.7c-0.6,0.2-1.2,0.1-1.8,0.1
	c-3.6-0.1-3.5-0.1-3.6-3.7c0-1.1,0.3-2.3-0.5-3.3c-0.1-0.2,0-0.5-0.3-0.6c-0.7-0.1-1.3-0.6-1.9-0.7c-1.5-0.2-2.9-0.3-4.4-0.6
	c-1.9-0.5-3.9-0.9-5.7-1.6c-2.8-1-5.5-2.1-8.2-3.1c-3.2-1.2-6.5-1.6-9.9-1.6c-5,0.1-9.9,0-14.9,0.1c-1.8,0-3.6,0-5.3,0
	c-0.8,0-1.6-0.1-2.3,0.5c-0.2,0.2-0.7,0.1-1.1,0.1c-1.4,0-2.7,0-4.1,0c-1.3,0-2.6,0.1-3.9,0c-1.3-0.1-2.5,0.6-3.8,0.8
	c-1.7,0.2-3.4,0.1-5,0.4c-3.3,0.6-6.6,1-10,1.6c-2.6,0.4-5.1,0.8-7.7,1.4c-0.7,0.2-1.5,0.1-2.3,0.1c-0.9,0-1.7-0.2-2.5,0.5
	c-0.2,0.2-0.7,0.1-1.1,0.1c-1.6,0-3.3,0-4.9,0C172.3,210.5,171.7,210.3,171.3,210.9z"/>
<path class="st4" d="M263,254c-1.4-0.1-2.5-0.9-3.8-1.4c-3.5-1.3-6.9-2.7-10.5-3.3c-1.4-0.2-2.8-0.5-4.2-0.5c-3.6,0-7.2-0.1-10.8,0
	c-4.7,0.1-9.5,0.3-14.2,0.7c-3.2,0.2-6.4,0.4-9.6,0.6c-3.9,0.3-7.8,0.8-11.6,1.4c-4.5,0.7-9,1.4-13.5,2.2c-3,0.5-6,0.8-9,1.2
	c-1,0.1-2,0.1-2.9,0.1c-0.5,0-1.1-0.1-1.6,0.3c-2-0.2-3.9,0-5.9-0.3c-1.4-0.2-2.8-0.5-3.9-1.4c0.2-2.5,0.1-5,0.2-7.5
	c0-0.7-0.1-1.5,0.5-2.1c1.8,0.9,3.2,2.4,4.6,3.9c0.9,0.9,1.7,1.4,3,0.9c0.5-0.2,1.1,0,1.5-0.4c2.9-0.1,5.8-0.8,8.7-1.2
	c5.5-0.8,11.1-1.8,16.6-2.5c4.8-0.6,9.5-1,14.3-1.3c5.5-0.4,11.1-1.1,16.6-1.4c9.3-0.6,18.5-0.7,27.6,1.8c2.7,0.8,5.3,1.6,7.8,2.8
	c0.3,0.1,0.6,0.1,0.9,0.2c1.1,2.2,0.6,4.4,0.3,6.7C264.2,254.2,263.6,254.4,263,254z"/>
<path class="st4" d="M231.3,201c-4.5,0.2-9,0.4-13.5,0.7c-3,0.2-6.1,0.4-9.1,0.6c-4.5,0.4-9,1-13.4,1.8c-4.9,0.8-9.9,1.7-14.8,2.4
	c-3.1,0.4-6.3,0.6-9.4,0.8c-1.4,0-2.8-0.1-4.3-0.1c-2.9,0-5.3-1-7.4-3c-1-0.9-1.9-1.8-2.7-2.8c-0.8-1-1.7-1.3-2.9-1.2
	c-2.1,0.2-4.1,0.3-6.2,0.5c-2.8,0.2-5.5,0.5-8.3,0.8c0.9-1.2,0.9-2.5,0.8-3.9c0-0.9-0.2-1.9,0.5-2.7c1.5-0.5,3-0.4,4.5-0.5
	c4.1-0.3,8.1-0.6,12.2-0.5c1.5,0,2.8,0.5,4.1,1.4c2,1.4,3.9,3,5.6,4.8c0.7,0.7,1.4,1.1,2.4,0.8c0.6-0.2,1.3,0,1.9-0.4
	c2-0.1,3.9-0.5,5.8-0.8c5.5-0.8,10.9-1.7,16.4-2.5c5.4-0.8,10.9-1.3,16.4-1.7c5.6-0.4,11.3-1,16.9-1.5c1.4-0.1,2.7-0.1,4.1-0.1
	c0.3,0,0.6,0.1,0.6,0.4C231.8,196.7,232.2,198.9,231.3,201z"/>
<path class="st4" d="M487.4,252.1c-8.4-0.7-16.9-0.2-25.3-0.3c-4.7-0.1-9.5-0.1-14.2,0.1c-6.2,0.3-12.4,0-18.6,0.3
	c-4.4,0.2-8.8,0.1-13.2,0.3c-3,0.2-6.1,0.3-9.1,0.2c-1-1.6-0.4-3.3-0.5-5c-0.1-0.9-0.2-2,0.5-2.8c3.6,0,7.2-0.1,10.8-0.1
	c11.9,0,23.9,0,35.8,0.1c6.1,0.1,12.2,0.3,18.3,0.7c4.9,0.3,9.9,0.5,14.8,1.5c1,0.2,2,0.4,3,0.8c0.8,0.4,1.3,0.9,1.3,1.9
	c0,1-0.7,1.5-1.5,1.8C488.7,251.9,488.1,252.1,487.4,252.1z"/>
<path class="st4" d="M426.5,204c-5.2,0-10.4-0.1-15.6-0.1c-5.9,0-11.9-0.1-17.8,0.1c-4.4,0.2-8.8,0.2-13.2,0.5
	c-3.1,0.2-6.3,0.4-9.5,0.5c-3.6,0.1-7.3,0.4-10.9,0.6c-1.7,0.1-3.4,0.2-5.1,0.3c-0.6,0.3-0.9-0.1-1.2-0.5c-0.8-1.4-0.3-5.1,0.8-6.3
	c6.2-0.4,12.5-0.8,18.8-1.1c4.4-0.2,8.8-0.4,13.2-0.6c6-0.3,12-0.6,18-0.6c6.8,0.1,13.5,0.6,20.1,2.3c0.9,0.2,1.9,0.5,2.8,0.7
	c0.3,0.1,0.6,0.2,0.9,0.4c0.7,0.4,1.2,1,1.2,1.8c0,0.9-0.6,1.4-1.3,1.7C427.3,203.8,426.9,203.9,426.5,204z"/>
<path class="st5" d="M249.9,222c1-0.9,1.8-1.6,2.7-2.2c2.3-1.3,4.9-1.1,6.6,0.7c1.1,1.1,1.4,2.4,1.5,3.9c0.2,3.3,0.1,6.5,0.1,9.8
	c0,0.7,0.1,1.3,0.1,2c0,1,0.3,1.8,1.5,2.1c0.3,0.1,0.6,0.1,0.5,0.5c-0.1,0.4-0.4,0.3-0.6,0.3c-2.3,0-4.6,0-6.9,0c-0.6,0-1.2,0-1.8,0
	c-0.1,0-0.3,0-0.4-0.2c-0.1-0.3,0-0.5,0.2-0.5c1.4-0.4,1.6-1.5,1.6-2.7c0-3.7,0-7.4-0.1-11.1c0-1-0.1-2.1-1.3-2.4
	c-1.1-0.3-2,0.3-2.7,1.1c-0.7,0.7-1.1,1.5-1.1,2.6c0.1,3.2,0,6.3,0,9.5c0,1.3,0,2.7,1.7,3.1c0.2,0.1,0.2,0.2,0.2,0.4
	c-0.1,0.4-0.4,0.3-0.6,0.3c-1.9,0-3.7,0-5.6,0c-1,0-2,0-2.9,0c-0.3,0-0.6,0-0.6-0.4c0-0.3,0.2-0.4,0.4-0.4c1.4-0.3,1.6-1.4,1.6-2.6
	c0-7,0-14.1,0-21.1c0-1.2-0.1-2.5-1.7-2.7c-0.3,0-0.3-0.3-0.3-0.5c0-0.4,0.3-0.4,0.6-0.4c2.2,0,4.4,0,6.5,0c0.7,0,0.8,0.4,0.8,1
	c0,2.8,0,5.7,0,8.5C249.9,220.8,249.9,221.2,249.9,222z"/>
<path class="st5" d="M327.1,270.1c-0.1,0.5,0.2,0.7,0.4,0.9c1.6,2.4,1.4,5.4-0.7,7.5c-1.7,1.7-3.9,2.5-6.3,2.6
	c-0.8,0-1.5-0.1-2.3-0.1c-0.8,0-1.5,0.3-1.9,1.1c-0.6,1-0.2,2,0.8,2.4c0.6,0.3,1.2,0.2,1.8,0.2c2.4,0.1,4.9-0.2,7.3,0.3
	c1.8,0.4,3.3,1.2,3.9,3.1c0.6,2,0.2,3.8-1.2,5.3c-1.3,1.5-3.1,2-4.9,2.4c-3,0.6-6,0.5-8.9-0.3c-0.9-0.2-1.8-0.5-2.5-1.1
	c-1.7-1.4-1.5-3.3,0.4-4.4c0.5-0.3,1.1-0.3,1.4-0.7c-3.5-2.3-3.1-6.1,1.9-8.6c-0.2-0.5-0.8-0.5-1.2-0.8c-4.7-2.6-5-8.5-0.5-11.5
	c2.2-1.5,4.7-1.7,7.1-1.1c2.1,0.5,4.2,0.5,6.3,0.5c0.4,0,0.8,0,1.1,0c0.8-0.1,1.2,0.2,1.1,1.1c0,1.2,0,1.2-1.3,1.3
	C328.4,270.1,327.7,270.1,327.1,270.1z"/>
<path class="st5" d="M192.2,225.8c1.2-2,2.2-3.6,3.2-5.3c1-1.7,2-3.5,3-5.2c0.2-0.4,0.4-0.9,0.6-1.4c0.3-1,0.1-1.4-0.8-1.8
	c-0.6-0.3-1.2-0.3-1.7-0.4c-0.3,0-0.4-0.2-0.4-0.4c0-0.2,0.2-0.4,0.4-0.4c0.8,0,1.6,0,2.5,0c1.7,0,3.4,0,5.1,0c0.3,0,0.6,0,0.6,0.3
	c0.1,0.3-0.1,0.5-0.4,0.6c-1.5,0.2-2.4,1.3-3.1,2.5c-2.6,4.2-5.1,8.4-7.6,12.6c-0.2,0.4-0.3,0.8-0.3,1.2c0,2.5,0,5,0,7.5
	c0,1.8,0.8,2.5,2.6,2.7c0.5,0,1,0,1.5,0.1c0.1,0,0.3,0.1,0.3,0.3c0,0.2-0.2,0.3-0.3,0.3c-0.3,0-0.7,0-1,0c-4.4,0-8.7,0-13.1,0
	c-0.4,0-0.8,0-1.1-0.1c-0.2,0-0.2-0.2-0.2-0.4c0-0.1,0.1-0.2,0.2-0.2c0.5,0,1,0,1.5-0.1c2-0.2,2.7-0.9,2.8-2.9c0.1-2,0-4,0-6.1
	c0-0.5-0.2-1-0.4-1.4c-2.4-4.4-4.8-8.8-7.3-13.2c-0.4-0.7-0.9-1.4-1.4-2c-0.4-0.6-1.1-0.9-1.8-1c-0.3,0-0.7-0.1-0.7-0.5
	c0.1-0.4,0.5-0.4,0.8-0.4c0.2,0,0.4,0,0.7,0c3.5,0,7.1,0,10.6,0c0.2,0,0.4,0,0.7,0c0.3,0,0.7-0.1,0.7,0.4c0,0.4-0.3,0.4-0.6,0.4
	c-2.4,0.4-2.7,0.7-1.5,2.9C188.1,218.3,190.1,221.9,192.2,225.8z"/>
<path class="st5" d="M175.3,266.5c0-2.1,0-4.1,0-6.2c0-1.3,0-1.3,1.3-1.3c6.6,0,13.1,0,19.7,0c1.4,0,2.8,0,4.3,0c0,2.3,0,4.6,0,6.9
	c0,0.3,0,0.6-0.4,0.6c-0.3,0-0.5-0.2-0.6-0.5c-0.2-0.7-0.4-1.4-0.7-2c-0.9-2.2-2.6-3.4-5-3.4c-2.6,0-2.6-0.1-2.6,2.5
	c0,6.3,0,12.6,0,19c0,0.4,0,0.9,0,1.3c0.1,2,0.7,2.7,2.7,2.9c0.1,0,0.2,0,0.3,0c0.4,0,0.9-0.1,0.9,0.5c0,0.5-0.6,0.4-0.9,0.4
	c-4.3,0-8.6,0-12.9,0c-0.1,0-0.2,0-0.3,0c-0.3,0-0.5-0.1-0.5-0.5c0-0.3,0.2-0.4,0.4-0.4c0.2,0,0.4,0,0.7,0c2.1-0.2,2.7-0.8,2.8-3
	c0-0.9,0-1.9,0-2.8c0-6.2,0-12.3,0-18.5c0-1.5,0.1-1.4-1.4-1.4c-0.1,0-0.2,0-0.3,0c-3.8,0-5.4,1.3-6.4,4.9
	C176.1,266,176.1,266.6,175.3,266.5z"/>
<path class="st5" d="M200.4,172.7c0.7-0.6,1.1-0.9,1.5-1.2c0.8-0.6,1.6-1.1,2.6-1.4c3.3-0.9,6,0.8,6.7,4.1c0.2,1.1,0.2,2.2,0.2,3.3
	c0,2.7,0,5.5,0,8.2c0,0.5,0,1.1,0.1,1.6c0.1,0.9,0.5,1.5,1.5,1.7c0.3,0,0.5,0.3,0.5,0.6c0,0.3-0.4,0.3-0.6,0.4c-1,0-2,0-2.9,0
	c-1.8,0-3.6,0-5.4,0c-0.3,0-0.7,0.1-0.8-0.3c-0.1-0.3,0.2-0.5,0.5-0.6c1.1-0.4,1.4-1.3,1.4-2.3c0-3.9,0-7.7,0-11.6
	c0-0.5-0.1-1-0.3-1.4c-0.4-0.7-1-1-1.8-0.9c-1.4,0.2-2.9,1.8-2.9,3.3c0,3.5,0,7.1,0,10.6c0,1,0.1,2,1.3,2.3c0.3,0.1,0.5,0.3,0.4,0.6
	c-0.1,0.4-0.4,0.3-0.6,0.3c-1.9,0-3.8,0-5.7,0c-0.9,0-1.9,0-2.8,0c-0.2,0-0.5,0-0.5-0.3c-0.1-0.3,0.1-0.6,0.4-0.6
	c1.4-0.2,1.6-1.3,1.6-2.4c0-4.3,0-8.5,0-12.8c0-1.2-0.3-2.3-1.7-2.6c-0.2,0-0.4-0.2-0.3-0.5c0.1-0.2,0.3-0.3,0.5-0.3
	c2.3,0,4.6,0,6.9,0c0.4,0,0.6,0.3,0.6,0.6C200.4,171.5,200.4,171.9,200.4,172.7z"/>
<path class="st5" d="M275.7,170.4c0.4,0.7,0,1.4,0.3,2.1c0.6-0.1,0.9-0.6,1.3-1c1.3-1,2.6-1.7,4.3-1.7c2.8,0,4.8,1.7,5,4.5
	c0.2,1.7,0.2,3.4,0.2,5.1c0,2.3,0,4.6,0,6.9c0,1.2,0,2.5,1.7,2.7c0.2,0,0.4,0.3,0.3,0.5c0,0.4-0.4,0.3-0.6,0.3c-1.3,0-2.5,0-3.8,0
	c-1.6,0-3.2,0-4.7,0c-0.3,0-0.6,0-0.6-0.3c0-0.3,0.1-0.5,0.4-0.6c1.1-0.3,1.4-1.2,1.4-2.2c0.1-4,0.2-8,0-11.9c0-0.8-0.2-1.6-1.1-2
	c-0.9-0.4-1.7,0-2.4,0.6c-0.9,0.8-1.6,1.7-1.5,3.1c0.1,3.1,0,6.2,0,9.3c0,0.6,0.1,1.2,0.2,1.8c0.1,0.7,0.6,1.2,1.3,1.3
	c0.3,0.1,0.5,0.3,0.4,0.6c-0.1,0.4-0.4,0.3-0.6,0.3c-1.9,0-3.7,0-5.6,0c-1,0-2,0-2.9,0c-0.3,0-0.6,0-0.6-0.4c0-0.3,0.2-0.5,0.5-0.5
	c1.3-0.2,1.5-1.2,1.5-2.3c0-4.3,0-8.6,0-12.9c0-1.2-0.3-2.2-1.6-2.4c-0.2,0-0.4-0.2-0.4-0.4c0-0.4,0.3-0.4,0.6-0.4
	C270.9,170.4,273.3,170.4,275.7,170.4z"/>
<path class="st4" d="M349.8,254.7c-5.3,0.4-10.5,0.5-15.8,0.7c-4.4,0.2-8.8,0.5-13.2,0.6c-2.1,0.1-4.2,0.3-6.4,0.3
	c-0.9-1.9-0.5-3.8-0.3-5.8c0.1-0.9,1-0.9,1.6-1.1c5.9-0.4,11.8-0.7,17.7-1.1c4.9-0.4,9.8-0.8,14.6-0.9c1.9-0.2,2.2,0,2.2,1.7
	C350.3,251,350.9,252.9,349.8,254.7z"/>
<path class="st5" d="M295.6,269.9c0.8-0.7,1.3-1.1,1.9-1.6c0.8-0.6,1.7-1.1,2.6-1.2c3.4-0.6,5.7,1.1,6.3,4.5
	c0.2,1.1,0.1,2.2,0.1,3.3c0,2.9,0,5.8,0,8.7c0,1.2,0.1,2.3,1.6,2.6c0.3,0,0.4,0.2,0.4,0.4c0,0.4-0.3,0.4-0.5,0.4c-2.9,0-5.8,0-8.7,0
	c-0.2,0-0.4,0-0.5-0.3c-0.1-0.3,0-0.5,0.4-0.6c1.3-0.4,1.5-1.4,1.5-2.6c0-3.7,0-7.4,0-11.1c0-0.3,0-0.7-0.1-1
	c-0.3-1.4-1.4-2-2.7-1.4c-1.4,0.7-2.3,1.7-2.3,3.4c0.1,3.3,0,6.6,0.1,10c0,1.2,0,2.3,1.5,2.7c0.2,0.1,0.3,0.3,0.2,0.5
	c-0.1,0.2-0.3,0.3-0.5,0.3c-1.5,0-3.1,0-4.6,0c-1.4,0-2.7,0-4.1,0c-0.3,0-0.6,0-0.6-0.4c0-0.2,0.1-0.4,0.4-0.5
	c1.6-0.2,1.7-1.5,1.7-2.7c0-2.7,0-5.3,0-8c0-1.6,0-3.2,0-4.7c0-1.1-0.3-2.1-1.6-2.3c-0.3,0-0.5-0.2-0.4-0.6c0.1-0.2,0.3-0.3,0.5-0.3
	c2.2,0,4.5,0,6.7,0c0.5,0,0.7,0.3,0.7,0.7C295.6,268.7,295.6,269.1,295.6,269.9z"/>
<path class="st5" d="M260.2,269.9c0.8-0.7,1.3-1.1,1.8-1.5c1.2-0.9,2.5-1.4,4.1-1.4c2.6,0,4.5,1.7,4.9,4.3c0.2,1.4,0.3,2.8,0.2,4.2
	c0,2.7,0,5.3,0,8c0,1.2,0.1,2.3,1.7,2.6c0.3,0,0.3,0.2,0.3,0.5c0,0.4-0.3,0.4-0.6,0.4c-2.9,0-5.8,0-8.7,0c-0.2,0-0.4,0-0.5-0.3
	c-0.1-0.3,0-0.5,0.4-0.6c1.2-0.4,1.5-1.4,1.5-2.4c0-3.8,0-7.5,0-11.3c0-0.3-0.1-0.7-0.1-1c-0.4-1.5-1.4-2-2.7-1.3
	c-1.3,0.7-2.3,1.7-2.3,3.5c0.1,3.1,0,6.2,0,9.3c0,0.4,0,0.8,0.1,1.1c0.1,1,0.3,1.9,1.4,2.1c0.3,0.1,0.4,0.3,0.3,0.6
	c-0.1,0.3-0.3,0.3-0.5,0.3c-2.9,0-5.8,0-8.7,0c-0.3,0-0.6,0-0.6-0.4c0-0.2,0.1-0.4,0.4-0.5c1.4-0.2,1.6-1.2,1.7-2.4
	c0.1-4.3,0.1-8.6,0-12.9c0-1.2-0.2-2.2-1.6-2.4c-0.2,0-0.4-0.2-0.4-0.4c0-0.4,0.3-0.4,0.6-0.4c2.2,0,4.5,0,6.7,0
	c0.5,0,0.7,0.3,0.6,0.7C260.2,268.7,260.2,269.2,260.2,269.9z"/>
<path class="st5" d="M368.1,172.5c0.6-0.1,0.9-0.6,1.3-1c1.3-1,2.7-1.7,4.5-1.7c2.5,0.1,4.4,1.6,4.8,4.1c0.2,1.1,0.3,2.3,0.3,3.4
	c0,2.9,0,5.9,0,8.8c0,1.3,0,2.6,1.7,2.9c0.2,0,0.3,0.3,0.3,0.5c-0.1,0.4-0.4,0.3-0.6,0.3c-1.6,0-3.2,0-4.7,0c-1.2,0-2.4,0-3.6,0
	c-0.3,0-0.7,0.1-0.8-0.4c0-0.3,0.2-0.5,0.5-0.6c1.1-0.3,1.4-1.2,1.4-2.2c0-3.9,0-7.9,0-11.8c0-0.4-0.1-0.9-0.3-1.3
	c-0.3-0.8-1-1.1-1.9-1c-1.4,0.2-2.9,1.9-2.9,3.3c0,3.3,0,6.5,0,9.8c0,0.5,0.1,1,0.1,1.5c0.1,0.8,0.4,1.4,1.2,1.6
	c0.3,0.1,0.6,0.2,0.6,0.6c-0.1,0.4-0.4,0.3-0.6,0.3c-2.8,0-5.7,0-8.5,0c-0.3,0-0.6,0-0.6-0.4c0-0.2,0.1-0.4,0.4-0.5
	c1.5-0.2,1.7-1.4,1.7-2.6c0-4.2,0-8.4,0-12.6c0-1.2-0.2-2.3-1.7-2.6c-0.2,0-0.4-0.2-0.4-0.4c0-0.4,0.3-0.4,0.6-0.4
	c1.1,0,2.2,0,3.3,0c0.5,0,1.1,0,1.6,0C367.8,170.4,367.8,170.4,368.1,172.5z"/>
<path class="st5" d="M394.3,187.1c-0.8,0.6-1.5,1.1-2.2,1.5c-1,0.6-2,1.1-3.1,1.3c-1.6,0.3-2.9,0-4-1.3c-1-1.3-1-2.7-0.5-4.2
	c0.5-1.3,1.4-2.3,2.6-3.1c1.9-1.3,4-2.4,6.2-3.4c0.9-0.4,1.3-0.8,1.2-1.8c-0.1-0.8,0-1.6-0.1-2.5c-0.1-1.1-0.6-1.9-1.6-2.2
	c-1.1-0.3-2.3-0.2-3.3,0.6c-0.5,0.4-0.4,0.9-0.2,1.3c0.2,0.4,0.5,0.7,0.8,1.1c0.7,1.2,0.3,2.5-0.9,3.2c-1.1,0.6-2.7,0.5-3.7-0.4
	c-1-0.8-1.2-1.9-0.7-3.3c0.5-1.3,1.5-2.3,2.7-2.9c2.5-1.3,5.2-1.7,7.9-1.2c2.8,0.5,4.5,2.5,4.7,5.3c0.1,3.1,0.1,6.2,0.1,9.3
	c0,0.5,0,1.1,0,1.6c0.1,1.1,0.5,1.3,1.5,0.8c0.3-0.2,0.6-0.4,0.8,0c0.2,0.3,0,0.5-0.2,0.7c-1.3,1.7-2.9,2.6-5.1,2.3
	C395.6,189.8,394.8,188.8,394.3,187.1z"/>
<path class="st5" d="M212.4,236.4c-0.6,0.4-1.1,0.8-1.7,1.3c-0.9,0.7-2,1.2-3.1,1.5c-1.7,0.4-3.3,0.2-4.5-1.2
	c-1-1.2-1.1-3.2-0.2-4.8c0.6-1.2,1.6-2,2.7-2.8c1.8-1.2,3.8-2.2,5.8-3.1c0.9-0.4,1.2-0.9,1.1-1.8c-0.1-0.8,0-1.6-0.1-2.5
	c-0.1-1.2-0.7-1.9-1.8-2.2c-1.1-0.3-2.2-0.1-3.1,0.6c-0.4,0.4-0.4,0.9-0.1,1.3c0.2,0.4,0.6,0.7,0.8,1.1c0.6,1,0.4,2-0.4,2.8
	c-0.9,0.9-2.4,1-3.7,0.3c-1.2-0.6-1.7-1.8-1.3-3.2c0.3-1.1,1-2.1,2-2.7c3-2,6.4-2.6,9.8-1.5c2.2,0.7,3.5,2.3,3.7,4.7
	c0.2,2.8,0.1,5.6,0.1,8.3c0,0.9,0,1.9,0,2.8c0.1,1.2,0.4,1.4,1.5,0.9c0.2-0.1,0.4-0.4,0.7-0.1c0.3,0.3,0.1,0.6-0.1,0.8
	c-0.8,1.1-1.9,2-3.3,2.3C214.9,239.7,213.6,238.9,212.4,236.4z"/>
<path class="st5" d="M229.7,284.4c-0.7,0.5-1.4,1-2.1,1.5c-1,0.6-2,1.1-3.2,1.3c-1.6,0.2-3.1-0.1-4.1-1.5c-1-1.4-0.9-2.9-0.2-4.4
	c0.5-1.2,1.4-2,2.5-2.8c1.9-1.3,4-2.4,6.2-3.3c0.9-0.4,1.2-0.9,1.2-1.9c-0.1-0.9,0-1.8-0.2-2.8c-0.2-1.1-0.9-1.7-1.9-1.9
	c-1.1-0.2-2.2-0.1-3,0.8c-0.3,0.3-0.3,0.7-0.1,1.1c0.2,0.4,0.5,0.7,0.8,1.1c0.9,1.5,0.2,3.2-1.4,3.6c-1.2,0.3-2.4,0.1-3.3-0.9
	c-0.9-1-0.8-2.1-0.3-3.2c0.6-1.3,1.6-2.2,2.8-2.8c2.5-1.3,5.1-1.5,7.8-1.1c2.7,0.5,4.5,2.5,4.6,5.2c0.1,2.8,0.1,5.7,0.1,8.5
	c0,0.8,0,1.6,0.1,2.5c0.1,1.3,0.4,1.4,1.5,0.8c0.2-0.1,0.4-0.3,0.7-0.1c0.3,0.3,0.1,0.5,0,0.7c-1.2,1.9-3.7,2.9-5.8,2.3
	c-0.9-0.3-1.5-0.8-1.9-1.6C230.1,285.1,230.1,284.7,229.7,284.4z"/>
<path class="st5" d="M302.2,187.2c-0.6,0.2-1,0.7-1.5,1c-1.1,0.8-2.3,1.4-3.7,1.7c-1.6,0.3-3.1,0.1-4.1-1.2
	c-1.1-1.4-1.1-2.9-0.4-4.5c0.5-1.3,1.6-2.2,2.7-3c1.9-1.3,3.8-2.3,5.9-3.2c0.9-0.4,1.3-1,1.2-2c-0.1-0.9-0.1-1.7-0.2-2.6
	c-0.1-1.1-0.7-1.7-1.7-2c-1.1-0.3-2.3-0.2-3.2,0.7c-0.4,0.3-0.4,0.8-0.1,1.2c0.2,0.3,0.5,0.6,0.7,0.9c0.5,0.8,0.6,1.6,0.2,2.5
	c-0.5,1-1.9,1.5-3.3,1.2c-1.2-0.3-2.1-1.2-2.2-2.3c-0.1-1.2,0.3-2.1,1-3c0.8-1,1.9-1.6,3.1-2.1c2-0.8,4.1-1,6.3-0.7
	c1.3,0.1,2.5,0.7,3.5,1.6c1,0.9,1.5,1.9,1.6,3.3c0.2,3.1,0,6.2,0.1,9.3c0,0.7,0,1.4,0.1,2.1c0.1,1.1,0.5,1.3,1.5,0.8
	c0.3-0.2,0.5-0.4,0.8,0c0.2,0.3,0,0.5-0.1,0.7c-0.5,0.7-1.1,1.3-1.9,1.8C305.9,190.9,303.3,190,302.2,187.2z"/>
<path class="st5" d="M179.2,175.7c0-3.4,0-6.8,0-10.1c0-2.3-0.6-2.9-2.8-3.2c-0.2,0-0.4,0-0.7,0c-0.2,0-0.4-0.1-0.4-0.4
	c0-0.2,0.2-0.3,0.3-0.3c0.3,0,0.5,0,0.8,0c4.1,0,8.2,0,12.3,0c0.3,0,0.5,0,0.8,0c0.2,0,0.4,0.1,0.4,0.4c0,0.2-0.1,0.3-0.3,0.3
	c-0.5,0-1,0.1-1.5,0.2c-1.4,0.3-2,0.9-2.1,2.3c0,0.5,0,1,0,1.5c0,6.2,0,12.4,0,18.7c0,0.3,0,0.5,0,0.8c0.1,2.4,0.6,3,3,3.2
	c0.2,0,0.4,0,0.6,0.1c0.1,0,0.2,0.2,0.3,0.3c0.1,0.2-0.1,0.4-0.3,0.4c-0.3,0-0.5,0-0.8,0c-4.1,0-8.2,0-12.3,0c-0.1,0-0.2,0-0.3,0
	c-0.3-0.1-0.9,0.2-0.9-0.4c0-0.6,0.5-0.4,0.9-0.4c0.4,0,0.9,0,1.3-0.1c1-0.3,1.6-1,1.7-2.2c0.1-1.7,0.1-3.4,0.1-5.1
	C179.2,179.6,179.2,177.7,179.2,175.7C179.2,175.7,179.2,175.7,179.2,175.7z"/>
<path class="st5" d="M357.1,179.9c0,2.7-0.6,5-2,7.1c-3.2,4.6-11.4,4.7-14.4-0.5c-2.5-4.2-2.5-8.5,0-12.7c1.8-3,4.6-4.3,8-4
	c3.3,0.3,5.8,1.9,7.2,4.9C356.8,176.4,357.1,178.2,357.1,179.9z"/>
<path class="st4" d="M304.6,209.1c-3.9,0.2-7.7,0.2-11.6,0.5c-3.9,0.3-7.8-0.2-11.7-0.2c-1.9,0-3.9-0.4-5.8-0.6
	c-0.9-1.8-0.7-5.7,0.3-6.8c4.9,0.8,9.9,1.1,14.9,0.7c4.7-0.3,9.4-0.3,14.2-0.5c1.1-0.4,1.4,0.2,1.5,1.1c0.1,1.2,0,2.5,0.1,3.7
	C306.5,208.4,306.1,209.2,304.6,209.1z"/>
<path class="st5" d="M303.2,322.9c1.3-0.1,2.6-0.4,3.5,0.1c0.9,0.5,0.8,1.9,1.1,3c0.7,2.3,1.4,4.7,2.2,7.1c0.6-0.4,0.6-0.9,0.7-1.3
	c1-2.6,1.9-5.2,2.8-7.8c0.3-0.8,0.7-1.1,1.5-1.1c0.9,0.1,1.9-0.3,2.6,0.2c0.7,0.5,0.7,1.5,1,2.3c0.9,2.5,1.8,5,2.7,7.5
	c0.4-0.2,0.4-0.6,0.5-0.9c0.8-2.6,1.7-5.3,2.5-8c0.2-0.8,0.6-1.1,1.5-1.1c0.8,0.1,1.6,0,2.4,0c0.2,0.6-0.1,1-0.3,1.5
	c-1.5,4.2-3,8.4-4.5,12.6c-0.5,1.4-0.3,1.4-1.9,1.4c-0.1,0-0.2,0-0.3,0c-1.5,0-1.5,0-2-1.3c-1-2.8-2-5.6-3-8.5
	c-0.1-0.4-0.3-0.7-0.4-1.1c-0.5,0.4-0.5,1-0.7,1.5c-1,2.8-2.1,5.5-3,8.3c-0.3,0.9-0.8,1.3-1.7,1.1c-0.1,0-0.2,0-0.3,0
	c-1.8,0-1.8,0-2.4-1.7c-1.4-4-2.8-8-4.2-12.1C303.6,324.1,303.5,323.6,303.2,322.9z"/>
<path class="st5" d="M63.9,323.1c-1.4,3.9-2.7,7.6-4,11.3c-0.4,1.1-0.8,2.1-1.2,3.2c-0.2,0.7-0.5,1.1-1.3,0.9c-0.1,0-0.1,0-0.2,0
	c-2.1,0.1-2.1,0.1-2.8-1.9c-0.9-2.6-1.8-5.1-2.8-7.7c-0.1-0.4-0.1-0.9-0.7-1.2c-0.2,0.5-0.4,0.9-0.5,1.3c-1,2.9-2.1,5.7-3.1,8.6
	c-0.2,0.7-0.6,0.9-1.3,0.9c-2.4,0-2.4,0.1-3.2-2.2c-1.3-3.9-2.7-7.8-4-11.7c-0.2-0.5-0.3-0.9-0.5-1.4c0.2-0.1,0.3-0.2,0.5-0.2
	c1,0,2.2-0.4,3,0.1c0.8,0.5,0.8,1.8,1.1,2.8c0.8,2.4,1.5,4.8,2.2,7.2c0.6-0.5,0.6-1.1,0.8-1.6c1-2.6,1.9-5.1,2.8-7.7
	c0.2-0.7,0.6-0.9,1.3-0.9c2.9-0.1,2.9-0.1,3.9,2.6c0.9,2.5,1.8,4.9,2.8,7.7c0.7-2.2,1.3-4,1.9-5.9c0.1-0.5,0.3-0.9,0.5-1.4
	c0.4-0.9,0.3-2.3,1.1-2.8C61.2,322.7,62.5,323.1,63.9,323.1z"/>
<path class="st5" d="M246.6,179.4c-3.6,0-7,0-10.6,0c0,2.3,0.6,4.3,1.9,6c1.9,2.4,4.7,2.4,6.7,0.1c0.3-0.4,0.6-0.8,0.9-1.2
	c0.2-0.3,0.4-0.2,0.7-0.1c0.3,0.2,0.2,0.4,0.1,0.6c-1.3,2.6-3,4.7-6,5.3c-4.8,0.9-8.5-1.5-9.7-6.5c-0.6-2.5-0.5-5.1,0.2-7.6
	c1.2-3.9,4.6-6.4,8.4-6.3c2.8,0.1,4.7,1.6,6,3.9C246.3,175.4,246.6,177.3,246.6,179.4z"/>
<path class="st6" d="M406.9,244.9c0,2.6,0,5.2,0,7.8c-7.1,0.5-14.2,0.5-21.3,0.7c-1.1-2.2-0.7-6.7,0.7-8.1c6.2,0,12.3-0.5,18.5-0.4
	C405.4,244.9,406.1,244.9,406.9,244.9z"/>
<path class="st5" d="M412.6,174.5c0,3.6,0,7.2,0,10.8c0,0.5,0,1.1,0.1,1.6c0.1,1.1,0.4,1.9,1.7,2c0.3,0,0.6,0.2,0.6,0.5
	c0,0.5-0.4,0.4-0.7,0.4c-3,0-6,0-9,0c-0.3,0-0.6,0-0.7-0.3c-0.1-0.4,0.3-0.5,0.6-0.6c1.1-0.2,1.5-0.9,1.6-2c0-0.6,0.1-1.2,0.1-1.8
	c0-6.3,0-12.5,0-18.8c0-0.5,0-1-0.1-1.5c-0.1-1.2-0.3-2.2-1.7-2.4c-0.3,0-0.5-0.2-0.4-0.5c0.1-0.3,0.3-0.3,0.5-0.3
	c2.3,0,4.6,0,6.9,0c0.6,0,0.7,0.4,0.7,0.9c0,1.7,0,3.4,0,5.1C412.6,169.9,412.6,172.2,412.6,174.5z"/>
<path class="st5" d="M229,226.5c0,1.9,0.3,3.8,1,5.6c0.3,0.9,0.8,1.8,1.4,2.5c1.7,2,4,2.2,6.1,0.7c0.3-0.3,0.7-0.6,1-0.9
	c0.2-0.2,0.4-0.5,0.8-0.2c0.3,0.3,0.1,0.6,0,0.9c-3.2,5.6-10.9,6-14.2,0.8c-2.7-4.2-2.2-10.6,1.2-14.3c2.3-2.5,6.5-3.4,9.6-2
	c1.4,0.7,2.6,1.7,3,3.2c0.5,1.6-0.1,3.1-1.5,3.5c-1.6,0.6-3.2-0.3-3.7-2c-0.2-0.7-0.3-1.4-0.4-2.1c-0.1-0.9-0.4-1.6-1.4-1.8
	c-1-0.1-1.5,0.4-2,1.2C229.1,223.2,228.9,224.9,229,226.5z"/>
<path class="st5" d="M167.3,338.6c-1.6,0-2.8,0-3.9,0c-0.6,0-1-0.3-1.3-0.8c-1.1-1.3-2.2-2.5-3.3-3.9c-1.5-1.9-3.5-1.7-5.5-1.7
	c-0.6,0-0.5,0.5-0.5,0.8c0,1.5,0,2.9,0,4.4c0,0.7-0.1,1-1,1.1c-2.7,0.1-2.7,0.1-2.7-2.6c0-3.9,0-7.9,0-11.8c0-0.8,0.2-1.2,1.1-1.1
	c3.2,0.1,6.3,0,9.5,0.1c1,0,2,0.2,2.9,0.6c1.6,0.8,2.6,2,2.6,3.8c0,1.8-1,2.9-2.5,3.7c-0.3,0.2-0.7,0.3-1.2,0.5
	C163.5,333.9,165.2,336.1,167.3,338.6z"/>
<path class="st7" d="M208.4,271.8c0.7-0.9,1.1-1.5,1.6-2c0.9-1.1,1.8-2,3.2-2.5c1.1-0.3,2.3-0.5,3.2,0.4c0.9,0.9,0.9,2,0.6,3.2
	c-0.5,1.6-2,2.2-3.5,1.5c-0.3-0.1-0.5-0.4-0.8-0.6c-1.3-1-2.1-0.9-3,0.5c-0.9,1.4-1.1,3-1.2,4.5c-0.1,2.4-0.1,4.8,0,7.2
	c0,1.4,0.4,1.7,1.8,2.1c0.3,0.1,0.7,0,0.7,0.5c0,0.5-0.4,0.4-0.8,0.4c-3,0-6,0-9,0c-0.3,0-0.6,0.1-0.7-0.3c-0.1-0.4,0.2-0.5,0.6-0.6
	c1.1-0.2,1.4-1.1,1.4-2.1c0-2.3,0-4.7,0-7c0-2.1,0-4.3,0-6.4c0-1.1-0.3-1.9-1.5-2.2c-0.3-0.1-0.5-0.1-0.5-0.5c0-0.4,0.3-0.4,0.6-0.4
	c2.2,0,4.4,0,6.5,0c0.6,0,0.8,0.2,0.8,0.8C208.4,269.4,208.4,270.4,208.4,271.8z"/>
<path class="st5" d="M257.1,174.1c1-0.9,1.7-1.9,2.6-2.7c1.1-1,2.3-1.7,3.8-1.6c1.1,0.1,1.9,0.6,2.2,1.6c0.4,1.3,0.1,2.9-0.9,3.6
	c-0.8,0.6-1.9,0.6-2.9-0.1c-0.2-0.1-0.3-0.3-0.5-0.4c-1.2-1-2-0.9-2.9,0.4c-0.9,1.3-1.2,2.8-1.2,4.3c-0.1,2.5-0.1,5,0,7.5
	c0,1.3,0.3,1.7,1.7,2c0.2,0.1,0.4,0.1,0.6,0.2c0.1,0.1,0.2,0.3,0.2,0.4c0,0.2-0.1,0.3-0.3,0.3c-0.2,0-0.3,0-0.5,0
	c-2.9,0-5.9,0-8.8,0c-0.3,0-0.7,0.1-0.8-0.4c-0.1-0.4,0.3-0.5,0.6-0.6c1-0.2,1.3-0.9,1.3-1.8c0-0.5,0.1-1,0.1-1.5
	c0-3.8,0-7.6,0-11.4c0-1.4,0-2.7-1.8-3c-0.3,0-0.3-0.3-0.3-0.5c0-0.1,0.2-0.2,0.3-0.3c0.1-0.1,0.3,0,0.5,0c2,0,4,0,6.1,0
	c0.8,0,1.1,0.2,1,1C257.1,172.3,257.1,173.2,257.1,174.1z"/>
<path class="st5" d="M223.8,166.8c0,0.9,0,1.7,0,2.6c0,0.7,0.3,1,1,0.9c0.8,0,1.6,0,2.5,0c0.7,0,1.3,0,1.2,1c-0.1,1.1,0,1.1-1.3,1.1
	c-0.8,0-1.6,0-2.5,0c-0.6,0-0.9,0.1-0.9,0.8c0,4.1,0,8.3,0,12.4c0,0.8,0.3,1.5,1.1,1.8c0.8,0.2,1.4-0.2,1.9-0.7
	c0.2-0.2,0.4-0.5,0.6-0.8c0.2-0.2,0.3-0.5,0.6-0.2c0.3,0.2,0.2,0.4,0.1,0.7c-0.8,2.3-3.4,3.8-5.9,3.5c-2.2-0.3-4.3-1.9-4.3-4.7
	c0-3.5,0-7,0-10.5c0-0.4,0-0.8,0-1.1c0-1.2,0-1.2-1.2-1.3c-0.2,0-0.3,0-0.5,0c-0.3,0-0.6,0.1-0.7-0.3c-0.1-0.4,0.1-0.6,0.3-0.8
	c0.9-0.7,1.8-1.4,2.6-2.2c1.5-1.4,2.8-2.9,3.8-4.7c0.2-0.3,0.4-0.7,0.6-1c0.1-0.2,0.3-0.3,0.6-0.2c0.3,0.1,0.3,0.3,0.3,0.5
	C223.8,164.9,223.8,165.9,223.8,166.8C223.8,166.8,223.8,166.8,223.8,166.8z"/>
<path class="st7" d="M314.7,179.5c0-2,0-3.9,0-5.9c0-0.8-0.1-1.2-1-1.2c-0.5,0-1.2,0.4-1.4-0.3c-0.2-0.7,0.5-0.9,1-1.2
	c2.4-1.9,4.5-4.1,6.1-6.8c0.1-0.2,0.2-0.4,0.3-0.6c0.1-0.2,0.3-0.3,0.5-0.3c0.3,0.1,0.3,0.2,0.3,0.5c0,0.3,0,0.7,0,1
	c0,1.5,0,2.9,0,4.4c0,0.8,0.2,1.2,1.1,1.1c0.8-0.1,1.5,0,2.3,0c1.2,0,1.2,0.1,1.3,1.1c0.1,1-0.5,1-1.2,1c-0.9,0-1.7,0-2.6,0
	c-0.7,0-0.8,0.3-0.8,0.9c0,4.1,0.1,8.3,0.1,12.4c0,0.7,0.2,1.5,1,1.7c0.8,0.3,1.5-0.1,2-0.7c0.1-0.1,0.2-0.3,0.3-0.4
	c0.3-0.2,0.3-1,0.9-0.5c0.4,0.3,0,0.7-0.1,1c-1.6,3.1-5.6,4.1-8.2,2.1c-1.1-0.9-1.8-2-1.8-3.5C314.8,183.6,314.8,181.5,314.7,179.5
	C314.7,179.5,314.7,179.5,314.7,179.5z"/>
<path class="st5" d="M465.5,331.1c0-2.2,0-4.5,0-6.7c0-0.8,0.2-1.1,1.1-1.1c4.1,0,8.3,0,12.4,0c0.8,0,1.2,0.3,1.1,1.1
	c0,0.3,0,0.5,0,0.8c0.1,0.8-0.2,1-1,1c-2.4,0-4.8,0-7.2,0c-0.5,0-1,0-1.5,0c-1.3,0-1.3,0-1.3,1.6c0,1.6,0,1.6,1.2,1.6
	c2.4,0,4.8,0,7.2,0c0.3,0,0.7,0,1,0c0.7-0.1,0.9,0.2,0.9,0.8c0,0.3,0,0.5,0,0.8c0,1.2,0,1.2-1.3,1.3c-2.6,0-5.2,0-7.9,0
	c-0.8,0-1.2,0.2-1.1,1.1c0.1,3.1-0.4,2.5,2.4,2.6c2.5,0,5,0,7.5,0c1.6,0,1.4-0.1,1.5,1.5c0,0.2,0,0.3,0,0.5c0.1,0.6-0.2,0.9-0.8,0.9
	c-0.2,0-0.3,0-0.5,0c-4.1,0-8.3,0-12.4,0c-1.3,0-1.3,0-1.3-1.2C465.5,335.4,465.5,333.2,465.5,331.1z"/>
<path class="st5" d="M272.2,213.1c0.5-0.4,1-0.8,1,0.3c0.1,1.5,0,3,0,4.6c0,1.7,0,1.7,1.6,1.7c0.8,0,1.5,0,2.3,0
	c0.3,0,0.6,0.1,0.8,0.4c0,0.3-0.1,0.5,0,0.8c0.1,0.7-0.2,0.9-0.9,0.9c-1,0-2,0-2.9,0c-0.6,0-0.9,0.3-0.9,0.9c0,4.1,0.1,8.3,0.1,12.4
	c0,0.8,0.2,1.5,1.1,1.8c0.8,0.2,1.3-0.2,1.9-0.7c0.2-0.2,0.3-0.3,0.4-0.5c0.2-0.2,0.4-0.8,0.9-0.4c0.3,0.2,0.1,0.6,0,0.9
	c-1.2,2.7-4.3,4-7,3c-1.9-0.7-3-2.2-3.1-4.2c-0.1-3.8,0-7.5-0.1-11.3c0-1.7,0-1.7-1.7-1.8c-0.1,0-0.1,0-0.2,0c-0.3,0-0.6,0-0.6-0.3
	c-0.1-0.3,0.1-0.5,0.3-0.7c0.3-0.3,0.7-0.5,1-0.8C268.7,218,270.8,215.9,272.2,213.1z"/>
<path class="st5" d="M255.8,331.5c0-2.2,0-4.4,0-6.5c0-0.8,0.1-1.2,1-1.2c2.6,0.1,5.1,0,7.7,0c1.1,0,2.2,0.2,3.2,0.6
	c2.2,0.8,3.6,2.3,4.3,4.6c0.4,1.6,0.4,3.1,0.1,4.7c-0.8,3.1-3.2,5.1-6.6,5.5c-2.9,0.3-5.9,0.1-8.8,0.2c-0.8,0-0.9-0.4-0.9-1
	C255.8,336.1,255.8,333.8,255.8,331.5z"/>
<path class="st5" d="M413.3,331c0-2.2,0-4.5,0-6.7c0-0.7,0.2-1,0.9-0.9c2.8,0.1,5.7,0,8.5,0.1c3.1,0.2,5.6,1.6,6.6,4.7
	c1,3.1,0.7,6.1-1.8,8.6c-1.4,1.4-3.3,1.9-5.2,2c-2.7,0.1-5.4,0-8.2,0.1c-0.7,0-0.8-0.3-0.8-0.9C413.3,335.7,413.3,333.3,413.3,331z"
	/>
<path class="st5" d="M104.5,338.6c-1.9,0.1-3.8-0.3-5.5-1.3c-2.6-1.6-4.1-3.8-4-7c0.1-3.1,1.6-5.3,4.3-6.6c3.5-1.7,7.1-1.6,10.5,0.2
	c5.1,2.6,5.5,9.7,0.8,13C108.8,338.2,106.7,338.6,104.5,338.6z"/>
<path class="st8" d="M354.1,199.1c-0.8,1.7-0.7,3.4-0.7,5.2c0,0.7,0.1,1.4,1,1.6c-0.3,0.3-0.7,0.3-1,0.3c-1.6,0-3.1,0.2-4.7,0.3
	c-2.7,0.1-5.3,0.4-7.9,0.4c-1.9,0-3.8,0.4-5.7,0.3c-0.8-2.3-0.9-4.6,0-6.8c4-0.3,8-0.7,12-0.9C349.5,199.4,351.8,198.9,354.1,199.1z
	"/>
<path class="st5" d="M248,276.2c0,2.2,0,4.5,0,6.7c0,0.6,0.1,1.2,0.2,1.8c0.1,0.9,0.7,1.3,1.5,1.4c0.4,0.1,0.7,0.1,0.6,0.6
	c-0.1,0.3-0.4,0.3-0.7,0.3c-1.3,0-2.6,0-3.9,0c-1.7,0-3.4,0-5.1,0c-0.3,0-0.7,0.1-0.8-0.4c0-0.3,0.2-0.4,0.5-0.5
	c1.4-0.2,1.7-1.1,1.7-2.3c0-4.3,0-8.6,0-12.9c0-1.3-0.3-2.3-1.8-2.5c-0.3,0-0.5-0.2-0.5-0.5c0-0.2,0.3-0.3,0.5-0.3c2.3,0,4.7,0,7,0
	c0.7,0,0.6,0.5,0.6,0.9c0,1.7,0,3.4,0,5.1C248,274.5,248,275.3,248,276.2C248,276.2,248,276.2,248,276.2z"/>
<path class="st5" d="M334.5,178.7c0,2.2,0,4.4,0,6.5c0,0.5,0,1,0.1,1.5c0.1,1.1,0.4,2.1,1.7,2.2c0.3,0,0.5,0.2,0.5,0.5
	c0,0.3-0.4,0.3-0.6,0.3c-3.1,0-6.1,0-9.2,0c-0.3,0-0.6,0-0.6-0.4c0-0.3,0.3-0.5,0.6-0.5c1.3-0.2,1.7-1,1.7-2.2c0-4.4,0-8.8,0-13.3
	c0-1.2-0.4-2.1-1.8-2.3c-0.2,0-0.4-0.1-0.4-0.4c0-0.3,0.3-0.5,0.6-0.5c2.3,0,4.6,0,6.9,0c0.7,0,0.7,0.5,0.7,1c0,1.9,0,3.7,0,5.6
	C334.5,177.5,334.5,178.1,334.5,178.7z"/>
<path class="st9" d="M283.4,276c0,2.1,0,4.1,0,6.2c0,0.6,0.1,1.2,0.1,1.8c0.1,1.1,0.4,2,1.8,2.1c0.3,0,0.6,0.2,0.5,0.5
	c0,0.3-0.3,0.4-0.6,0.4c-3.1,0-6.1,0-9.2,0c-0.3,0-0.6,0-0.6-0.4c-0.1-0.3,0.2-0.5,0.5-0.5c1.4-0.2,1.7-1.2,1.7-2.4
	c0-4.3,0-8.6,0-12.9c0-1.2-0.3-2.3-1.8-2.5c-0.2,0-0.4-0.2-0.4-0.4c0-0.4,0.3-0.4,0.6-0.4c2.2,0,4.5,0,6.7,0c0.9,0,0.8,0.6,0.8,1.1
	C283.4,271.1,283.4,273.6,283.4,276z"/>
<path class="st10" d="M386.2,245.2c-0.7,1.3-0.7,2.7-0.7,4.1c0,1.3,0,2.7,0,4.1c-3.2,0.5-6.5,0.3-9.7,0.4c-1.2,0-2.5,0.4-3.7,0.3
	c0.5-0.6,0.7-1.3,0.7-2.1c-0.1-1.6,0-3.3,0-4.9c0-0.8,0.3-1.2,1.1-1.2c2.4,0,4.9-0.4,7.3-0.4C382.9,245.4,384.5,245.1,386.2,245.2z"
	/>
<path class="st11" d="M315.8,249.5c-1,0.3-1.4,1-1.3,2.1c0.1,1.6,0,3.2,0,4.7c-0.5,0.1-1.1,0.3-1.6,0.3c-3.1-0.1-6.1,0.5-9.2,0.4
	c-2.3,0.4-2.7,0-2.8-2.2c0-0.6,0-1.2,0-1.8c0-2.5,0-2.5,2.5-2.8c3.6-0.1,7.1-0.3,10.7-0.6C314.6,249.5,315.2,249.5,315.8,249.5z"/>
<path class="st12" d="M205.8,331c0-2.1,0-4.3,0-6.4c0-1.2,0-1.2,1.1-1.2c2.6-0.1,2.6-0.1,2.6,2.6c0,2.8,0,5.6,0,8.3
	c0,1.9-0.2,1.7,1.8,1.7c2.1,0,4.1,0,6.2,0c0.9,0,1.2,0.3,1.1,1.1c0,0.3,0,0.5,0,0.8c0.1,0.8-0.3,1-1,1c-2.8,0-5.7,0-8.5,0
	c-0.8,0-1.5,0-2.3,0c-0.8,0.1-1-0.3-1-1C205.8,335.6,205.8,333.3,205.8,331z"/>
<path class="st4" d="M50.9,253.1c-2.4,0.7-4.9,0.9-7.3,1.6c-0.7,0.2-1.4,0.3-2.1,0.4c-0.2,0.1-0.4,0.1-0.6,0.2
	c-2.4,0.5-4.9,1-7.3,1.5c-2.8,0.5-5.7,1-8.5,1.5c-0.1,0-0.2,0-0.3,0c-0.5,0-1.1,0.2-1.3-0.4c-0.1-0.5,0.6-0.6,0.9-0.7
	c3.8-1.4,7.6-2.8,11.4-4.1c1.8-0.6,3.8-1,5.5-1.9c0.1-0.2,0.2-0.3,0.4-0.3c2.2-0.7,4.4-1.3,6.6-1.8c0.7-0.2,1.4-0.5,2,0.1
	C51.1,250.4,51,251.8,50.9,253.1z"/>
<path class="st13" d="M275.8,202c-0.3,0.5-0.3,1-0.3,1.6c0,1.7,0,3.5,0,5.2c-2.9-0.1-5.6-0.8-8.4-1.4c-0.9-0.2-1.9-0.4-2.8-0.9
	c-1-2.1-0.5-4.3-0.3-6.5c0-0.4,0.4-0.7,1-0.7c2.2,0.6,4.5,1.2,6.7,1.7C273.1,201.4,274.5,201.7,275.8,202z"/>
<path class="st4" d="M41.5,161.2c0,0.5,0.1,1.1,0.1,1.6c0,12.9,0,25.7,0,38.6c0,0.6-0.1,1.2,0.2,1.8c1.4-0.1,2.7-0.8,4.1-0.9
	c0.8,1.1,0.1,2.6,1.1,3.6c-0.2,0.8-0.9,0.7-1.4,0.9c-1.3,0.3-2.5,0.6-3.8,0.8c-1.7,0.2-3.3,0.7-4.9,1c-0.9,0.2-1.8,0.3-2.7,0.2
	c-2.3,0.4-4.5,0.8-6.8,1.1c-1,0.2-1.9,0.3-2.9,0.4c-0.4,0.1-0.9,0-1-0.4c-0.1-0.5,0.5-0.5,0.8-0.7c4.1-1.6,8.2-3.1,12.3-4.4
	c1.3-0.4,2.7-0.9,4-1.3c0.6-0.2,0.8-0.5,0.8-1c0-0.4,0-0.9,0-1.3c0-12.8,0-25.5,0-38.3C41.4,162.4,41.3,161.8,41.5,161.2z"/>
<path class="st14" d="M335.1,200.4c0,2.3,0,4.6,0,6.8c-0.8,0.3-1.7,0.4-2.6,0.3c-2.3-0.1-4.6,0.6-7,0.3c0-1.7,0-3.4,0-5.1
	c0-1.6,0-1.6,1.6-1.8C329.8,200.6,332.5,200.4,335.1,200.4z"/>
<path class="st15" d="M263,254c0.8,0.1,1-0.4,1-1.1c0-2,0-4,0-6c2.4,0.7,4.8,1.4,7.3,2.1c0.4,0.1,0.8,0.2,1.3,0.2
	c0.3,0.1,0.5,0.3,0.6,0.5c0.4,2.2,0.7,4.4-0.2,6.6C269.5,255.9,266.2,255.4,263,254z"/>
<path class="st16" d="M303.3,250.2c0,0-0.1,0.1-0.1,0.1c-1.8,0.5-1.8,0.5-1.8,2.5c0,0.8,0,1.6,0,2.5c0,1.6,0.1,1.7,1.6,1.7
	c0.2,0,0.4,0,0.7,0c-0.2,0.2-0.4,0.3-0.7,0.3c-3.5-0.2-6.9,0.4-10.4,0.3c-1-2-0.5-4.2-0.4-6.2c0-0.6,0.5-0.8,1.1-0.8
	c0.6,0,1.3,0.1,1.9-0.1C297.9,250.6,300.6,250.1,303.3,250.2z"/>
<path class="st8" d="M349.8,254.7c0-1.8,0-3.7,0-5.5c0-1.6,0-1.6-1.7-1.7c0.2-0.2,0.5-0.3,0.8-0.3c2.8,0.1,5.6-0.4,8.4-0.3
	c0.9,2.5,0.8,5,0,7.5C354.9,254.8,352.4,254.7,349.8,254.7z"/>
<path class="st16" d="M265,199.4c-0.7,0.3-0.7,0.9-0.7,1.5c0,1.9,0,3.8,0,5.7c-1.9-0.3-3.6-1.2-5.4-1.9c-0.7-0.3-1.6-0.4-2.2-1
	c-0.7-2.3-1.1-4.7,0.3-6.9C259.8,197.4,262.5,198.2,265,199.4z"/>
<path class="st17" d="M34.1,208.8c2.5-0.7,4.9-1.2,7.5-1.6c0.6,0.6,0.6,1.4,0.6,2.1c0,13.2,0,26.4,0,39.6c0,0.8,0,1.5-0.6,2.1
	c-0.1,0-0.2,0-0.2,0c0-0.7-0.1-1.4-0.1-2.1c0-12.2,0-24.4,0-36.6c0-0.6,0.2-1.2-0.2-1.8c-1.8,0.5-3.7,0.8-5.5,1.2
	c-2.1,0.5-4.2,0.8-6.3,1.3c-1.3,0.3-1.8,0.2-2-0.5c-0.2-0.7,0.2-1.2,1.4-1.6c1.7-0.6,3.5-1.2,5.2-1.9
	C34.1,209.2,34.3,209.1,34.1,208.8z"/>
<path class="st7" d="M370.9,331.2c0,2.2,0,4.4,0,6.5c0,0.8-0.1,1.1-1.1,1.2c-2.6,0-2.6,0.1-2.6-2.5c0-3.9,0-7.9,0-11.8
	c0-1.2,0-1.2,1.1-1.2c2.5-0.1,2.5-0.1,2.5,2.4C370.9,327.6,370.9,329.4,370.9,331.2z"/>
<path class="st18" d="M357.4,254.4c0-2.5,0-5,0-7.5c1.9-0.6,3.9-0.3,5.8-0.3c0.9,0,1.1,0.8,1.1,1.5c0,1.3,0,2.6,0,3.9
	c0,2.5,0,2,2,2.1c-0.4,0.4-1,0.3-1.5,0.3C362.2,254.4,359.8,254.4,357.4,254.4z"/>
<path class="st10" d="M245.4,201c-2.5,0-5,0-7.6,0c-0.2-2.4-0.6-4.8,0.3-7.1c2.2-0.3,4.3,0.3,6.5,0.3c0.8,0,0.8,0.6,0.8,1.1
	C245.4,197.2,245.4,199.1,245.4,201z"/>
<path class="st19" d="M272.9,256.3c0-1.8,0-3.6,0-5.5c0-0.6,0-1.2-0.4-1.7c2.2,0.5,4.4,1,6.7,1.3c0.7,0.1,0.9,0.4,0.9,1.1
	c0,1.4,0,2.7,0,4.1c0,0.6,0,1.2,0.3,1.7C277.9,257.2,275.3,257,272.9,256.3z"/>
<path class="st20" d="M238.1,193.8c0,1.9,0,3.7,0,5.6c0,0.5,0,1.1-0.3,1.5c-2.2,0-4.4,0-6.6,0c0-1.8,0-3.6,0-5.4
	c0-0.5,0.2-1.1-0.3-1.5c0.4-0.4,0.9-0.3,1.4-0.3C234.2,193.8,236.2,193.8,238.1,193.8z"/>
<path class="st19" d="M295.2,250.5c-0.4,0.4-1,0.3-1.5,0.3c-0.9,0-1.1,0.4-1.1,1.2c0,1.9,0,3.8,0,5.7c-2.9,0-5.7,0-8.6,0
	c-0.5,0-1.1,0.2-1.5-0.3c0.7,0,1.3,0,2,0c1.3,0,1.6-0.3,1.6-1.6c0-1.1,0-2.2,0-3.3c0-1.6,0-1.7,1.6-1.6
	C290.1,250.9,292.6,250.2,295.2,250.5z"/>
<path class="st10" d="M318.4,208.2c-0.3,0.1-0.6,0.3-0.9,0.3c-2.3,0.1-4.6-0.1-6.9,0.3c0.6-1.3,0.9-2.6,0.9-4c0-1.1-0.3-2.1-1.2-2.8
	c0.3-0.4,0.8-0.3,1.2-0.3c1.8,0,3.6,0,5.4,0c1.4,0,1.6,0.2,1.6,1.6C318.4,204.9,318.4,206.6,318.4,208.2z"/>
<path class="st21" d="M40.9,255.3c0.2-0.2,0.4-0.2,0.6-0.2c0,10.3,0,20.7,0,31c0,0.3,0.1,0.6,0.1,1c-0.7-0.4-0.4-1.2-0.4-1.8
	c0-7.9,0-15.9,0-23.8c0-0.6,0-1.2,0-1.9c-1.1,0.2-2.1,0.3-3,0.5c-1.3,0.3-2.7,0.2-3.8,0.7c-1.7,0.6-3.4,0.3-5.1,0.8
	c-0.5,0.1-1.4,0.5-1.6-0.2c-0.2-0.6,0.6-0.9,1.1-1.2c1.1-0.6,2.3-0.9,3.5-1.3c2-0.6,3.9-1.6,5.9-2.1c0.8-0.2,1.5-0.5,2.4-0.5
	C41.6,256.2,41.3,255.7,40.9,255.3z"/>
<path class="st19" d="M257.1,196.7c-0.3,0.6-0.3,1.2-0.3,1.9c0,1.7,0,3.4,0,5c-2.1-0.5-4.2-1.2-6.2-2c0.7-0.3,0.7-0.9,0.7-1.5
	c0-1.4,0-2.8,0-4.2c0-0.5,0.2-0.8,0.8-0.7C253.8,195.7,255.6,195.8,257.1,196.7z"/>
<path class="st13" d="M310.2,202c1.2,0.2,1.5,0.3,1.6,1.4c0.1,1.3,0.2,2.7-0.1,4.1c-0.2,0.7-0.5,1.1-1.1,1.4c-2-0.2-3.9,0.3-5.9,0.3
	c1.3-0.6,1.3-0.6,1.3-2.1c0-1.2,0-2.5,0-3.7c0-0.8-0.3-1.1-1-1.1c1-0.5,2.1-0.2,3.2-0.3C308.8,201.9,309.5,202,310.2,202z"/>
<path class="st9" d="M245.2,258.2c1.8,0,3.2,1.4,3.2,3.2c0,1.8-1.4,3.2-3.3,3.1c-1.8,0-3.2-1.5-3.2-3.2
	C241.9,259.6,243.4,258.2,245.2,258.2z"/>
<path class="st5" d="M277.4,262.2c0-0.3,0-0.6,0-1c0.1-1.8,1.3-3,3.1-3.1c1.9,0,3.2,1.2,3.3,3.1c0,0.3,0,0.6,0,1
	c-0.5,1.4-1.4,2.3-3,2.4C279,264.7,278,263.8,277.4,262.2z"/>
<path class="st5" d="M331.6,161c1.8,0,3.2,1.3,3.2,3.2c0,1.8-1.3,3.2-3.2,3.3c-1.8,0-3.2-1.3-3.2-3.2
	C328.4,162.4,329.8,161,331.6,161z"/>
<path class="st22" d="M343.2,279c-3.7,0-6.7-2.6-6.8-5.9c-0.1-2.8,1.3-5.1,3.8-6.3c2.7-1.2,5.9-0.7,7.9,1.3c2.9,2.8,2.4,7.6-1.1,9.8
	C345.9,278.6,344.6,279,343.2,279z"/>
<path class="st4" d="M110.1,206c-2.6,0.8-5.3,1.1-8,1.7c-4.7,1.1-9.3,2.2-14,3.3c-3.6,0.8-7.3,1.1-11.1,0.8
	c-3.1-0.3-6.1-1.1-8.4-3.5c0.4-2.3,0.1-4.7,0.3-7c0.1-1.3-0.3-2.1-1.7-2.2c-0.2,0-0.4-0.2-0.5-0.4c1.7-0.3,3.5-0.4,5.1,0.3
	c2.1,0.9,3.6,2.2,4.1,4.5c0.1,0.4,0.3,0.7,0.4,1c0.6,1.2,1.2,1.4,2.5,1.2c4.7-0.7,9.3-1.7,13.9-2.7c5.5-1.2,11-2.4,16.4-3.6
	c0.3-0.1,0.6-0.1,1-0.1C110.6,201.6,110.9,203.8,110.1,206z"/>
<path class="st8" d="M110.1,206c0-1.8,0-3.6-0.1-5.3c0-0.4,0.1-0.8,0.3-1.2c3.4-0.7,6.7-1.3,10.2-1.6c0.4,0.9,0.1,1.9,0.1,2.9
	c0,1.2,0.2,2.3,0.9,3.3c-2.3,0.6-4.6,0.8-7,1.3c-0.8,0.2-1.7,0.4-2.5,0.4c-0.3,0.2-0.7,0.1-1,0.2C110.7,205.9,110.4,205.9,110.1,206
	z"/>
<path class="st23" d="M60.4,204.2c-1.1,0.2-2.3-0.1-3.4,0.4c-1.6,0.9-3.3,0.8-5,0.7c-1.2-1-1.4-2.4-0.6-4.3c3.8-1,7.6-1.8,11.6-2
	c0.8,1.6,0.5,3.2,0.2,4.8C62.3,204.5,61.3,203.9,60.4,204.2z"/>
<path class="st15" d="M140.6,195.1c0,1.5,0,2.9,0,4.4c0,1.5,0,1.5-1.3,2.1c-2,0.3-4,0.7-6,0.7c-0.5-0.3-0.7-0.8-0.7-1.4
	c0-1.6-0.2-3.3,0.1-4.9C135.3,195.5,137.9,195.2,140.6,195.1z"/>
<path class="st10" d="M121.6,204c-0.5-0.1-0.9,0-1.1-0.7c-0.4-1.8-0.5-3.6,0-5.5c2.2-0.4,4.3-0.8,6.5-1c0.4,1.3,0.1,2.5,0.2,3.8
	c0,0.9,0.1,1.7,0.6,2.4C125.8,203.5,123.7,203.8,121.6,204z"/>
<path class="st20" d="M62.9,203.9c0-1.6,0.1-3.3,0.1-4.9c1.3-0.4,2.6-0.3,3.9-0.3c0.1,0,0.1,0,0.2,0c2.5,0.1,2.5,0.1,2.5,2.7
	c0,1.8,0,3.6,0,5.4c0,0.6-0.1,1.2-0.7,1.5c-0.8-0.5-1.3-1.3-1.3-2.2c-0.2-0.4-0.2-0.8,0-1.1c0-0.2,0-0.4,0-0.5
	c-0.8-0.5-1.8,0-2.7-0.3c-0.3,0-0.6,0-0.8,0C63.6,204.1,63.2,204.2,62.9,203.9z"/>
<path class="st24" d="M127.9,203c-0.4-0.1-1.1,0-1.1-0.7c0.1-1.8-0.4-3.7,0.3-5.5c1.9-0.4,3.7-0.7,5.6-0.8c0.5,0.6,0.3,1.2,0.3,1.9
	c0.1,1.5-0.2,2.9,0.3,4.4c-0.2,0-0.3,0-0.5,0c-0.5,0.2-1,0-1.4,0.3C130.2,202.8,129.1,203,127.9,203z"/>
<path class="st13" d="M51.4,201c0,1,0.1,2,0,2.9c0,0.6,0.2,0.9,0.8,1c-1.6,1.2-3.4,1.5-5.3,1c-0.7,0-1.1-0.2-1.1-1.1
	c0-0.9,0-1.7,0-2.6C47.7,201.7,49.5,201.2,51.4,201z"/>
<path class="st9" d="M46.9,205.9c1.8-0.2,3.6-0.5,5.3-1c1.6,0,3.1-0.5,4.7-0.4c1.3,0.2,1.4,0.2,1.4,1.5c0,13.3,0,26.6,0,39.9
	c0,0.5,0,1.1-0.3,1.6c-0.1,0.1-0.2,0.3-0.3,0.4c-2.5,0.6-4.9,1.5-7.6,1.4c-2.4,0.3-4.8,1.2-7.1,1.8c-0.5,0.1-0.9,0.4-1.4,0.2
	c0-14.6,0-29.3,0-43.9C43.3,206.7,45.2,206.6,46.9,205.9z"/>
<path class="st4" d="M122.3,251.8c-2.1,0.6-4.3,0.8-6.4,1.2c-8.1,1.4-16.1,3.1-24,5.1c-3.8,1-7.6,1.6-11.5,1.7
	c-1.7,0.1-3.5,0.1-5.2-0.5c1-0.6,1.3-1.6,1.3-2.8c0-1.1-0.4-2.3,0.5-3.3c0.9,0.6,1.9,0.4,2.8,0.3c8-1.3,15.8-3.2,23.7-4.9
	c5.7-1.3,11.4-2.2,17.2-3.1c0.4-0.1,0.8,0,1.1,0C122.8,247.6,122.3,249.7,122.3,251.8z"/>
<path class="st6" d="M122.3,251.8c-0.5-0.4-0.4-0.9-0.4-1.5c0-1.6,0-3.2,0-4.8c0.1-0.1,0.2-0.1,0.3,0c0.3-0.2,0.7,0,1-0.2
	c3.9-0.6,7.8-1.3,11.8-1.7c0,1-0.1,2-0.2,3.1c-0.1,1.4,0.3,2.5,1.7,3.1c-1.7,0.5-3.5,0.5-5.3,0.8C128.2,251,125.2,251.4,122.3,251.8
	z"/>
<path class="st25" d="M162.2,244.1c0,2.5,0,5,0,7.5c0,0.8,0,1.5-0.7,2.1c-1.1-0.5-2-1.1-2.8-2.1c-0.6-0.7-1.2-1.2-1.8-1.9
	c-0.9-1.1-1.9-1.7-3.3-1.6c-0.7-1-0.5-2.1-0.4-3.1c0-1.3-0.1-2.4-1.8-2.4c-0.3,0-0.5-0.2-0.6-0.4c2.4-0.3,4.9-0.3,7.3-0.1
	C159.7,242.1,161,243,162.2,244.1z"/>
<path class="st11" d="M77,253.3c0,1.4,0,2.8,0,4.2c0,1.7,0,1.7-1.7,1.8c-1.6-0.2-3.2-0.7-4.5-1.7c0.3-2.9,0.1-5.7,0.2-8.6
	c0-0.8-0.1-1.6,0.5-2.3c2.3,0.7,3.9,2,4.5,4.3C76.2,251.9,76.6,252.6,77,253.3z"/>
<path class="st14" d="M136.4,249.8c-2-0.2-2.1-0.3-2.1-2.2c0-0.9,0-1.7,0-2.6c0-0.6,0.2-1,0.6-1.4c2.7-0.5,5.4-0.7,8.2-0.9
	c-0.1,1.6-0.1,3.3-0.1,4.9c0,0.5-0.1,1.1-0.4,1.5C140.5,249.6,138.5,249.7,136.4,249.8z"/>
<path class="st16" d="M71.5,246.8c0,3.1,0,6.1,0,9.2c0,0.7,0.1,1.3-0.7,1.6c-0.9-0.3-1.6-1-2.2-1.6c-1.1-1.1-1.3-2-1.1-3.9
	c-2.5-0.3-5,0-7.4-0.1c0.2-0.8,0.9-0.7,1.4-0.8c0.9-0.1,1.7,0,2.6,0c2.6,0,2.6,0,2.7-2.6c0-0.8-0.1-1.5,0.5-2.2
	C68.6,246.4,70.1,246.2,71.5,246.8z"/>
<path class="st24" d="M67.2,246.5c0,1.4-0.1,2.7,0,4.1c0,0.8-0.3,1.2-1.1,1.2c-1.5,0-3,0-4.6,0c-0.5,0-1.1-0.1-1.5,0.3
	c-0.5,0-1,0-1.6,0.1c-0.9-1.5-0.8-3-0.1-4.6C61.2,247,64.2,246.4,67.2,246.5z"/>
<path class="st24" d="M142.5,249.1c0-1.7,0-3.4,0-5c0-0.6,0.1-1.1,0.6-1.4c1.9-0.2,3.8-0.5,5.7-0.4c1.3,2,1,4.1,0.3,6.2l-0.1,0
	l-0.1,0c-0.7,0.3-1.4-0.1-2.1,0.3C145.4,248.9,144,249.2,142.5,249.1z"/>
<path class="st16" d="M58.3,247.5c0,1.5,0.1,3,0.1,4.6c-1,0.5-2.1,0.3-3.2,0.4c-1.4,0.2-2.9,0.4-4.3,0.6c-0.3-0.2-0.5-0.5-0.4-0.8
	c0.1-1.1-0.2-2.1-0.4-3.1c2.6-0.8,5.2-1.1,7.9-1.7C58.1,247.5,58.2,247.5,58.3,247.5z"/>
<path class="st26" d="M149,248.5c0-2.1,0.3-4.1-0.3-6.2c0.6-0.2,1.3-0.1,2-0.1c0.7,0,1.3,0.1,2,0.1c0.7,0,1,0.3,1,1
	c0,1.6,0,3.3,0,4.9C152.1,248.4,150.6,248.6,149,248.5z"/>
<path class="st4" d="M62.9,203.9c0.4,0,0.7,0.1,1.1,0.1c-1.2,0.2-2.4,0.2-3.6,0.2C61.2,203.8,62,204,62.9,203.9z"/>
<path class="st4" d="M64.8,204c0.9,0.1,1.9-0.4,2.7,0.3C66.6,204.1,65.7,204.3,64.8,204z"/>
<path class="st15" d="M131.4,202.6c0.4-0.4,0.9-0.3,1.4-0.3C132.4,202.7,131.9,202.6,131.4,202.6z"/>
<path class="st4" d="M123.1,245.3c-0.3,0.3-0.6,0.3-1,0.2C122.4,245.2,122.8,245.2,123.1,245.3z"/>
<path class="st4" d="M111.1,205.8c0.3-0.3,0.7-0.3,1-0.2C111.8,205.9,111.4,205.9,111.1,205.8z"/>
<path class="st4" d="M67.5,204.9c0,0.4,0,0.8,0,1.1C67.2,205.6,67.2,205.2,67.5,204.9z"/>
<path class="st26" d="M146.8,248.8c0.6-0.5,1.4-0.3,2.1-0.3C148.2,248.9,147.5,248.8,146.8,248.8z"/>
<path class="st27" d="M317.4,274.3c0-1.2,0-2.4,0.3-3.6c0.2-0.6,0.4-1.1,0.8-1.6c1.1-1.2,2.8-1,3.6,0.3c0.2,0.4,0.4,0.8,0.5,1.2
	c0.5,2.2,0.5,4.3,0.1,6.5c-0.1,0.3-0.1,0.5-0.2,0.8c-0.4,1.2-1.3,1.9-2.4,1.9c-1,0-2-0.7-2.4-1.9c-0.3-0.7-0.4-1.5-0.4-2.2
	C317.4,275.3,317.4,274.8,317.4,274.3z"/>
<path class="st28" d="M321.3,289.9c1,0.1,2.2,0.1,3.4,0.2c1.3,0.1,2.1,0.8,2.2,1.6c0.1,0.9-0.5,1.9-1.7,2.3c-2.7,1-5.5,1-8.3,0.2
	c-0.4-0.1-0.8-0.4-1.1-0.7c-0.6-0.5-0.9-1.2-0.7-2c0.2-0.8,0.8-1.3,1.6-1.4C318.2,289.8,319.7,289.9,321.3,289.9z"/>
<path class="st29" d="M394.4,179c0,2,0,3.6,0,5.3c0,1.2-1.1,2.2-2.4,2.2c-1.2,0-2.2-1.1-2.1-2.4c0-0.7,0.3-1.3,0.7-1.8
	C391.5,181,392.7,179.9,394.4,179z"/>
<path class="st30" d="M212.6,228.5c0,1.8,0,3.5,0,5.2c0,1.2-1.1,2.1-2.4,2.1c-1.2,0-2.1-0.9-2.1-2.2c0-0.6,0.2-1.1,0.4-1.6
	C209.1,230.7,210.8,229.2,212.6,228.5z"/>
<path class="st30" d="M229.9,276.2c0,1.9,0,3.6,0,5.3c0,1.3-1.3,2.3-2.6,2.2c-1.1-0.1-2-1.1-1.9-2.4c0-0.8,0.4-1.5,0.8-2.1
	C227.1,278.1,228.3,277.1,229.9,276.2z"/>
<path class="st31" d="M302.3,179c0,2,0,3.8,0,5.5c0,1.1-1,2-2.3,2.1c-1.1,0.1-2.1-0.7-2.2-1.9c-0.1-0.9,0.2-1.7,0.7-2.4
	C299.4,180.9,300.7,179.9,302.3,179z"/>
<path class="st28" d="M350.9,179.9c0,2.1,0,3.9-0.2,5.7c0,0.2-0.1,0.3-0.1,0.5c-0.4,1.9-1.2,2.8-2.6,2.8c-1.4,0-2.4-1.1-2.7-3
	c-0.4-2.9-0.4-5.9-0.2-8.8c0.1-1.2,0.1-2.5,0.5-3.7c0.2-0.8,0.6-1.4,1.3-1.8c1.1-0.6,2.3-0.3,3,0.7c0.6,0.9,0.9,1.9,0.9,2.9
	C350.9,176.8,351.1,178.5,350.9,179.9z"/>
<path class="st24" d="M238.6,178c-0.2,0-0.4,0-0.7,0c-2.3,0-2.3,0-2-2.4c0.2-1.1,0.4-2.2,1-3.2c1.1-1.7,2.8-1.7,3.7,0.1
	c0.9,1.6,0.7,3.4,0.7,5.1c0,0.4-0.4,0.4-0.7,0.4C240,178,239.3,178,238.6,178z"/>
<path class="st27" d="M156.2,329.4c-0.5,0-1,0-1.5,0c-0.6,0-1.6,0.3-1.8-0.2c-0.4-0.8-0.2-1.9-0.1-2.9c0-0.3,0.4-0.4,0.6-0.4
	c2,0,4-0.1,6,0.1c0.3,0,0.5,0.1,0.8,0.2c0.6,0.2,1.1,0.6,1.1,1.3c0,0.7-0.4,1.1-0.9,1.4c-0.5,0.3-1,0.4-1.6,0.4
	C157.9,329.4,157.1,329.4,156.2,329.4C156.2,329.4,156.2,329.4,156.2,329.4z"/>
<path class="st28" d="M259.4,331.5c0-1.3,0-2.6,0-3.9c0-0.6,0.2-0.9,0.9-0.9c1.5,0,2.9,0,4.4,0.1c2.1,0.2,3.4,1.4,3.8,3.4
	c0.2,0.9,0.2,1.7,0,2.6c-0.5,2.3-1.5,3.3-3.9,3.5c-1.4,0.1-2.8,0.1-4.2,0.1c-0.8,0-0.9-0.4-0.9-1
	C259.5,334.1,259.4,332.8,259.4,331.5z"/>
<path class="st28" d="M417,331c0-1.3,0-2.6,0-3.9c0-0.6,0.2-0.9,0.9-0.9c1.6,0,3.2,0,4.7,0.2c0.4,0,0.9,0.2,1.2,0.4
	c1.7,0.8,2.5,2.7,2.3,5c-0.3,2.3-1.3,3.6-3.2,4c-1.7,0.4-3.5,0.2-5.2,0.2c-0.6,0-0.7-0.4-0.7-0.9C417,333.7,417,332.4,417,331z"/>
<path class="st28" d="M104.6,325.4c0.9,0,1.8,0.2,2.7,0.5c2,0.8,2.8,2.4,2.9,4.5c0.1,2.2-0.8,3.8-2.8,4.7c-1.7,0.7-3.5,0.8-5.2,0.2
	c-2.3-0.8-3.4-2.5-3.4-4.8c0.1-2.6,1.3-4.2,3.7-4.9C103.2,325.5,103.9,325.4,104.6,325.4z"/>
<path class="st32" d="M343.1,278.3c-3.2,0-5.9-2.3-6.1-5.2c-0.3-4.1,3.5-6.6,6.9-6.1c2.8,0.4,4.8,2.3,5.2,4.7
	C349.8,275.2,347,278.3,343.1,278.3z"/>
<path class="st33" d="M339.6,276.5c0.6-0.5,0.8-1.1,0.7-1.8c-0.2-1.9,0.5-4-0.5-5.9c1.3-0.2,2.8-0.1,4.2,0c1.1,0.1,1.8,0.8,1.9,1.7
	c0.1,1-0.3,1.7-1.2,2.1c-0.2,0.1-0.4,0.2-0.7,0.4c0.9,1.2,1.7,2.5,2.8,3.4c-1.5,0.3-1.5,0.3-2.3-0.7c-0.6-0.8-1.3-1.6-1.9-2.4
	c-0.1-0.2-0.4-0.2-0.6-0.2c-0.3,0.1-0.3,0.3-0.3,0.5c0.1,1-0.4,2.2,1.1,2.9C341.5,276.5,340.5,276.5,339.6,276.5z"/>
<path class="st34" d="M342.7,269.1c1,0.1,1.7,0.9,1.6,1.9c-0.1,1-1.1,1.7-2.1,1.6c-0.4-0.1-0.5-0.3-0.5-0.7c0-0.7,0-1.3,0-2
	C341.6,269.1,342.1,269,342.7,269.1z"/>
</svg>
