<?xml version="1.0" encoding="utf-8"?>
<!-- Generator: Adobe Illustrator 26.0.2, SVG Export Plug-In . SVG Version: 6.00 Build 0)  -->
<svg version="1.1" id="Layer_1" xmlns="http://www.w3.org/2000/svg" xmlns:xlink="http://www.w3.org/1999/xlink" x="0px" y="0px"
	 viewBox="0 0 512 512" style="enable-background:new 0 0 512 512;" xml:space="preserve">
<style type="text/css">
	.st0{fill:#B1BCC2;}
	.st1{fill:#2E69A7;}
	.st2{fill:#BFCBD1;}
	.st3{fill:#265587;}
	.st4{fill:#819EBD;}
	.st5{fill:#728CA7;}
	.st6{fill:#FEFEFE;}
</style>
<path d="M262.9,386.1c-4.8-0.9-6.5-4.2-6.5-8.6c-0.1-4,1.3-8.9-0.5-11.7c-2.1-3.2-7.4-0.8-11.2-1.3c-13.4-1.7-21.9-11.1-22.2-25.1
	c-0.2-9.8,0-19.6,0-29.5c0-3.1-0.4-6-2.8-8.2c-2.6-2.5-5.7-3.4-9.2-2.2c-3.8,1.3-6.1,4.1-6.4,8.1c-0.3,3.8,0,7.7-0.1,11.5
	c-0.3,13.5-10.9,24-24.3,23.9c-13.1-0.1-23.7-10.4-23.8-23.8c-0.1-36.5-0.1-72.9,0.1-109.4c0-4.6-1.2-5.7-5.7-5.7
	c-21.8,0.2-43.6,0.1-65.4,0.1c-2.6,0-4.7,0.3-6.7,2.3c-3.3,3.3-7.6,5-12.2,5c-11.3,0.1-22.7,0.6-33.9-0.2
	c-15.5-1.1-26.8-11.1-30.9-26.1c-0.2-0.8-0.2-1.7-1-2.1c0-4.3,0-8.7,0-13c4.5-19.3,17.3-29.3,37.6-29.4c8.3,0,16.6,0,25,0
	c5.8,0,11.2,1.4,15.8,5.3c2.3,1.9,4.9,2.7,7.8,2.7c13,0,26-0.1,39,0c3.5,0,4.9-0.9,4.7-4.9c-0.8-13.4,7-24.2,19.7-27.6
	c3.8-1,5.1-2.9,5.1-6.6c-0.1-14-0.1-28,0-42c0-29.5,19.7-56.2,47.7-65.3c4.5-1.4,9.2-1.1,13.7-2.2c70.3,0,140.6,0,210.9,0
	c14.9,0.8,27.6,6.7,38.5,16.6c12.7,11.6,20.3,26.1,22.6,43.2c0.7,5.8-2.5,9.2-8.9,10.3c-4.8-0.5-7.3-3.5-8.5-7.9
	c-0.4-1.4-0.7-2.9-1-4.4c-5.2-24.3-25.9-41.3-50.8-41.4c-41.6-0.1-83.2,0-124.9,0c-1.7,0-3.3,0-5-0.1c-21.3,0.2-42.6,0-63.9,0.1
	c-25.9,0.1-47.2,18-51.8,43.4c-0.8,4.3-0.5,8.6-0.5,13c0,11.2,0,22.3,0,33.5c0,8.1,0,8.1,7.9,8.1c26,0,52,0,77.9,0c2,0,4,0,6,0.1
	c6.2-0.3,12.3-0.1,18.5-0.1c58.8,0,117.6,0,176.4,0c1.7,0,3.3,0,5,0c5.4-0.2,5.9-0.6,6-6.1c0.1-3.7-0.2-7.3,0.2-11
	c0.6-4.9,2.7-8.5,8-9.4c6.9,0.8,9.5,3.5,9.7,10.2c0.1,3.8,0.2,7.7,0,11.5s1.3,5.8,5.1,6.6c7.5,1.6,12.6,6.4,16.4,12.8
	c1.5,2.5,1.2,5.5,2.1,8.1c0,3.3,0,6.7,0,10c-1.8,11.1-9,17.1-19.2,19.8c-3.5,0.9-4.5,2.7-4.4,6c0.1,9.8,0.1,19.7,0,29.5
	c-0.2,33.2-29.4,63.8-62.6,66.2c-10.5,0.8-21,0.8-31.4,0.8c-4.2,0-5.7,1.3-6.2,5.6c-2.8,23.8-5.3,47.6-8.1,71.5
	c-0.5,4.6-0.1,5.1,4.7,5.2c6.3,0.1,12.7-0.1,19,0.1c3.7,0.1,4.7-0.8,3.4-4.5c-3-8.5-4.5-17.4-4.6-26.5c-0.1-6,1.4-11.6,3.7-17
	c5-11.6,17.1-15.9,28.6-14.7c15.3,1.7,24.6,12.2,25.4,27.9c0.6,12-1.4,23.6-5.9,34.7c-1.4,3.6-1.2,6.2,1.4,9
	c4.1,4.5,5.8,10,5.6,16.1c-0.2,5.3,0,10.7,0,16c0,5.6-1.7,10.6-5.5,14.6c-2.8,2.9-2.9,5.6-1.4,9c4.5,10.8,6.4,22,6,33.7
	c-0.7,21.7-18.5,34.3-39.1,27.5c-11.1-3.6-17.9-13.8-18.6-27.6c-0.5-9.8,1.3-19.2,4.2-28.5c1.6-5.1,1.6-5.2-3.9-5.2
	c-8.5,0-17,0.1-25.5,0c-4-0.1-5.9,1.6-6,5.6s-0.7,8-1.4,11.9c-1.3,7.3,0.8,13.5,5.3,19.1c7.5,9.3,15.3,18.5,22.7,27.9
	c5.3,6.7,7,13.8,3.1,21.9c-2.7,5.7-7.2,8.4-13.2,9.3c-19.7,0-39.3,0-59,0c-14-3.5-23.5-13.6-33.2-23.2c-8.6-8.5-17.4-16.9-26.2-25.3
	c-8.2-7.8-12.7-17.3-13.1-28.6c-0.2-6.6,0-13.3-0.1-19.9c-0.1-5.4,3.3-7.5,7.6-8.9c5.2,0,7.8,2.2,8.2,7.1c0.3,5,0.2,10,0.1,15
	c-0.1,10.1,3,18.5,10.6,25.8c11.9,11.6,24.4,22.6,35.9,34.6c2.8,2.9,6.2,5.1,10.2,5.9c2.6,0.8,5.2,1.2,7.9,1.2c14.1,0,28.3,0,42.4,0
	c1.6,0,3.7,0.4,4.6-1.1c1.1-1.9-0.7-3.4-1.8-4.8c-5.7-6.9-11-14.3-17.1-20.9c-10.8-11.7-14.6-24.8-12.5-40.8
	c6.4-50.8,11.7-101.8,17.6-152.7c0.6-5.1,0.1-5.8-5.3-5.8c-22.8-0.1-45.6,0-68.4,0c-5.7,0.3-11.3,0.1-17,0.1
	c-6.4,0.1-6.8,0.4-6.8,6.8c0,31,0,61.9,0,92.9c0,3.7,0.3,7.3-0.4,11C271.2,385.4,268.1,387.4,262.9,386.1z"/>
<path class="st0" d="M262.9,386.1c6.5-0.5,8.4-2.6,8.4-9.6c0-34.2,0.1-68.5-0.1-102.7c0-5.1,1.3-6.6,6.3-6.2
	c6.4,0.5,12.9,0.3,19.4,0.4c1.6,1.8,1.4,4,1.1,6.2c-4.7,33.3-6.7,66.8-5.6,100.5c1.4,41,9.7,80.2,33.4,114.8c1.2,1.7,2.9,3.4,2,5.8
	c-4.5-0.8-7.7-3.7-10.8-6.7c-12.2-11.8-24.3-23.6-36.6-35.3c-6.4-6-9.3-13.1-9.2-21.7c0.1-5-0.2-10,0.1-14.9
	c0.3-5.6-1.7-9.3-7.4-10.6C263.4,399.3,265.2,392.6,262.9,386.1z"/>
<path class="st1" d="M265.9,166.4c1.7-0.1,3.3-0.2,5-0.2c65.2,0,130.4,0,195.7-0.1c4.6,0,5.9,1.2,5.7,5.7
	c-0.7,12.8,1.2,25.7-1.3,38.3c-4.7,24.2-26.6,42.1-51.2,42.1c-4.5,0.5-9,0.2-13.5,0.2c-37.4,0-74.9-0.1-112.3,0.1
	c-4.3,0-6.7-1.4-8.5-5.2c-10.3-22.4-16.4-46-20-70.3C264.9,173.5,263.4,169.8,265.9,166.4z"/>
<path class="st1" d="M479.8,69.2c0,6.6,0,13.1,0,19.7c-6.1,1.7-7.6,3.6-7.7,9.8c0,3.7,0,7.3,0,11c0,6.7,0,6.7-6.5,6.7
	c-33.6,0-67.2,0-100.8,0c-31.8,0-63.6,0-95.3,0c-1.8,0-3.6-0.2-5.5-0.3c-2.5-5.1-0.1-10.3-0.1-15.4c0-4.1,1.1-8.1,1.3-12.2
	c1.1-5,2.5-10,2.1-15.2c3.2-6.8,4-14.3,6.1-21.4c3.4-11.1,7.7-21.8,12.3-32.5c0.7-1.7,1.6-3.3,3.3-4.3c30.3-0.1,60.5-0.1,90.8-0.2
	c12.1,0,24.3,0,36.4,0c29.2,0,50,17.2,55.3,45.8C472.5,65.9,474.7,68.8,479.8,69.2z"/>
<path class="st2" d="M327.9,495.1c-10.6-15.7-19.7-32.3-25.5-50.5c-4.8-15-7.5-30.4-9.6-46c-2.8-21.9-2.2-43.8-1.6-65.6
	c0.5-17.1,1.8-34.3,4.6-51.3c0.7-4.6,0.8-9.2,1.2-13.8c24.1-0.1,48.3-0.2,72.4-0.3c3.9,0,2.6,2.7,2.4,4.5
	c-1.3,12.7-2.8,25.5-4.3,38.2c-3.2,27.9-6.4,55.9-9.6,83.8c-1.5,13.1-2.7,26.2-4.4,39.2c-1.5,11.1,1.5,20.7,8.5,29.2
	c7.4,9,14.8,18.1,22.1,27.1c1.3,1.6,3.5,3.1,2.3,5.6c-1.1,2.1-3.5,1.6-5.4,1.6c-14.7,0-29.3,0-44,0
	C333.9,496.9,330.8,496.8,327.9,495.1z"/>
<path class="st3" d="M265.9,166.4c1.6,21.8,6.8,42.8,14,63.4c2,5.6,4.6,11,6.7,16.6c1.6,4.3,4.1,5.8,8.9,5.8
	c39.4-0.2,78.9-0.1,118.3-0.1c2,0,4,0.1,6,0.2c-1.5,0.1-3,0.3-4.4,0.3c-62.8,0-125.6,0-188.4,0c-27.2,0-48.5-16-54.6-40.9
	c-2.4-9.8-1.3-19.9-1.4-29.9c0-5.1-2.3-11.9,1-14.8c2.9-2.5,9.5-0.8,14.5-0.8C213,166.3,239.4,166.4,265.9,166.4z"/>
<path class="st3" d="M249.2,55c-2.2,1.6-4.5,0.4-6.7,0.1c-9.1-1.1-17.5,0.7-24.9,6.2c-12,8.9-11.8,24.2-0.1,33.5
	c11,8.7,35,8.6,45.1-4.1c0.9-1.2,1.8-2.4,3.5-2.6c1.3,1,0.7,2.3,0.5,3.6c-0.9,8.1-1.7,16.2-2.6,24.4c-17.8,0.1-35.6,0.2-53.4,0.3
	c-11.8,0-23.6-0.1-35.5,0.1c-3,0-4.4-0.4-4.4-4c0.2-15.5-0.1-31,0.2-46.5c0.6-26.6,23-49.8,49.7-50.7c22.8-0.7,45.6-0.1,68.4-0.1
	c-8.3,18.4-15.5,37.2-19.2,57.2c-0.2,1.3-1.1,0.9-1.8,0.6c-3.3-4-5.9-8.7-9.4-12.6"/>
<path class="st4" d="M489,132c5.5,1.5,8.4,5.4,7.9,10.4s-4.4,8.5-9.8,8.9c-0.8,0.1-1.7,0-2.5,0c-77.2,0-154.4,0-231.6,0
	c-1,0-2-0.1-3-0.2c-4.9-3.7-6.1-13.3-2.3-17.9c1.4-1.7,3.2-1.6,5-1.6c10,0,20,0,30,0c66.8,0,133.6,0,200.3,0
	C485,131.6,487,131.2,489,132z"/>
<path class="st0" d="M171,242.2c7.3,8.3,14.9,14.4,23.8,18.7c10.1,4.9,20.9,6.7,32,6.8c8.3,0.1,16.7,0.1,25,0
	c3.3-0.1,4.7,0.6,4.7,4.3c-0.2,24.5-0.1,49,0,73.5c0,3.2-0.9,4.5-4.2,4.3c-3.1-0.2-6.4,0.2-9.3-1.1c-4.4-2-5.4-6-5.4-10.4
	c0-9.5,0.1-19,0-28.5c-0.1-15.1-10-25.7-24-25.7s-24.2,10.9-24.3,26.1c0,3.3,0.2,6.7-0.1,10c-0.5,4.5-4.4,7.9-8.8,7.9
	c-4.5,0-8.9-3.2-8.9-7.7C170.9,294.7,171,269.1,171,242.2z"/>
<path class="st5" d="M406.4,399.8c-10,0-19.9-0.1-29.9,0.1c-3.1,0.1-4.1-0.7-3.6-3.9c1.1-8.4,2.1-16.8,2.9-25.2
	c0.2-1.9,1-2.5,2.8-2.5c19.6,0.1,39.2-0.1,58.8,0.1c5.1,0,7.4,2.9,7.6,8c0.1,5,0.1,10,0,15c-0.1,5.8-2.7,8.4-8.6,8.5
	C426.4,399.9,416.4,399.8,406.4,399.8z"/>
<path class="st5" d="M489,132c-4.7,0.1-9.3,0.1-14,0.1c-72.6,0-145.2,0-217.7,0c-8.7,0-12,4.3-10,13.1c0.5,2.1,1.4,4.1,2.7,5.8
	c-31.3,0.1-62.6,0.2-93.9,0.1c-5.8,0-9.9-4.3-10-9.7c-0.1-5.1,3.8-9.3,9.3-10c1.6-0.2,3.3-0.1,5-0.1c107.4,0,214.8,0,322.2,0
	C484.7,131.3,486.9,130.8,489,132z"/>
<path class="st5" d="M49,157.2c4.8,0,9.6,0,14.5,0c4.4,0,6.8,2,6.8,6.7c-0.1,8.8-0.1,17.6,0,26.4c0,4.4-2.3,6.4-6.5,6.4
	c-9.8,0.1-19.6,0.3-29.4-0.1c-11.3-0.5-19.5-9.2-19.3-20c0.2-10.8,8.6-19,20-19.4C39.7,157,44.4,157.2,49,157.2z"/>
<path class="st0" d="M120.5,189.2c-10.3,0-20.7-0.1-31,0.1c-3,0-4.6-0.5-4.4-4c0.3-5.6,0.2-11.3,0-17c-0.1-2.5,0.7-3.5,3.4-3.5
	c19.2,0.1,38.3,0,57.5,0.1c2.6,0,5.2,1,7.9,1.3c2.3,0.3,2,1.8,2,3.3c0,5.3-0.2,10.7,0.1,16c0.1,3.1-1,3.9-4,3.9
	C141.5,189.1,131,189.2,120.5,189.2z"/>
<path class="st5" d="M444.1,321.7c-0.3,10.2-2.4,19.1-6.6,27.6c-1.2,2.5-2.7,4.2-6,4.1c-3-0.1-4.5-1.4-5.7-3.8
	c-5.3-11-8.2-22.5-6.1-34.8c1.2-7.2,4.9-9.8,12.3-9.6c7.1,0.1,10.7,3.2,11.8,10.3C444.1,317.8,444,320.1,444.1,321.7z"/>
<path class="st5" d="M443.9,445.9c0,1.7,0.1,3.3,0,5c-0.6,7.9-4.1,11.7-11.1,12c-8.4,0.4-12.5-2.6-13.5-11.1
	c-1.3-12,1.3-23.4,6.9-34.1c2.3-4.3,8.3-4.3,10.7,0C441.7,426.5,443.8,435.9,443.9,445.9z"/>
<path class="st6" d="M259.7,60.7c4.2,3.1,7,7.2,8.4,12.3c1.3,5.3,0.4,10.3-2,15.1c-9.5,16.1-35,18.6-49.4,7.6
	c-12.6-9.6-12.7-26.2,0.1-35.5c9.6-7,20.3-8.5,31.7-5.2C251.5,58.4,255.4,59.9,259.7,60.7z"/>
<path class="st6" d="M411,54c7.3,1.1,13.7,4,18.8,9.4c7.9,8.4,8,20.3,0.3,28.9c-11.9,13.2-37.2,13.6-49.6,0.7
	c-9.2-9.6-8.2-23.6,2.3-32c3.8-3,8-5.3,12.9-6.1c1.4-0.3,3.3-0.9,8.2-1.2"/>
</svg>
