<?xml version="1.0" encoding="utf-8"?>
<!-- Generator: Adobe Illustrator 26.1.0, SVG Export Plug-In . SVG Version: 6.00 Build 0)  -->
<svg version="1.1" id="icon" xmlns="http://www.w3.org/2000/svg" xmlns:xlink="http://www.w3.org/1999/xlink" x="0px" y="0px"
	 viewBox="0 0 512 512" style="enable-background:new 0 0 512 512;" xml:space="preserve">
<style type="text/css">
	.st0{fill:#D3EFFC;}
	.st1{fill:#94D8F6;}
</style>
<g>
	<g id="XMLID_00000176004731598232021130000000665695948767199129_">
		<g>
			<path class="st0" d="M459.5,256c0,9.9-8.1,18-17.7,18l-39.4-2.2c0.5-5.2,0.9-10.5,0.9-15.8c0-5.3-0.3-10.6-0.9-15.8l39.1-2.2
				C451.4,238,459.5,246.1,459.5,256z"/>
			<path class="st0" d="M399.9,374.4c3.4,3.4,5.2,7.9,5.2,12.7c0,4.8-1.9,9.3-5.2,12.7c-3.4,3.4-7.9,5.2-12.7,5.2
				c-4.8,0-9.4-1.9-12.5-5l-26.3-29.5c8.2-6.6,15.7-14.1,22.3-22.3L399.9,374.4z"/>
			<path class="st0" d="M271.8,402.4l2.2,39.1c0,9.9-8.1,18-18,18s-18-8.1-18-17.7l2.2-39.4c5.2,0.5,10.4,0.9,15.8,0.9
				C261.3,403.3,266.6,403,271.8,402.4z"/>
			<path class="st0" d="M163.7,370.6l-26.1,29.3c-6.8,6.8-18.7,6.8-25.5,0c-3.4-3.4-5.2-7.9-5.2-12.7c0-4.8,1.9-9.4,5-12.5
				l29.5-26.3C148,356.5,155.5,364,163.7,370.6z"/>
			<path class="st0" d="M70.2,238l39.4,2.2c-0.5,5.2-0.8,10.4-0.8,15.8c0,5.3,0.3,10.6,0.8,15.8L70.5,274c-9.9,0-18-8.1-18-18
				S60.6,238,70.2,238z"/>
			<path class="st0" d="M137.4,111.9l26.3,29.5c-8.2,6.6-15.7,14.1-22.3,22.3l-29.3-26.1c-3.4-3.4-5.2-7.9-5.2-12.7
				s1.9-9.4,5.2-12.7C119.1,105.1,130.6,105.1,137.4,111.9z"/>
			<path class="st0" d="M274,70.2l-2.2,39.4c-5.2-0.6-10.5-0.9-15.8-0.9c-5.3,0-10.6,0.3-15.8,0.9L238,70.5c0-9.9,8.1-18,18-18
				S274,60.6,274,70.2z"/>
			<path class="st0" d="M405.2,124.8c0,4.8-1.9,9.3-5,12.5l-29.5,26.3c-6.6-8.2-14.1-15.7-22.3-22.3l26.1-29.3c7-7,18.5-7,25.5,0
				C403.3,115.5,405.2,120,405.2,124.8z"/>
			<circle class="st1" cx="256" cy="256" r="18"/>
			<path class="st1" d="M256,119.3c75.4,0,136.7,61.3,136.7,136.7S331.4,392.7,256,392.7c-75.4,0-136.7-61.3-136.7-136.7
				S180.6,119.3,256,119.3z M361.4,223.4c2.8-1,4.2-4,3.2-6.8c-1.2-3.2-2.5-6.4-4-9.6c-1.2-2.7-4.4-3.8-7-2.6
				c-2.6,1.2-3.8,4.4-2.6,7.1c1.3,2.8,2.6,5.8,3.6,8.7c0.8,2.2,2.8,3.5,5,3.5C360.2,223.7,360.8,223.6,361.4,223.4z M345.8,191.9
				c2.3-1.8,2.7-5.1,0.9-7.4c-22.1-27.9-55.1-43.9-90.6-43.9c-2.9,0-5.3,2.4-5.3,5.3c0,2.9,2.4,5.3,5.3,5.3
				c32.3,0,62.3,14.5,82.3,39.9c1,1.3,2.6,2,4.2,2C343.6,193,344.8,192.6,345.8,191.9z M340,256c0-46.4-37.7-84.1-84-84.1
				s-84.1,37.7-84.1,84.1c0,46.3,37.7,84,84.1,84S340,302.3,340,256z M261.3,366.2c0-2.9-2.4-5.3-5.3-5.3c-2.5,0-5-0.1-7.5-0.3
				c-2.9-0.2-5.4,2-5.7,4.9c-0.2,2.9,2,5.5,4.9,5.7c2.7,0.2,5.5,0.3,8.3,0.3C258.9,371.5,261.3,369.1,261.3,366.2z M228.4,362.8
				c0.9-2.8-0.7-5.8-3.5-6.6c-31.7-9.8-57.1-34.4-68-65.7c-1-2.8-4-4.2-6.7-3.3c-2.8,1-4.2,4-3.3,6.7c12,34.5,40,61.6,74.9,72.4
				c0.5,0.2,1.1,0.2,1.6,0.2C225.6,366.5,227.7,365.1,228.4,362.8z M147.2,274.4c2.9-0.4,5-3,4.6-5.9c-0.5-4.1-0.7-8.3-0.7-12.5
				c0-2.9-2.4-5.3-5.3-5.3c-2.9,0-5.3,2.4-5.3,5.3c0,4.6,0.3,9.2,0.8,13.7c0.3,2.7,2.6,4.7,5.2,4.7
				C146.8,274.4,147,274.4,147.2,274.4z"/>
			<path d="M470.1,256c0,15.8-12.8,28.6-28.6,28.6l-40.6-2.3c-3.8,21.1-12.1,40.6-23.9,57.5l30.2,26.9c5.6,5.6,8.6,12.8,8.6,20.4
				c0,7.7-3,14.8-8.4,20.2c-5.4,5.4-12.6,8.4-20.2,8.4c-7.7,0-14.9-3-20.2-8.4L339.8,377c-16.9,11.8-36.5,20.1-57.5,23.9l2.3,40.3
				c0,16.1-12.8,28.9-28.6,28.9s-28.6-12.8-28.6-28.6l2.3-40.6c-21.1-3.8-40.6-12.1-57.5-23.9l-26.9,30.2
				c-5.6,5.6-12.8,8.6-20.4,8.6s-14.8-3-20.2-8.4c-5.4-5.4-8.4-12.6-8.4-20.2c0-7.7,3-14.9,8.4-20.2l30.4-27.1
				c-11.8-16.9-20.1-36.5-23.9-57.5l-40.3,2.3c0,0,0,0,0,0c-16.1,0-28.9-12.8-28.9-28.6c0-15.8,12.8-28.6,28.6-28.6l40.6,2.3
				c3.8-21.1,12.1-40.6,23.9-57.5l-30.2-26.9c-5.6-5.6-8.6-12.8-8.6-20.4s3-14.8,8.4-20.2c11.2-11.2,29.3-11.1,40.5,0l27.1,30.4
				c16.9-11.8,36.5-20.1,57.5-23.9l-2.3-40.3c0-16.1,12.8-28.9,28.6-28.9s28.6,12.8,28.6,28.6l-2.3,40.6
				c21.1,3.8,40.6,12.1,57.5,23.9l26.9-30.2c11.4-11.4,29.5-11.4,40.7-0.2c5.4,5.4,8.4,12.6,8.4,20.2s-3,14.8-8.4,20.2L377,172.2
				c11.8,16.9,20.1,36.5,23.9,57.5l40.3-2.3c0,0,0,0,0,0C457.3,227.4,470.1,240.2,470.1,256z M441.8,274c9.6,0,17.7-8.1,17.7-18
				s-8.1-18-18-18l-39.1,2.2c0.5,5.2,0.9,10.4,0.9,15.8c0,5.3-0.3,10.6-0.9,15.8L441.8,274z M400.1,137.4c3.2-3.2,5-7.7,5-12.5
				s-1.9-9.4-5.2-12.7c-7-7-18.5-7-25.5,0l-26.1,29.3c8.2,6.6,15.7,14.1,22.3,22.3L400.1,137.4z M405.2,387.2
				c0-4.8-1.9-9.4-5.2-12.7l-29.3-26.1c-6.6,8.2-14.1,15.7-22.3,22.3l26.3,29.5c3.2,3.2,7.7,5,12.5,5c4.8,0,9.4-1.9,12.7-5.2
				C403.3,396.5,405.2,392,405.2,387.2z M392.7,256c0-75.4-61.3-136.7-136.7-136.7c-75.4,0-136.7,61.3-136.7,136.7
				S180.6,392.7,256,392.7C331.4,392.7,392.7,331.4,392.7,256z M271.8,109.6l2.2-39.4c0-9.6-8.1-17.7-18-17.7s-18,8.1-18,18
				l2.2,39.1c5.2-0.6,10.4-0.9,15.8-0.9C261.3,108.7,266.6,109,271.8,109.6z M274,441.5l-2.2-39.1c-5.2,0.5-10.5,0.9-15.8,0.9
				c-5.3,0-10.6-0.3-15.8-0.9l-2.2,39.4c0,9.6,8.1,17.7,18,17.7S274,451.4,274,441.5z M163.7,141.4l-26.3-29.5
				c-6.8-6.8-18.2-6.8-25.3,0.2c-3.4,3.4-5.2,7.9-5.2,12.7s1.9,9.3,5.2,12.7l29.3,26.1C148,155.5,155.5,148,163.7,141.4z
				 M137.6,399.9l26.1-29.3c-8.2-6.6-15.7-14.1-22.3-22.3l-29.5,26.3c-3.2,3.2-5,7.7-5,12.5c0,4.8,1.9,9.3,5.2,12.7
				C118.8,406.7,130.8,406.7,137.6,399.9z M109.6,240.2L70.2,238c-9.6,0-17.7,8.1-17.7,18s8.1,18,18,18l39.1-2.2
				c-0.5-5.2-0.8-10.5-0.8-15.8C108.7,250.7,109,245.4,109.6,240.2z"/>
			<path d="M364.6,216.6c1,2.8-0.4,5.8-3.2,6.8c-0.6,0.2-1.2,0.3-1.8,0.3c-2.2,0-4.2-1.3-5-3.5c-1.1-2.9-2.3-5.9-3.6-8.7
				c-1.2-2.7-0.1-5.8,2.6-7.1c2.6-1.2,5.8-0.1,7,2.6C362,210.1,363.4,213.4,364.6,216.6z"/>
			<path d="M346.6,184.4c1.8,2.3,1.4,5.6-0.9,7.4c-1,0.8-2.1,1.2-3.3,1.2c-1.6,0-3.1-0.7-4.2-2c-20-25.3-50-39.9-82.3-39.9
				c-2.9,0-5.3-2.4-5.3-5.3c0-2.9,2.4-5.3,5.3-5.3C291.5,140.5,324.6,156.5,346.6,184.4z"/>
			<path d="M256,171.9c46.4,0,84,37.7,84,84.1c0,46.3-37.7,84-84,84s-84.1-37.7-84.1-84C171.9,209.6,209.6,171.9,256,171.9z
				 M284.1,250.7h45.1c-2.6-36.3-31.6-65.3-67.9-67.9v45.1C272.8,230.1,281.9,239.2,284.1,250.7z M329.2,261.3h-45.1
				c-2.2,11.5-11.3,20.6-22.8,22.8v45.1C297.6,326.6,326.6,297.6,329.2,261.3z M274,256c0-9.9-8.1-18-18-18s-18,8.1-18,18
				s8.1,18,18,18S274,265.9,274,256z M250.7,329.2v-45.1c-11.5-2.2-20.6-11.3-22.8-22.8h-45.1C185.4,297.6,214.4,326.6,250.7,329.2z
				 M250.7,227.9v-45.1c-36.3,2.6-65.3,31.6-67.9,67.9h45.1C230.1,239.2,239.2,230.1,250.7,227.9z"/>
			<path d="M256,360.9c2.9,0,5.3,2.4,5.3,5.3c0,2.9-2.4,5.3-5.3,5.3c-2.8,0-5.6-0.1-8.3-0.3c-2.9-0.2-5.1-2.7-4.9-5.7
				c0.2-2.9,2.7-5.1,5.7-4.9C251,360.8,253.5,360.9,256,360.9z"/>
			<path d="M224.9,356.2c2.8,0.9,4.4,3.8,3.5,6.6c-0.7,2.3-2.8,3.7-5.1,3.7c-0.5,0-1.1-0.1-1.6-0.2c-34.9-10.8-62.9-37.9-74.9-72.4
				c-1-2.8,0.5-5.8,3.3-6.7c2.8-1,5.8,0.5,6.7,3.3C167.8,321.8,193.2,346.4,224.9,356.2z"/>
			<path d="M151.9,268.5c0.4,2.9-1.7,5.5-4.6,5.9c-0.2,0-0.4,0-0.6,0c-2.6,0-4.9-2-5.2-4.7c-0.5-4.5-0.8-9.1-0.8-13.7
				c0-2.9,2.4-5.3,5.3-5.3c2.9,0,5.3,2.4,5.3,5.3C151.1,260.2,151.4,264.4,151.9,268.5z"/>
		</g>
		<g>
		</g>
	</g>
</g>
</svg>
