<?xml version="1.0" encoding="utf-8"?>
<!-- Generator: Adobe Illustrator 26.0.2, SVG Export Plug-In . SVG Version: 6.00 Build 0)  -->
<svg version="1.1" id="Layer_1" xmlns="http://www.w3.org/2000/svg" xmlns:xlink="http://www.w3.org/1999/xlink" x="0px" y="0px"
	 viewBox="0 0 512 512" style="enable-background:new 0 0 512 512;" xml:space="preserve">
<style type="text/css">
	.st0{fill:#EFEFEF;}
	.st1{fill:#B3B3B3;}
</style>
<path class="st0" d="M242.1,373.2c-79,24.7-160.5,26.1-242.1,26.4c2.9-1.3,5.9-2.6,8.8-3.9c9.2-6.9,20.4-6.4,31-8.2
	c3.3-0.5,6.8,0.8,9.9-1.1c83.4-20.6,160.8-52.5,219.3-118.6c15.9-17.9,28.8-38.1,30.4-63c2.1-34.6-12.3-61.6-40.3-81.1
	c-34.5-24-74.2-32.5-115.3-36c-4.3-0.4-9,0.9-14.3-2.8c20.4-5.9,40.2-8.7,60.1-9.5c59.9-2.5,119.4,0,176.4,21
	c29.6,10.9,55.5,27.4,71.9,55.6c16.6,28.3,17.5,56.9,1.8,86c-16.2,30-41,51.7-67.8,71.7C371.9,309.6,316.8,350.1,242.1,373.2z"/>
<path class="st1" d="M4.4,393.6c-1-0.9-1.9-1.8-2.9-2.7c61.2-25.8,114.2-62.6,155.4-115.1c18.9-24.2,29.1-51.7,28.7-82.7
	c-0.4-30.4-13.4-54.4-39-71.1c-9.4-6.2-19.6-11.2-29.6-16.8c1.2-3.7,4.3-1.9,6.4-1.8c25.4,1.4,50.2,5.7,73.8,15.5
	c46.1,19,64.2,55.3,49.6,102.9c-15.1,48.9-48.7,83.1-91.6,109c-36.3,21.9-74.6,39.4-114.7,53.2C29.5,391.1,17.2,393.2,4.4,393.6z"/>
<g>
	<g>
		<path class="st1" d="M346.8,317.7c3.4,2,6,4.7,7.9,8.2c1.9,3.5,2.8,7.3,2.8,11.6v1.3c0,4.3-0.9,8.2-2.8,11.7
			c-1.9,3.5-4.5,6.2-7.9,8.2c-3.4,2-7.2,3-11.5,3h-16.6v22.4h-22.3v-69.4h38.9C339.6,314.7,343.4,315.7,346.8,317.7z M318.7,345.5
			h9.2c2.4,0,4.1-0.6,5.3-1.8c1.2-1.2,1.8-2.9,1.8-4.9v-0.8c0-2.2-0.6-3.8-1.8-5c-1.2-1.2-2.9-1.8-5.3-1.8h-9.2V345.5z"/>
		<path class="st1" d="M412.2,384.1h-22.3v-26.9l-27.5-42.4H388l13.3,23.1h0.4l13.3-23.1h24.3l-27.1,42.4V384.1z"/>
		<path class="st1" d="M487.5,332.5v51.6h-22.3v-51.6h-22.8v-17.7h67.7v17.7H487.5z"/>
	</g>
</g>
</svg>
