<?xml version="1.0" encoding="utf-8"?>
<!-- Generator: Adobe Illustrator 26.0.2, SVG Export Plug-In . SVG Version: 6.00 Build 0)  -->
<svg version="1.1" id="Layer_1" xmlns="http://www.w3.org/2000/svg" xmlns:xlink="http://www.w3.org/1999/xlink" x="0px" y="0px"
	 viewBox="0 0 512 512" style="enable-background:new 0 0 512 512;" xml:space="preserve">
<style type="text/css">
	.st0{fill:#010101;}
	.st1{fill:#B1BCC2;}
	.st2{fill:#BFCBD1;}
	.st3{fill:#728CA7;}
	.st4{fill:#2E69A7;}
	.st5{fill:#265587;}
</style>
<path class="st0" d="M511.9,258c-2.8,8.7-3.4,17.8-5,26.7c-5.3,31.1-10.4,62.2-15.6,93.3c-1.4,8.5-2.6,17.1-4.4,25.5
	c-2.6,12.5-13.1,21-26,21.4c-1.3,0-2.7,0.1-4,0.1c-133.9,0-267.9-0.1-401.8,0.2c-16.8,0-28.3-10.1-30.6-24.1
	c-1.5-8.8-2.9-17.7-4.3-26.5C15,343.8,10,313,4.7,282.3c-1.4-8.1-1.9-16.4-4.6-24.3c0-4,0-8,0-12c2.1-2.9,2.9-6.5,5.4-9.3
	c4.9-5.5,11-8.4,18.4-8.6c5.3-0.1,10.7-0.2,16,0.1c3.2,0.2,4.5-1,5.8-3.9C74.1,161.9,120.5,118.7,186,98.1
	c72.8-22.9,141.2-11.6,204.1,32c5.2,3.6,5.8,5.9,3.8,11.9c-3,4.8-6.6,5.6-11.7,2.4c-7.2-4.5-14.1-9.4-21.5-13.6
	c-26.4-15-54.8-23.7-85-26.4c-3.8-0.3-7.5-1.3-11.4-0.9c-37.7-1.3-73.4,6.5-106.9,24c-17.3,9.1-33,20.4-47.4,33.8
	c-16.7,15.6-30.5,33.3-41.2,53.5c-1.5,2.6-3.1,5.1-4.4,7.8c-1.2,2.8-0.5,4.1,2.6,4.1c7.2,0,14.3-0.1,21.5,0.1
	c7.1,0.2,10.3,3.1,11.4,9.9c-1.9,6.2-4.1,7.8-11.5,7.8c-18.8,0.1-37.6,0-56.5,0c-1.8,0-3.7,0-5.5,0c-8.6,0-12.2,7.3-7.6,14
	c1.7,1.4,3.8,1,5.8,1c50.1-0.1,100.1,0.1,150.2-0.1c4.8,0,8.6-1.3,12-4.9c3.9-4.1,8.6-7.2,12.5-10.1c-24.5-0.1-49.6,0-74.7-0.3
	c-5.8-2.1-6.9-3.9-6.7-10.7c1.4-4.6,4.9-6.5,9.4-6.9c2.5-0.2,5-0.1,7.5-0.1c101.9,0,203.7,0,305.6,0c8.7,0,8.8-0.3,4.8-8
	c-9.3-17.8-20.7-34.1-34.8-48.5c-1.9-1.9-3.6-4-4.4-6.6c-1.1-3.7-1.3-7.3,3.1-9.3c4.7-2.4,8.4-1.2,12,2.6
	c18.8,19.7,34,41.7,44.8,66.7c1.7,3.9,3.8,5.2,7.8,4.8c3-0.3,6,0.1,9-0.1c14.5-1,24.5,4.9,29.3,18.9
	C511.9,250.7,511.9,254.3,511.9,258z"/>
<path class="st1" d="M409.1,154.2c-3.8,5.6-3.8,8.1,1,13.1c16.2,16.8,29.4,35.6,39.4,56.6c0.6,1.2,1,2.4,1.9,4.4c-2.5,0-4.3,0-6.2,0
	c-105.2,0-210.5,0-315.7,0c-4.8,0-9,0.6-10.8,6c-0.3,1.3-0.8,2.8-2.3,2.9c-5.9,0.5-11.8,1.8-17.5-1.1c-2.2-6.5-3.9-7.7-10.9-7.7
	c-9,0-17.9,0-27.7,0c2.4-5.3,4.4-10.1,7.4-14.4c2.8-0.5,5.6-0.2,8.5-0.2c60.2,0,120.5,0,180.7,0c7.7,0,15.3-0.6,22.7-2.5
	c20.5-5.3,36.9-25.9,37.6-47.2c0.9-27.3-11.2-45.2-37-54.5c-4.1-1.5-8.2-2.7-12.3-4.2c-1.6-0.6-3.8-0.5-4.2-2.9
	c32.5,1,63,9.3,91.8,24.3c8.8,4.6,17.2,10,25.4,15.7c5.7,4,7.4,3.9,12.7-0.3C398.9,146,403.1,151.2,409.1,154.2z"/>
<path class="st2" d="M264,102.2c10.4,3.7,21.4,6.2,30.8,12.3c15.2,9.8,23,23.8,24.2,41.7c1.1,17.2-4.8,31.8-16.7,43.7
	c-8.8,8.8-19.8,13.6-32.5,14.1c-65.8,2.2-131.5,0.3-197.3,0.9c-1.6,0-3.4,0.5-4.5-1.3c9.7-19.3,23-36.1,38.5-51
	c31.2-30.2,68.3-49.3,111-57.3C232.8,102.5,248.3,101.4,264,102.2z"/>
<path class="st3" d="M339.2,327.2c-0.3,46.9-37.7,83.2-85.3,82.8c-44.7-0.3-81.5-38.5-81.1-84c0.4-45.9,37.8-82.9,83.5-82.7
	C302.4,243.5,339.5,281.1,339.2,327.2z"/>
<path class="st2" d="M36.2,376.9c-2.8-11.1-4.1-22.5-6-33.7c-3.7-21.2-7-42.5-10.7-63.7c-0.5-2.7-0.4-3.8,2.8-3.8
	c42.9,0.1,85.8,0.1,128.7,0.1c0.3,0,0.6,0.1,1,0.2c1.6,2.1,0.5,4.1-0.4,6.1c-12.5,29.4-12.2,58.9-0.4,88.4c0.5,1.2,1,2.5,1.2,3.8
	c0.4,2-0.2,3.3-2.5,3.2c-0.7,0-1.3,0-2,0c-35.9,0-71.9,0-107.8,0C38.8,377.4,37.4,377.8,36.2,376.9z"/>
<path class="st2" d="M360,276c20.1-0.1,40.1-0.2,60.2-0.2c16.6,0,33.2,0.1,49.7,0.2c1.6,1.9,1.2,4,0.8,6.2
	c-4.6,29.7-9.7,59.4-14.7,89.1c-1,6.2-1.2,6.1-7.7,6.2c-8.5,0.1-16.9-0.4-25.4,0.3c-3.9,1.3-6,4-6.2,8.1c-6.6,2.6-13.1,2.6-19.7,0
	c-0.2-4.1-2.3-6.8-6.2-8.1c-9-0.8-17.9-0.2-26.9-0.3c-5.1-0.1-5.6-0.7-3.7-5.5c3.8-9.5,6.7-19.1,8.1-29.3
	c2.8-20.2,0.5-39.8-7.1-58.7C360.3,281.5,358.3,279,360,276z"/>
<path class="st4" d="M99,235.9c5,0,10.1,0,15.1,0.1c1.9,0,3.5-0.2,4.6-1.9c-0.3,4.3,1.1,7.4,5.3,9.1c14.9,0.8,29.9,0.1,44.9,0.4
	c2.4,0.1,5.8-1.4,6.8,0.9c1.1,2.6-2.2,4.4-3.9,6.4c-0.3,0.4-0.8,0.7-1,1.1c-4.6,8.1-11.8,8.8-20.3,8.7c-42.7-0.4-85.5-0.2-128.2-0.2
	c-1.8,0-3.7,0.4-5.4-0.4c-1.3-2.3-1.6-5-1.7-7.5c-0.3-5.7,3.7-9.2,10.4-9.2c20.9-0.1,41.9-0.1,62.8,0.1
	C94.1,243.4,97.8,241.7,99,235.9z"/>
<path class="st1" d="M423,377.8c6.7-1.9,13.5-0.6,20.3-0.8c9.9-0.3,10.1,0,11.9-10.1c4.3-24.1,8.5-48.1,12-72.3
	c0.9-6.2,2.6-12.3,2.9-18.6c6.8-0.1,13.6-0.1,20.5-0.3c2.5-0.1,2.6,1,2.3,3c-5.3,31.8-10.6,63.5-15.9,95.3c-0.4,2.5-1.1,4-4.3,3.9
	C455.9,377.7,439.4,377.8,423,377.8z"/>
<path class="st4" d="M176,409.8c-30.8,0.1-61.6,0.1-92.4,0.2c-10.2,0-20.3,0-30.5,0c-8.9,0-14.6-6.2-14.3-15c0-1.5,0.3-2.2,1.8-2.1
	c1.2,0.1,2.3,0,3.5,0c37.6,0,75.2,0,112.9,0c1.7,0,3.3,0.1,5,0.2C167.4,398,172.6,403.2,176,409.8z"/>
<path class="st4" d="M397.1,385.9c6.6,0,13.1,0,19.7,0c1.2,5.3,4.7,7.1,9.8,7.1c8.1-0.1,16.2,0.1,24.3,0.2c1.1,6.4,0.2,12.2-5,16.7
	c-36.6,0-73.3,0-109.9,0c0.3-4.3,4.4-5.9,6.5-9c2-2.9,3.8-6.3,7.5-7.8c12.4-0.1,24.9-0.2,37.3-0.1
	C392.4,393,395.9,391.1,397.1,385.9z"/>
<path class="st1" d="M36.2,376.9c36.9,0,73.8,0,110.7,0c3.7,0,5.5,0,3.4-4.7c-7.3-16.8-10.5-34.5-9.3-52.8
	c0.9-13.3,3.7-26.2,9.4-38.3c0.8-1.7,1.8-3.2,1.6-5.2c6.3,0,12.6,0,19.5,0c-9.1,16-13.9,32.8-13.9,50.9c0,18,4.8,34.6,13.7,50
	c-0.9,1.5-2,0.9-2.9,0.9c-42.8,0-85.5,0-128.3,0C38.9,377.8,37.2,378.7,36.2,376.9z"/>
<path class="st1" d="M360,276c2.2,8,6.1,15.4,8,23.5c5.6,25,3.6,49.4-6.4,72.9c-1.8,4.2-0.8,4.7,3.1,4.6c7.1-0.2,14.3-0.1,21.5,0
	c1.6,0,3.4-0.5,4.8,0.8c-16.6,0-33.3,0-50.5,0c18.4-33.8,18.7-67.5,0.2-101.8C347.3,276,353.6,276,360,276z"/>
<path class="st5" d="M495,260.1c-1.5,1.1-3.2,0.6-4.8,0.6c-52.3,0-104.5,0-156.8,0.1c-3,0-5.3-0.7-7.4-3
	c-4.8-5.3-10.5-9.5-16.6-13.6c1.6-1.4,3.2-0.8,4.5-0.8c56.9,0,113.8,0,170.8,0c1.8,0,3.7-0.5,5.3,0.7c-3.5,2.8-7.7,1.3-11.5,1.6
	c-2.1,0.2-4.3-0.1-6.5-0.1c-43.7,0.2-87.5,0-132.1,0.1c3.3,4.3,6.5,7.7,9.6,11c2.3,2.5,5.6,1.8,8.5,1.8c36.5,0,72.9,0,109.4,0
	c1.8,0,3.7,0,5.5,0.1c5.3-0.2,10.6-0.1,16-0.1C491.1,258.5,493.4,258.3,495,260.1z"/>
<path class="st5" d="M16.9,260.1c46.6,0,93.1-0.1,139.7,0c4.4,0,6.9-1.5,9.4-4.8c2.7-3.7,6.1-6.9,9.3-10.4c-0.9-1.6-2.4-0.8-3.6-0.8
	c-14.1-0.1-28.3,0-42.4-0.1c-1.8,0-3.7,0.6-5.2-0.8c26,0,51.9,0,79.2,0c-4.3,3.4-8.3,5.6-10.9,8.8c-6.5,8-14.6,8.9-24.2,8.8
	c-48.6-0.4-97.2-0.2-145.9-0.2C20.4,260.7,18.6,261.3,16.9,260.1z"/>
<path class="st5" d="M176,409.8c-4.9-5.4-10-10.6-14-16.7c6.3-0.1,12.6-0.1,18.9-0.2c1.8,0,3.1,0.6,4.3,1.9
	c5.1,5.5,10.9,10.2,18.2,15C193.6,409.8,184.8,409.8,176,409.8z"/>
<path class="st5" d="M350,393.1c-4.7,5.6-9.3,11.1-14,16.7c-8.7,0-17.5,0-27.3,0c7.4-5,13.5-9.9,18.8-15.7c1-1.1,2.2-1.2,3.6-1.2
	C337.4,393,343.7,393,350,393.1z"/>
<path class="st5" d="M445.9,409.8c3.3-5.1,4-10.9,5-16.7c6.5-0.1,12.9,0,19.4-0.2c2.6-0.1,2.9,0.8,2.7,3.1c-0.7,9.1-5.6,14-14.6,14
	C454.2,410,450.1,409.9,445.9,409.8z"/>
<path class="st5" d="M495,260.1c-7.4-0.1-14.8-0.2-22.2-0.3c-0.7-5.2-0.2-10.4-0.9-15.6c6.1-0.1,12.1-0.2,18.2-0.2
	c4.8,0.6,6.6,4,6.7,8.2C496.9,254.8,496.5,257.6,495,260.1z"/>
<path class="st0" d="M263.6,376.9c13-3.6,21.4-11.2,25.6-23.5c0.7-2,0.7-2.8-1.7-3.3c-5.1-1.1-7.1-3.9-6.5-8.3
	c0.7-4.6,3.9-6.3,8.1-6.5c1.8-0.1,3.7,0,5.5,0c9.6,0,12.6,3.5,11.1,13c-3.7,24.7-20.7,41.4-45.4,44.5c-24.1,3-49.3-16.1-53.3-40.3
	c-2.5-15.3-0.5-17.6,15.2-17.1c4.4,0.1,7.9,1.5,8.8,6.4c0.8,4.4-1.3,7.2-6.8,8.6c-2.2,0.5-2.1,1.3-1.5,3
	c3.8,11.4,11.3,18.9,22.6,22.8c2.4,0.8,3.1,0.3,3.1-2.3c-0.1-16.8-0.1-33.6,0-50.5c0-2.7-1-3.5-3.5-3.3c-1.5,0.2-3,0.1-4.5,0
	c-4.9-0.2-8.3-3.2-8.3-7.5c0-4,3.2-7.1,7.8-7.5c1-0.1,2,0,3.9,0c-6.6-5-10.7-10.7-11.5-18.4c-0.7-7.8,1.9-14.5,7.6-19.7
	c9.5-8.7,24.7-8.1,33.3,1.1c10.1,10.9,8.4,24.5-4.6,36.8c1.7,0.1,3.1,0,4.5,0.2c4.1,0.9,6.6,3.6,6.4,7.7c-0.2,4-2.6,6.7-6.9,7.2
	c-2.9,0.3-7.2-1.3-8.5,0.8c-1.5,2.4-0.6,6.4-0.6,9.7c0,13.7,0,27.3,0,41C263.6,373.1,263.6,374.8,263.6,376.9z"/>
<path class="st4" d="M471.9,244.2c3.1,5,2.4,10.3,0.9,15.6c-40.1,0.1-80.2,0.1-120.3,0.2c-1.3,0-2.7,0.2-3.6-1.1
	c-3.6-5.1-8.1-9.5-13.3-14.7C381.9,244.2,426.9,244.2,471.9,244.2z"/>
<path class="st3" d="M264.6,284.2c0.1,4.6-3.9,8.7-8.5,8.8c-4.6,0.1-8.7-3.9-8.8-8.5s3.8-8.5,8.5-8.6
	C260.6,275.8,264.5,279.5,264.6,284.2z"/>
</svg>
