<?xml version="1.0" encoding="utf-8"?>
<!-- Generator: Adobe Illustrator 26.0.2, SVG Export Plug-In . SVG Version: 6.00 Build 0)  -->
<svg version="1.1" id="Layer_1" xmlns="http://www.w3.org/2000/svg" xmlns:xlink="http://www.w3.org/1999/xlink" x="0px" y="0px"
	 viewBox="0 0 512 512" style="enable-background:new 0 0 512 512;" xml:space="preserve">
<style type="text/css">
	.st0{fill:#E2E2E2;}
	.st1{fill:#808080;}
	.st2{fill:#3A3A3A;}
	.st3{fill:#111111;}
	.st4{fill:#222222;}
	.st5{fill:#555555;}
	.st6{fill:#888888;}
	.st7{fill:#666666;}
	.st8{fill:#777777;}
	.st9{fill:#3B3B3B;}
	.st10{fill:#212121;}
	.st11{fill:#444444;}
	.st12{fill:#F9DAD9;}
	.st13{fill:#232323;}
	.st14{fill:#5D5D5D;}
	.st15{fill:#343434;}
	.st16{fill:#9A9A9A;}
	.st17{fill:#929292;}
	.st18{fill:#FEFEFE;}
	.st19{fill:#FDFDFD;}
	.st20{fill:#F3F3F3;}
</style>
<path class="st0" d="M191.6,172.3c-3.3,8.3-6.7,16.7-10,25c-0.4,0.9-0.8,1.2-1.8,1.2c-12.1,0.1-24.3,0.2-36.4,0.3c-2,0-4,0-6,0.5
	c-6.6,1.6-8.6,8-4.8,13.1c3.3,4.5,7.5,8.1,11.3,12.2c2.2,2.5,4.5,4.9,6.7,7.4c8.2,9.1,10.1,19.6,6,30.8
	c-5.5,14.8-15.9,24.5-31.6,27.9c-9.3,2-18.1,0-26.3-4.8c-5.5-3.2-10.1-7.4-14.4-11.9c-0.3-0.3-0.6-0.6-1-1c-0.1-0.1-0.1-0.1-0.3-0.1
	c-2.2,3.2-4.5,6.4-7.5,9c-6.9,6.1-14.8,9.1-24,9.5c-12.4,0.4-22.6-4.3-31.3-12.6c-4-3.9-7.9-7.9-11.7-12c-0.6-0.6-0.7-1.2-0.4-2
	c3.2-8.4,6.3-16.7,9.4-25.1c0.4-1.1,0.7-1.1,1.5-0.3c6,5.9,11.6,12.2,17.6,18.2c1.5,1.5,2.9,3,4.5,4.3c3.9,3,8.2,4,12.9,2.3
	c7.3-2.6,9.5-11.1,4.5-16.9c-5-5.8-10.4-11.2-15.6-16.8c-1-1.1-2-2.2-3.1-3.3c-5.2-5.4-7.5-11.9-7.8-19.3
	c-0.6-16,10.4-27.9,22.7-32.2c4.9-1.7,10-2.9,15.3-3.1c0.6-0.2,1.2,0,1.8-0.1c1.1,0,2.1,0,3.2,0c0.7,0,1.4,0,2.1,0c1.3,0,2.7,0,4,0
	c1.6,0,3.2,0,4.7,0c1.8,0,3.7,0,5.5,0c1.8,0,3.5,0,5.3,0c1.8,0,3.7,0,5.5,0c5.1,0,10.3,0,15.4,0c0.4,0,0.9,0.1,1.3-0.1
	C143.2,172.3,167.4,172.3,191.6,172.3z"/>
<path class="st0" d="M231.2,172.6c-1.4,3.9-2.8,7.8-4.3,11.7c-13.2,35.3-26.5,70.6-39.7,105.8c-0.4,1-0.8,1.2-1.8,1.2
	c-8.9,0-17.9,0-26.8,0c-0.4,0-0.8,0-1.3,0c1.6-4.1,3-8.1,4.6-12.1c13.2-35,26.4-70.1,39.6-105.1c0.2-0.6,0.4-1.3,1-1.8
	c0.2,0,0.3,0,0.5,0c0.7,0.3,1.4,0.1,2.1,0.1c1.1,0,2.1,0,3.2,0c3,0,5.9,0,8.9,0c1.1,0,2.2,0,3.3,0c1,0,2,0,3,0c1,0,2,0,3,0
	C228,172.5,229.6,172.3,231.2,172.6z"/>
<path class="st1" d="M281.5,172.3c1,0.5,2.2,0.4,3.3,0.7c5.1,1.3,7.8,5,7.2,10.3c0,0.4-0.1,0.5-0.5,0.5c-1.3-0.1-2.7-0.1-4-0.1
	c-0.5,0-0.6-0.3-0.7-0.7c-0.1-0.8-0.2-1.6-0.3-2.4c-0.2-1.7-1.2-2.7-2.8-3.1c-2.5-0.7-5.1-0.8-7.7-0.9c-5.5-0.2-10.9-0.1-16.4,0.4
	c-3.5,0.3-5.1,2-5.3,5.4c0,0.6,0,1.2,0,1.9c0.1,2.6,1.3,4,4,4.2c4.9,0.4,9.8,0.3,14.6,0.5c3.3,0.1,6.7,0.1,10,0.3
	c3.2,0.2,6.1,1.2,8.3,3.8c0.7,0.9,1.1,1.8,1.3,2.9c0.3,2.5,0.4,5,0,7.5c-0.4,2.5-1.8,4.3-4,5.6c-2,1.1-4.2,1.6-6.5,1.7
	c-7.5,0.3-14.9,0.3-22.4,0c-1.3,0-2.6-0.3-3.9-0.7c-4.3-1.3-6.4-4-6.6-8.5c-0.1-3.4-0.1-3.3,3.2-3.2c1.4,0,2,0.4,1.9,1.8
	c0,0.6,0.1,1.2,0.1,1.7c0.2,2.4,1.5,3.8,3.9,4.2c2.2,0.3,4.3,0.2,6.5,0.2c5.8,0,11.7,0.1,17.5,0c2.3,0,5.4-1.8,5.1-4.9
	c-0.1-1.1,0-2.2,0-3.2c0-2.1-1.4-3.7-3.6-3.8c-3.4-0.2-6.8-0.4-10.3-0.4c-5-0.1-10.1-0.1-15.1-0.5c-1.9-0.2-3.7-0.6-5.4-1.5
	c-2.5-1.4-3.6-3.6-3.7-6.3c0-1.2,0-2.5,0-3.7c0-4.5,1.9-6.9,6.1-8.5c1.2-0.4,2.5-0.4,3.7-0.9c0.4,0,0.8,0,1.3,0c0.3,0.2,0.7,0.2,1,0
	c0.6,0,1.2,0,1.8,0c0.8,0.3,1.5,0.1,2.3,0.1c0.6,0,1.2,0,1.8,0c2,0,4,0,6.1,0c0.7,0,1.4,0,2,0c0.7,0,1.3,0,2,0
	c0.6-0.1,1.3,0.1,1.9-0.1C280,172.3,280.8,172.3,281.5,172.3z"/>
<path class="st1" d="M338.9,172.5c0.9,0.4,1.8,0.8,2.7,1.3c2.5,1.5,4.1,3.5,4.1,6.5c0,1.3,0.1,2.6,0.2,3.9c0.1,0.6-0.1,0.8-0.7,0.8
	c-1.1,0-2.2,0-3.3,0c-0.6,0-0.9-0.1-0.9-0.8c0-0.7,0-1.3,0-2c0-3.4-3-5.6-6.1-5.6c-7.3,0.2-14.7,0.1-22,0.2c-1.6,0-3,0.4-4.3,1.5
	c-1.5,1.3-2.3,2.8-2.3,4.8c-0.1,5.6-0.2,11.2,0,16.9c0.1,3.8,2.6,6.2,6.4,6.4c8,0.3,15.9,0,23.9,0c2.1,0,4.2-1.9,4.6-3.9
	c0.2-1.2,0.2-2.5,0.2-3.7c0-0.7,0.1-1,0.9-0.9c1.2,0.1,2.4,0,3.6,0c0.5,0,0.8,0,0.7,0.7c-0.2,1.9-0.1,3.9-0.5,5.8
	c-0.7,3.6-3.3,5.8-7.3,6.3c-3.6,0.5-7.2,0.3-10.9,0.3c-5.5,0-11,0-16.5-0.1c-2.8,0-5.3-1.1-7.4-3.1c-1.9-1.8-2.8-4-2.9-6.4
	c-0.4-6.5-0.3-13,0-19.5c0.2-4.7,3.8-8.4,8.7-9.2c0.3,0,0.6,0.1,0.7-0.3c0.6,0,1.2,0,1.8,0c0.7,0.3,1.4,0.1,2.1,0.1
	c0.6,0,1.2,0,1.8,0c1.4,0,2.8,0,4.2,0c2.1,0,4.3,0,6.4,0c0.9,0,1.9,0,2.8,0c0.8,0,1.7,0,2.5,0c0.8,0,1.7,0,2.5,0c0.9,0,1.8,0,2.7,0
	C337.8,172.5,338.4,172.4,338.9,172.5z"/>
<path class="st1" d="M508.7,210.3c-1.6,0-3.3,0-4.9,0.1c-0.7,0-1.1-0.2-1.4-0.8c-1.2-2.1-2.5-4.2-3.7-6.4c-0.3-0.5-0.6-0.8-1.3-0.7
	c-9.5,0.1-19,0.1-28.5,0.2c-0.7,0-1,0.3-1.2,0.8c-1.2,2.1-2.4,4.1-3.6,6.1c-0.3,0.6-0.7,0.8-1.4,0.8c-1.6-0.1-3.2,0-4.8,0
	c-0.1-0.6,0.2-0.9,0.4-1.2c7-11.9,14.1-23.8,21.1-35.8c0.3-0.6,0.7-0.9,1.5-0.9c1.5,0.1,3.1,0.1,4.6,0c0.8,0,1.2,0.3,1.7,1
	c5.5,9.3,11,18.5,16.5,27.8c1.7,2.8,3.4,5.6,5,8.5C508.7,210,508.7,210.1,508.7,210.3z"/>
<path class="st1" d="M508.7,251.6c-1.2,3.3-3.9,4.5-7.2,4.8c-6,0.4-12.1,0.5-18.1,0c-1.5-0.1-2.9-0.6-4.2-1.4
	c-1.6-1-2.5-2.4-2.6-4.3c0-1-0.1-2-0.2-3c-0.1-0.6,0.1-0.9,0.8-0.8c1,0.1,2.3-0.2,3.1,0.2c0.8,0.5,0.3,1.8,0.5,2.8
	c0.4,1.8,1.1,2.7,3.1,2.8c5.7,0.4,11.3,0.4,17,0c2.4-0.2,3.3-1.1,3.6-3.5c0.1-0.6,0.1-1.3,0.1-1.9c-0.2-2.1-0.9-2.8-3-2.9
	c-4.5-0.2-8.9-0.3-13.4-0.5c-1.7-0.1-3.4-0.2-5.1-0.3c-4.2-0.3-6.4-2.6-6.6-6.8c-0.3-5.9,1.8-8.4,7.7-9c6-0.6,12.1-0.6,18.1,0.2
	c4.4,0.6,6.2,3.2,6.1,7.6c0,0.6-0.2,0.9-0.9,0.9c-0.2,0-0.4,0-0.6,0c-0.8,0-1.8,0.2-2.5-0.1c-0.7-0.4-0.2-1.4-0.4-2.2
	c-0.3-1.4-1.3-2.5-3-2.5c-5.7-0.2-11.4-0.4-17.1,0.2c-2.1,0.2-2.9,1.2-3,3.3c0,0.5,0,1,0,1.5c0.1,1.9,0.9,2.8,2.8,3
	c1.7,0.1,3.5,0.2,5.2,0.3c4.6,0.1,9.2-0.1,13.7,0.5c2.8,0.4,5.3,1.4,6.2,4.5C508.7,247.1,508.7,249.3,508.7,251.6z"/>
<path class="st1" d="M508.7,291.3c-4.8,0-9.6-0.1-14.4-0.1c-1.8,0-1.8,0-1.8-1.8c0-4.9,0-9.9,0-14.8c0-1,0.2-1.4,1.3-1.3
	c1.8,0.1,1.8,0,1.8,1.8c0,4,0.1,8,0,12c0,1.3,0.4,1.5,1.5,1.5c3.9-0.1,7.7,0,11.6,0C508.7,289.5,508.7,290.4,508.7,291.3z"/>
<path class="st0" d="M119,172.3c-0.3,0.4-0.8,0.2-1.2,0.2c-5.2,0-10.4,0-15.6,0c-0.1-0.1-0.1-0.1-0.1-0.2c0-0.1,0.1-0.1,0.1-0.1
	C107.8,172.3,113.4,172.3,119,172.3z"/>
<path class="st0" d="M217.2,172.5c-3,0-6,0-9,0c-0.1-0.1-0.1-0.1-0.1-0.1c0,0,0.1-0.1,0.1-0.1c3,0,6,0,9,0
	C217.2,172.4,217.3,172.4,217.2,172.5C217.2,172.5,217.2,172.5,217.2,172.5z"/>
<path class="st2" d="M326.9,172.5c-2.2,0-4.3,0-6.5,0c-0.1,0-0.1-0.1-0.1-0.1c0-0.1,0.1-0.1,0.1-0.1c2.2,0,4.3,0,6.5,0
	C326.9,172.4,327,172.4,326.9,172.5C326.9,172.5,326.9,172.5,326.9,172.5z"/>
<path class="st3" d="M273.5,172.6c-2.1,0-4.2,0-6.3,0c-0.1-0.1-0.1-0.1-0.1-0.2c0-0.1,0.1-0.1,0.1-0.1c2.1,0,4.2,0,6.3,0
	C273.6,172.4,273.6,172.4,273.5,172.6C273.6,172.5,273.5,172.6,273.5,172.6z"/>
<path class="st0" d="M91.4,172.5c-1.8,0-3.7,0-5.5,0c-0.1-0.1-0.1-0.1-0.1-0.2c0,0,0.1-0.1,0.1-0.1c1.8,0,3.7,0,5.5,0
	C91.5,172.4,91.5,172.4,91.4,172.5C91.5,172.5,91.4,172.5,91.4,172.5z"/>
<path class="st0" d="M102.2,172.3c0,0.1,0,0.2,0,0.2c-1.8,0-3.7,0-5.5,0c-0.1-0.1-0.1-0.1-0.1-0.2c0-0.1,0.1-0.1,0.1-0.1
	C98.5,172.3,100.4,172.3,102.2,172.3z"/>
<path class="st0" d="M96.7,172.3c0,0.1,0,0.2,0,0.2c-1.8,0-3.5,0-5.3,0c0-0.1,0-0.2,0-0.2C93.2,172.3,94.9,172.3,96.7,172.3z"/>
<path class="st0" d="M85.9,172.3c0,0.1,0,0.1,0,0.2c-1.6,0-3.2,0-4.8,0c-0.1-0.1-0.1-0.1-0.1-0.1c0,0,0.1-0.1,0.1-0.1
	C82.7,172.3,84.3,172.3,85.9,172.3z"/>
<path class="st0" d="M231.2,172.6c-1.6,0-3.2,0-4.7-0.1c-0.1,0-0.1-0.1-0.1-0.1c0,0,0.1-0.1,0.1-0.1c1.6,0,3.2,0,4.8,0
	C231.2,172.4,231.2,172.5,231.2,172.6z"/>
<path class="st4" d="M320.3,172.3c0,0.1,0,0.2,0,0.2c-1.4,0-2.9,0-4.3,0c-0.1-0.1-0.1-0.1-0.1-0.2c0-0.1,0.1-0.1,0.1-0.1
	C317.5,172.3,318.9,172.3,320.3,172.3z"/>
<path class="st0" d="M81.2,172.3c0,0.1,0,0.1,0,0.2c-1.3,0-2.7,0-4,0c-0.1-0.1-0.1-0.1-0.1-0.1c0,0,0.1-0.1,0.1-0.1
	C78.5,172.3,79.8,172.3,81.2,172.3z"/>
<path class="st0" d="M75.1,172.5c-1.1,0-2.2,0-3.3,0c-0.1,0-0.1-0.1-0.1-0.1c0,0,0.1-0.1,0.1-0.1c1.1,0,2.2,0,3.3,0
	C75.2,172.4,75.2,172.4,75.1,172.5C75.2,172.5,75.2,172.5,75.1,172.5z"/>
<path class="st0" d="M208.1,172.3c0,0.1,0,0.1,0,0.2c-1.1,0-2.2,0-3.3,0c-0.1-0.1-0.1-0.1-0.1-0.2c0,0,0.1-0.1,0.1-0.1
	C206,172.3,207,172.3,208.1,172.3z"/>
<path class="st0" d="M217.2,172.5c0-0.1,0-0.1,0-0.2c1.1,0,2.2,0,3.3,0c0.1,0,0.1,0.1,0.1,0.1c0,0.1-0.1,0.1-0.1,0.1
	C219.3,172.5,218.2,172.5,217.2,172.5z"/>
<path class="st0" d="M220.4,172.5c0-0.1,0-0.1,0-0.2c1,0,2,0,3,0c0.1,0,0.1,0.1,0.1,0.1c0,0-0.1,0.1-0.1,0.1
	C222.4,172.5,221.4,172.5,220.4,172.5z"/>
<path class="st0" d="M223.4,172.5c0-0.1,0-0.1,0-0.2c1,0,2,0,3,0c0,0.1,0,0.1,0,0.2C225.4,172.5,224.4,172.5,223.4,172.5z"/>
<path class="st5" d="M326.9,172.5c0-0.1,0-0.1,0-0.2c0.9,0,1.8,0,2.8,0c0.1,0,0.1,0.1,0.1,0.1c0,0,0,0.1-0.1,0.1
	C328.7,172.5,327.8,172.5,326.9,172.5z"/>
<path class="st6" d="M337.4,172.5c-0.9,0-1.8,0-2.8,0c-0.1,0-0.1-0.1-0.1-0.1c0,0,0.1-0.1,0.1-0.1c0.9,0,1.8,0,2.8,0
	C337.4,172.4,337.5,172.4,337.4,172.5C337.4,172.5,337.4,172.5,337.4,172.5z"/>
<path class="st7" d="M329.6,172.5c0-0.1,0-0.1,0-0.2c0.8,0,1.7,0,2.5,0c0.1,0,0.1,0.1,0.1,0.1c0,0,0,0.1-0.1,0.1
	C331.3,172.5,330.4,172.5,329.6,172.5z"/>
<path class="st8" d="M332.1,172.5c0-0.1,0-0.1,0-0.2c0.8,0,1.7,0,2.5,0c0,0.1,0,0.1,0,0.2C333.8,172.5,333,172.5,332.1,172.5z"/>
<path class="st9" d="M265.5,172.6c-0.7-0.1-1.5,0.3-2.2-0.2c0.8,0,1.5,0,2.3,0C265.6,172.4,265.6,172.4,265.5,172.6
	C265.5,172.5,265.5,172.6,265.5,172.6z"/>
<path class="st0" d="M204.9,172.3c0,0.1,0,0.1,0,0.2c-0.7-0.1-1.4,0.3-2-0.2C203.5,172.3,204.2,172.3,204.9,172.3z"/>
<path class="st0" d="M75.1,172.5c0-0.1,0-0.1,0-0.2c0.7,0,1.3,0,2,0c0,0.1,0,0.1,0,0.2C76.5,172.5,75.8,172.5,75.1,172.5z"/>
<path class="st9" d="M277.5,172.5c-0.7,0-1.3,0-2,0c-0.1,0-0.1-0.1-0.1-0.1c0-0.1,0.1-0.1,0.1-0.1c0.7,0,1.3,0,2,0
	C277.6,172.4,277.6,172.4,277.5,172.5C277.6,172.5,277.6,172.5,277.5,172.5z"/>
<path class="st10" d="M275.5,172.3c0,0.1,0,0.2,0,0.2c-0.7,0-1.3,0-2,0c0-0.1,0-0.2,0-0.2C274.2,172.3,274.8,172.3,275.5,172.3z"/>
<path class="st11" d="M314.3,172.6c-0.7-0.1-1.4,0.3-2-0.2c0.7,0,1.3,0,2,0C314.4,172.4,314.4,172.4,314.3,172.6
	C314.4,172.5,314.4,172.6,314.3,172.6z"/>
<path class="st12" d="M71.9,172.3c0,0.1,0,0.1,0,0.2c-0.6,0-1.2,0-1.8,0c0-0.1,0-0.1,0-0.2C70.7,172.3,71.3,172.3,71.9,172.3z"/>
<path class="st13" d="M265.5,172.6c0-0.1,0-0.2,0-0.2c0.6,0,1.2,0,1.8,0c0,0.1,0,0.2,0,0.2C266.7,172.6,266.1,172.6,265.5,172.6z"/>
<path class="st14" d="M277.5,172.5c0-0.1,0-0.1,0-0.2c0.6,0,1.2,0,1.8,0C278.7,172.9,278.1,172.4,277.5,172.5z"/>
<path class="st15" d="M314.3,172.6c0-0.1,0-0.2,0-0.2c0.6,0,1.2,0,1.8,0c0,0.1,0,0.2,0,0.2C315.5,172.6,314.9,172.6,314.3,172.6z"/>
<path class="st16" d="M337.4,172.5c0-0.1,0-0.1,0-0.2c0.5,0,1,0,1.5,0c0,0.1,0,0.1,0,0.2C338.4,172.5,337.9,172.5,337.4,172.5z"/>
<path class="st17" d="M261.5,172.3c-0.3,0.3-0.7,0.4-1,0C260.8,172.3,261.1,172.3,261.5,172.3z"/>
<path class="st1" d="M408.9,191.5c0-5.9,0-11.8,0-17.7c0-0.9,0.2-1.2,1.2-1.2c11.5,0.1,22.9,0.1,34.4,0.2c3.2,0,6.5,3.5,6.8,7.2
	c0.1,2,0.1,4.1-0.2,6.1c-0.3,2.2-2,3.1-3.8,3.9c-0.2,0.1-0.4,0.1-0.5,0.2c0.1,0.2,0.3,0.3,0.5,0.3c0,0,0.1,0,0.1,0
	c4,1,5.6,3.7,5.5,8.2c0,1,0,2.1,0,3.1c-0.1,4.4-2.8,7.5-7.2,8.2c-2.7,0.4-5.3,0.3-8,0.3c-9.2,0.1-18.4,0-27.7,0.1
	c-0.9,0-1.1-0.3-1.1-1.1C408.9,203.4,408.9,197.4,408.9,191.5z"/>
<path class="st1" d="M399,188.6c0,4.7,0,9.5,0,14.2c0,3.2-1.6,5.4-4.5,6.8c-1.6,0.8-3.4,1.1-5.2,1.2c-8.3,0.3-16.7,0.3-25,0
	c-2.3-0.1-4.4-0.7-6.4-1.9c-1.8-1.1-2.8-2.7-3.1-4.8c-0.3-2-0.2-4.1-0.3-6.1c0-8,0-16.1-0.1-24.1c0-0.9,0.2-1.3,1.2-1.2
	c1,0.1,2,0,3-0.1c0.9-0.1,1.2,0.2,1.2,1.1c0,5.5,0,11,0.1,16.5c0,3.9,0,7.7,0.2,11.6c0.2,2.9,1.1,3.9,4,4.3c2,0.3,4.1,0.2,6.1,0.2
	c5.6,0,11.3,0,16.9,0c0.7,0,1.4,0,2.1-0.1c3-0.4,4.1-1.5,4.2-4.5c0.4-9.2,0.2-18.4,0.3-27.6c0-1.2,0.3-1.6,1.5-1.5
	c1.3,0.2,3.1-0.5,3.8,0.3c0.6,0.7,0.2,2.5,0.2,3.7c0,4,0,8,0,12C399.2,188.6,399.1,188.6,399,188.6z"/>
<path class="st1" d="M265.7,256.6c-2.9-0.1-6.2,0.2-9.6-0.3c-6-0.8-7.1-4.4-6.9-9c0-0.4,0.2-0.6,0.6-0.6c1,0,2,0,3,0
	c0.6,0,0.7,0.2,0.7,0.7c-0.1,4.8,1.2,5,5.3,5c4.5,0.1,9.1,0,13.6,0c0.3,0,0.6,0,0.9,0c3.7-0.2,5.6-3.5,3.9-6.9
	c-0.3-0.7-0.8-1-1.5-1.1c-1.5-0.3-3.1-0.4-4.6-0.4c-4.9-0.1-9.8-0.1-14.6-0.5c-0.8-0.1-1.6-0.2-2.3-0.4c-2.9-0.8-4.3-2.4-4.6-5.3
	c-0.1-0.8-0.2-1.7-0.2-2.5c0-4.5,2.5-7.2,7-7.5c6-0.5,12-0.4,18,0.1c4.7,0.4,7.1,3.2,7.1,7.9c0,0.6-0.1,0.8-0.7,0.7
	c-0.5,0-0.9,0-1.4,0c-0.7,0-1.7,0.2-2.2-0.1c-0.6-0.4-0.2-1.4-0.3-2.1c-0.2-1.4-1-2.3-2.6-2.5c-3.8-0.4-7.7-0.4-11.5-0.3
	c-2.1,0-4.2,0-6.2,0.3c-1.5,0.2-2.4,1.1-2.8,2.5c-0.3,0.9-0.2,1.9-0.1,2.9c0.1,1.2,0.8,2,2,2.2c1.7,0.4,3.5,0.4,5.2,0.4
	c4.1,0.1,8.3,0,12.4,0.3c1.6,0.1,3.2,0.4,4.8,1c2.3,0.9,3.6,2.6,3.9,5c0.2,1.5,0.1,3-0.1,4.5c-0.5,3-2.5,5.1-5.6,5.5
	C272.8,256.5,269.5,256.5,265.7,256.6z"/>
<path class="st1" d="M424,256.5c-3.4,0-6.8,0.3-10.2-0.1c-4.7-0.6-7-2.9-7.5-7.6c-0.5-4.9-0.5-9.7,0.2-14.6c0.6-3.7,2.9-6.1,6.6-6.4
	c7.3-0.5,14.6-0.8,21.9-0.1c4.4,0.5,6.8,2.7,7.2,7c0.4,4.8,0.4,9.7,0,14.6c-0.4,4-2.9,6.4-7,6.9c-0.6,0.1-1.2,0.2-1.7,0.2
	C430.3,256.5,427.2,256.5,424,256.5z"/>
<path class="st1" d="M382.9,256.7c-3.6-0.2-7.3,0.1-10.9-0.3c-4.1-0.5-6.8-3.1-7-7.2c-0.3-4.9-0.4-9.9,0.1-14.8
	c0.4-3.5,2.8-6.1,6.3-6.4c7.4-0.6,14.8-0.9,22.2-0.1c4.6,0.5,7.1,3.3,7.4,8c0.2,4.3,0.2,8.6,0,12.9c-0.2,4.2-2.8,7.1-7,7.7
	C390.3,256.8,386.6,256.5,382.9,256.7z"/>
<path class="st1" d="M304.5,256.6c-3.3-0.1-7,0.2-10.6-0.3c-1.6-0.2-3-0.8-4.3-1.8c-1.6-1.3-2.4-2.9-2.5-5c-0.2-5.1-0.2-10.2,0-15.2
	c0.1-3.5,3.5-6.2,6.4-6.4c6.8-0.5,13.6-0.8,20.4-0.1c4.3,0.5,6.2,2.7,6.4,7c0.1,2.5,0.1,2.5-2.5,2.6c-1.1,0-1.4-0.3-1.5-1.3
	c-0.5-4-1-4.5-5.1-4.5c-5.1,0-10.3,0-15.4,0c-3,0-4.6,1.7-4.7,4.7c0,4,0,8,0,12c0,2.5,1.7,4.2,4.1,4.3c5.7,0.2,11.4,0.5,17.1,0.1
	c3-0.2,3.8-1,4.1-3.9c0.3-2.5,0.3-2.5,2.8-2.4c1.2,0,1.6,0.4,1.4,1.5c-0.1,1.2-0.1,2.4-0.3,3.6c-0.4,2.5-2.1,4.3-4.7,4.7
	C312.2,256.7,308.5,256.5,304.5,256.6z"/>
<path class="st1" d="M325.9,242c0-4.3,0.1-8.7,0-13c0-1.2,0.4-1.5,1.5-1.3c0.1,0,0.2,0,0.2,0c2.8,0.1,2.8,0.1,2.8,3
	c0,2.7,0.1,5.4,0.1,8.1c0,0.8,0.2,1,1,1c7.5,0,14.9,0,22.4,0c0.7,0,0.9-0.3,0.9-0.9c0-3.4,0.1-6.7,0.1-10.1c0-0.8,0.2-1,1-1
	c1.1,0.1,2.5-0.5,3.1,0.2c0.5,0.6,0.2,2,0.2,3c0,8,0,16.1,0.1,24.1c0,0.9-0.2,1.3-1.2,1.2c-1.1-0.1-2.5,0.3-3.1-0.2
	c-0.7-0.6-0.2-2-0.2-3.1c0-2.9,0-5.8,0-8.7c0-0.8-0.2-1-1-1c-7.4,0-14.9,0-22.3,0c-0.9,0-1,0.3-1,1.1c0,3.6-0.1,7.2-0.1,10.7
	c0,0.9-0.2,1.2-1.1,1.1c-1.1-0.1-2.5,0.4-3.1-0.1c-0.7-0.6-0.2-2-0.2-3.1C325.9,249.4,325.9,245.7,325.9,242z"/>
<path class="st1" d="M448.1,241.9c0-4.3,0-8.7,0-13c0-0.9,0.2-1.2,1.1-1.1c1.1,0.1,2.5-0.5,3.1,0.1c0.7,0.6,0.2,2.1,0.2,3.2
	c0,6.7,0,13.5,0,20.2c0,1,0.3,1.2,1.2,1.2c6.4,0,12.8,0,19.1,0c0.9,0,1.2,0.2,1.2,1.2c-0.1,2.7,0,2.8-2.7,2.7
	c-7.1,0-14.3,0-21.4-0.1c-1.9,0-1.9,0-1.9-1.9C448.1,250.2,448.1,246.1,448.1,241.9C448.1,241.9,448.1,241.9,448.1,241.9z"/>
<path class="st1" d="M429.3,291.3c-2.1,0-4.2,0-6.3,0c-3-0.1-5-1.9-5.2-4.9c-0.2-2.9-0.2-5.8,0.2-8.7c0.3-2.5,1.7-4,4.1-4.3
	c4.7-0.5,9.3-0.5,14,0c2.4,0.2,3.8,1.7,4.3,4.1c0.6,3.3,0.6,6.6,0,9.9c-0.5,2.7-2.2,4-4.9,4C433.3,291.3,431.3,291.3,429.3,291.3
	C429.3,291.3,429.3,291.3,429.3,291.3z"/>
<path class="st1" d="M321.1,282.2c0-2.6,0-5.2,0-7.9c0-0.6,0-1,0.8-1c5,0.1,10.1-0.1,15.1,0.2c3,0.2,4.2,1.4,4.3,4.4
	c0,1.8,0.3,3.7-1.2,5.2c-0.4,0.3,0.1,0.7,0.3,1c1.4,2.1,0.8,4.5,1,6.8c0,0.3-0.2,0.4-0.5,0.4c-2.1,0.4-2.5,0.1-2.6-2
	c0-0.7-0.1-1.5-0.1-2.2c-0.1-1.6-0.5-2.1-2.1-2.2c-3.7-0.4-7.4-0.1-11.1-0.2c-0.7,0-0.6,0.4-0.6,0.8c0,1.7,0,3.3,0,5
	c0,0.6-0.2,0.8-0.8,0.9c-2.5,0.1-2.5,0.1-2.5-2.3C321.1,286.7,321.1,284.4,321.1,282.2z"/>
<path class="st1" d="M446.5,277.1c0,3.9,0,7.7,0,11.5c0,0.2,0,0.5,0,0.7c0,1.8-0.8,2.3-2.6,1.8c-0.5-0.1-0.4-0.4-0.4-0.8
	c0-5.5,0-10.9,0-16.4c0-0.6,0.2-0.8,0.8-0.8c0.7,0,1.5,0.1,2.3,0c0.7-0.1,1.2,0.2,1.8,0.7c4.6,4.5,9.3,8.9,13.9,13.3
	c0.4-0.2,0.2-0.6,0.2-0.9c0.1-4,0.2-8,0.2-12c0-0.9,0.2-1.2,1.2-1.2c2.2,0.1,2.2,0,2.2,2.1c0,4.9,0,9.8,0,14.7c0,0.8-0.2,1-1,1.1
	c-2.5,0.3-4.2-0.7-5.9-2.4c-3.7-3.8-7.5-7.3-11.3-11C447.4,277.6,447.2,277.2,446.5,277.1z"/>
<path class="st1" d="M258.6,277.2c0,4.3-0.1,8.6,0,12.8c0,1.7-1.1,1.1-1.9,1.2c-1.1,0.2-1.2-0.4-1.2-1.3c0-5.2,0-10.3,0-15.5
	c0-1,0.3-1.1,1.2-1.2c2-0.1,3.5,0.4,4.9,1.9c4.1,4.1,8.4,8.1,12.6,12.1c0.4-0.3,0.2-0.7,0.2-1c0.1-4,0.2-7.9,0.2-11.9
	c0-0.9,0.1-1.2,1.1-1.2c2.2,0.1,2.2,0,2.2,2.2c0,4.8,0,9.7,0,14.5c0,0.9-0.1,1.1-1.1,1.2c-2.3,0.2-3.9-0.5-5.5-2.2
	c-3.8-3.8-7.7-7.5-11.6-11.2c-0.3-0.3-0.6-0.5-0.9-0.8C258.9,277.1,258.8,277.1,258.6,277.2z"/>
<path class="st1" d="M347.4,277.4c0,4.2,0,8.5,0,12.7c0,0.9-0.2,1.1-1.1,1.1c-2.2,0-2.2,0-2.2-2.2c0-4.8,0-9.7,0-14.5
	c0-1,0.3-1.1,1.3-1.2c2.1-0.2,3.6,0.5,5,2c3.9,4,8,7.8,12.1,11.6c0.2,0.2,0.5,0.4,0.7,0.6c0.3-0.4,0.2-0.9,0.2-1.3
	c0-4,0.1-7.9,0.1-11.9c0-0.9,0.2-1.2,1.1-1.1c0.3,0.1,0.7,0,1,0c0.8-0.1,1,0.2,1,1c0,5.3,0,10.6,0,15.9c0,0.8-0.2,1-1,1.1
	c-2.2,0.2-3.8-0.5-5.4-2.1c-4-4.1-8.2-7.9-12.3-11.9C347.7,277.3,347.5,277.4,347.4,277.4z"/>
<path class="st1" d="M301,282.3c0-2.6,0-5.2,0-7.9c0-0.8,0.1-1.1,1-1.1c5.3,0,10.6,0.1,15.9,0c1.5,0,0.9,0.9,1,1.6
	c0.1,0.7,0.1,1.2-1,1.2c-4.1-0.1-8.3,0-12.4-0.1c-1,0-1.3,0.3-1.2,1.3c0.1,0.8,0.1,1.6,0,2.4c-0.1,0.8,0.3,1,1,1
	c4,0,7.9,0.1,11.9-0.1c1.3,0,1.1,0.7,1.1,1.5c0,0.8,0.1,1.3-1.1,1.3c-3.9-0.1-7.8,0-11.8-0.1c-0.9,0-1.2,0.2-1.1,1.1
	c0.1,1,0.1,2,0,3c-0.1,1,0.3,1.2,1.2,1.1c4.1,0,8.2,0,12.3-0.1c1.2,0,1.1,0.5,1.1,1.3c0,0.8,0.1,1.5-1.2,1.4
	c-5.2-0.1-10.4-0.1-15.6,0c-0.9,0-1.1-0.3-1.1-1.1C301.1,287.5,301,284.9,301,282.3z"/>
<path class="st1" d="M466.8,291.2c0.6-1,1-1.8,1.5-2.6c2.8-4.7,5.6-9.4,8.3-14.2c0.5-0.8,1-1.1,1.9-1c0.5,0.1,1,0.1,1.5,0
	c0.7-0.1,1,0.2,1.4,0.8c3.1,5.3,6.3,10.7,9.4,16c0.6,0.9,0.4,1-0.6,1.1c-1.8,0.2-3-0.4-3.6-2.1c-0.4-1.3-1.3-1.6-2.6-1.6
	c-3.5,0.1-7.1,0.1-10.6,0c-0.7,0-1.1,0.2-1.3,0.8c0,0.1-0.1,0.2-0.1,0.2C470.3,291.4,470.3,291.4,466.8,291.2z"/>
<path class="st1" d="M391.9,291c-0.2,0.1-0.3,0.1-0.4,0.1c-2.9,0.4-3,0.4-4.3-2.2c-0.5-1.1-1.2-1.4-2.4-1.4c-3.5,0.1-7.1,0.1-10.6,0
	c-0.7,0-1.2,0.1-1.5,0.8c-0.8,2.2-2.3,3.1-4.6,2.8c-0.2,0-0.3,0-0.5,0c-0.1-0.4,0.2-0.7,0.4-1c3.2-5.3,6.3-10.6,9.5-16
	c0.4-0.7,0.9-0.8,1.7-0.9c1.7-0.2,2.7,0.4,3.6,2c2.7,4.9,5.6,9.6,8.4,14.4C391.4,290.1,391.6,290.5,391.9,291z"/>
<path class="st1" d="M289.5,273.3c3.1,0,6.2,0,9.3,0c0.8,0,1.1,0.2,1.1,1c0,1.7,0,1.7-1.7,1.7c-2,0-4.1,0-6.1,0c-0.8,0-1,0.2-1,1
	c0,4.3,0,8.6,0,12.9c0,1-0.2,1.4-1.3,1.3c-1.8-0.1-1.8,0-1.8-1.8c0-4.1,0-8.2,0-12.4c0-0.8-0.2-1.1-1-1c-2.3,0.1-4.5,0-6.8,0
	c-0.8,0-1.1-0.1-1.1-1c0.1-1.7,0-1.7,1.8-1.7C283.9,273.3,286.7,273.3,289.5,273.3z"/>
<path class="st1" d="M399.9,273.3c3.1,0,6.2,0.1,9.3,0c1.5,0,0.9,1,1,1.6c0.1,0.7,0,1.2-1,1.2c-2.2-0.1-4.5,0-6.7-0.1
	c-0.9,0-1.1,0.3-1.1,1.1c0,4.3,0,8.6,0,12.9c0,1-0.3,1.4-1.3,1.2c-0.1,0-0.3,0-0.4,0c-1.1,0.2-1.5-0.2-1.5-1.4
	c0.1-4.2,0-8.4,0.1-12.6c0-1-0.3-1.2-1.2-1.2c-2,0.1-4.1,0-6.1,0c-1,0-1.5-0.1-1.5-1.3c0-1.3,0.5-1.5,1.6-1.4
	C394,273.4,396.9,273.3,399.9,273.3z"/>
<path class="st1" d="M223.7,291.3c-4,0.5-7.4-3.6-7.4-7.4c0-4.1,3.4-7.4,7.5-7.5c4.1,0,7.5,3.4,7.5,7.6
	C231.3,288.1,227.7,291.8,223.7,291.3z"/>
<path class="st1" d="M411.6,282.2c0-2.6,0-5.2,0-7.7c0-0.8,0.2-1.2,1.1-1.1c2,0.1,2,0,2,2c0,4.9,0,9.8,0,14.7c0,0.9-0.2,1.4-1.2,1.3
	c-0.2,0-0.5,0-0.7,0c-0.8,0.1-1.2-0.2-1.1-1.1C411.7,287.5,411.6,284.8,411.6,282.2z"/>
<path class="st1" d="M252.2,282.3c0,2.6,0,5.2,0,7.9c0,0.9-0.2,1.2-1.1,1.1c-0.3,0-0.7,0-1,0c-0.8,0.1-1-0.2-1-1
	c0-5.3,0-10.6,0-15.8c0-0.9,0.2-1.2,1.1-1.1c0.3,0,0.7,0,1,0c0.8-0.1,1,0.2,1,1C252.2,277,252.2,279.6,252.2,282.3z"/>
<path class="st18" d="M85.2,198.8c5.4-0.2,10.8-0.3,16.1,0c0.8,0,1.2,0,0.9,1.1c-3.3,9.2-1.6,17.5,4.6,24.8
	c5.5,6.5,11.6,12.3,17.3,18.6c1.5,1.6,2.9,3.2,4.2,4.9c2.9,4,2.5,11.8-3.3,15c-4.8,2.6-11.1,2-15.2-1.7
	c-5.7-5.2-10.9-10.9-16.2-16.5c-9.1-9.6-18.3-19.1-27.2-28.8c-1.7-1.8-3.3-3.6-4.7-5.7c-2.7-3.9-1.3-8.8,3.1-10.7
	c1.7-0.7,3.4-1,5.2-1C75.1,198.8,80.1,198.8,85.2,198.8z"/>
<path class="st18" d="M495.5,197.9c-8.2,0.3-16.2,0.3-24.5,0c4.1-7,8.1-13.7,12.2-20.6C487.4,184.1,491.4,190.9,495.5,197.9z"/>
<path class="st18" d="M429.4,193.1c4.7,0.2,9.4,0,14.1,0.4c2.2,0.2,3.3,1.1,3.6,3.2c0.3,1.9,0.3,3.8,0,5.7c-0.3,2.2-1.5,3.2-3.7,3.3
	c-5,0.4-10.1,0.2-15.1,0.3c-4.3,0.1-8.7,0.1-13,0.1c-0.8,0-1.1-0.2-1.1-1c0-3.7,0-7.4,0-11.1c0-0.9,0.3-1,1.1-1
	C420.1,193.2,424.7,193.1,429.4,193.1z"/>
<path class="st18" d="M428.8,177.3c4.3,0,8.6,0,12.9,0c3.1,0,4.4,1.4,4.4,4.4c0,0.7,0,1.5,0,2.2c-0.2,3-1.5,4.4-4.5,4.5
	c-2.8,0.1-5.6,0.1-8.4,0.1c-5.9,0-11.8,0-17.6,0c-0.9,0-1.2-0.2-1.2-1.1c0.1-3.1,0.1-6.2,0-9.2c0-1,0.3-1.2,1.2-1.1
	c4.4,0,8.8,0,13.3,0C428.8,177.2,428.8,177.2,428.8,177.3z"/>
<path class="st18" d="M424.1,231.6c3,0,6.1-0.1,9.1,0c3.2,0.1,4.5,1.3,4.6,4.5c0.2,4.1,0.2,8.2-0.1,12.4c-0.2,2.6-1.4,4-4,4.1
	c-6.2,0.2-12.3,0.5-18.5,0c-0.6,0-1.2-0.1-1.7-0.3c-1.7-0.4-2.7-1.5-2.8-3.4c-0.4-4.6-0.3-9.2,0-13.9c0.1-1.9,2-3.4,4.1-3.5
	C417.9,231.5,421,231.6,424.1,231.6z"/>
<path class="st18" d="M382.8,252.6c-3,0-6.1,0-9.1,0c-2.5,0-4.1-1.5-4.3-4c-0.3-4.3-0.3-8.7,0-13c0.2-2.4,1.7-3.9,4.1-4
	c6.3-0.4,12.5-0.4,18.8,0c2.4,0.1,4,1.6,4.2,4.1c0.3,4.3,0.4,8.7,0,13c-0.2,2.4-1.9,3.9-4.3,4C389.1,252.6,386,252.6,382.8,252.6
	C382.8,252.6,382.8,252.6,382.8,252.6z"/>
<path class="st18" d="M429.2,288.6c-1.9,0.2-3.8,0.2-5.8,0c-1.7-0.2-2.3-0.7-2.5-2.3c-0.3-2.6-0.3-5.2,0-7.7
	c0.2-1.9,0.8-2.3,2.7-2.4c1.9-0.1,3.8-0.1,5.8-0.2c1.8,0,3.5,0,5.3,0c1.5,0,2.6,0.9,2.6,2.4c0.1,2.7,0.1,5.4,0,8.1
	c0,1.3-0.9,2.1-2.3,2.1C433.1,288.6,431.2,288.6,429.2,288.6z"/>
<path class="st18" d="M330.6,276.3c1.9,0,3.7-0.1,5.6,0c1.7,0.1,2.1,0.6,2.1,2.4c0,2.1-0.5,2.7-2.1,2.9c-3.7,0.3-7.4,0.2-11.1,0.3
	c-0.6,0-0.8-0.2-0.8-0.8c0-1.4,0-2.7,0-4.1c0-0.7,0.2-0.9,0.9-0.9c1.8,0.1,3.6,0,5.4,0C330.6,276.1,330.6,276.2,330.6,276.3z"/>
<path class="st18" d="M479,276.5c1.7,2.8,3.3,5.5,4.9,8.3c-3.3,0-6.5,0-9.8,0C475.8,282,477.4,279.3,479,276.5z"/>
<path class="st18" d="M379.8,276.5c1.7,2.9,3.2,5.5,4.9,8.2c-3.1,0-6,0-8.9,0c-0.5,0-0.8-0.2-0.4-0.7
	C376.8,281.6,378.2,279.2,379.8,276.5z"/>
<path class="st19" d="M223.8,289.6c-3.1,0-5.5-2.5-5.5-5.7c0-3.2,2.4-5.7,5.5-5.7c3.1,0,5.7,2.5,5.7,5.6
	C229.5,286.9,226.9,289.6,223.8,289.6z"/>
<path class="st1" d="M225.7,284.9c0.5,0.8,0.9,1.5,1.4,2.2c0.4,0.6,0.1,0.7-0.4,0.7c-0.7,0-1.3-0.1-1.7-0.8
	c-0.1-0.1-0.2-0.3-0.3-0.4c-0.4-0.6-0.7-1.8-1.5-1.7c-0.9,0.1-0.6,1.3-0.7,2c-0.1,1-0.9,0.8-1.5,0.9c-0.8,0.1-0.5-0.6-0.5-1
	c0-2,0-4,0-6c0-0.7,0.2-0.9,0.8-0.8c1.1,0.1,2.2,0,3.3,0c1.9,0,2.7,0.4,2.9,1.5C227.8,283,227.3,284,225.7,284.9z"/>
<path class="st20" d="M224.1,283.1c-0.7-0.1-1.6,0.2-1.5-0.9c0-0.8,0.6-0.7,1.1-0.6c0.7,0.1,1.8-0.2,1.9,0.9
	C225.5,283.5,224.5,282.8,224.1,283.1z"/>
</svg>
