<?xml version="1.0" encoding="utf-8"?>
<!-- Generator: Adobe Illustrator 26.0.2, SVG Export Plug-In . SVG Version: 6.00 Build 0)  -->
<svg version="1.1" id="Layer_1" xmlns="http://www.w3.org/2000/svg" xmlns:xlink="http://www.w3.org/1999/xlink" x="0px" y="0px"
	 viewBox="0 0 512 512" style="enable-background:new 0 0 512 512;" xml:space="preserve">
<style type="text/css">
	.st0{fill:#717171;}
	.st1{fill:#515151;}
	.st2{fill:#363636;}
	.st3{fill:#D3EFFC;}
	.st4{fill:#94D8F6;}
	.st5{fill:#F9F0B0;}
	.st6{fill:#F7E880;}
</style>
<path d="M237,511.9c-6.7-2.6-13.8-2.3-20.7-3.8C142.5,492.9,91.4,450.5,68,378.8c-25.7-78.7-9.7-151,40.8-215.9
	c10.4-13.3,29-10.8,36.5,4.4c1.8,3.7,3.6,7.5,6.1,10.8c1.5,2,3.1,3.6,5.8,2.9c2.8-0.8,3-3.1,3.1-5.6c0.8-21.5,3.8-42.7,9.7-63.5
	c6.2-21.9,15.1-42.5,26.9-62c3.4-5.5,6-6.5,12.5-4.7c4.6,1.2,5.1,4.7,5.1,8.6c0,2.6-1.2,4.8-2.6,7c-18.6,30.8-28.8,64.3-32.3,99.9
	c-0.6,5.8-1,11.6-1.2,17.4c-0.5,9.7-5.8,16.8-15.3,20.1c-8.8,3.1-18.6,0.5-24.5-6.6c-3.2-3.8-5.9-8.1-8.1-12.6
	c-3.5-7-5.4-7.2-10.1-1.3c-23.3,29.9-37.4,63.7-42.9,101c-5.1,34.8-1.9,68.7,10.3,101.8c1.3,3.6,3.1,7,4.4,10.6
	c8.3,19.2,19.8,36.3,34.6,51c20.8,20.6,45.5,35.1,73.7,43.4c19.8,5.8,40,8.9,60.6,8c44.1-1.8,83.9-15.2,117.2-45.2
	c32.3-29,49.6-65.8,56.1-108.1c5.1-33.3,1.9-66.1-8.5-98.1c-7.7-23.4-19-45.1-34.4-64.4c-4.4-5.6-6.8-5.3-10,1.1
	c-3,6-6.7,11.5-11.4,16.3c-6.1,6.3-13.4,8.6-21.8,6.4c-9.2-2.4-15.1-8.4-16.9-17.8c-1.7-8.7-2.8-17.4-5.1-26
	c-6.4-23.8-18.2-44.1-37.5-59.9c-12.5-10.2-24.5-21.1-31.1-36.5c-1.3-3.1-2.6-6.1-3.9-9.2c-2.7-8.9-4.6-18-5.2-27.3
	c-0.3-5.9-1.8-6.7-7.1-4.2c-6,2.8-9.4,2.1-12.3-2.6c-2.9-7.2-1.3-11.2,6.1-15.3c1.8-1,3.8-1.8,5.7-2.6c2.7,0,5.3,0,8,0
	c13.7,4.8,17,9.8,18.1,25c1.4,20,8.6,37.5,24.2,50.8c4.9,4.2,9.9,8.4,14.8,12.7c24.3,22,36.3,50.3,41.8,81.9
	c0.5,2.6,0.8,5.3,1.1,7.9c0.3,2.4,0.9,4.7,3.6,5.5c2.5,0.8,4-0.9,5.5-2.6c3.4-3.9,6-8.4,8.2-13c8-16.6,26.6-18.6,38-4.2
	c33.9,42.9,51.9,91.6,51.2,146.3c-0.8,63.4-23,117.7-73,158.6c-30.7,25.1-66.7,38.1-106,42c-1.2,0.1-2.7-0.8-3.5,1c-1,0-2,0-3,0
	c-0.6-0.7-1.4-0.5-2.1-0.5c-0.6,0-1.1,0-1.7,0c-0.7,0-1.5-0.1-2.1,0.5c-5.3,0-10.7,0-16,0c-0.6-0.7-1.4-0.5-2.1-0.5
	c-0.6,0-1.1,0-1.7,0c-0.7,0-1.5-0.1-2.1,0.5C240.3,511.9,238.7,511.9,237,511.9z"/>
<path class="st0" d="M242,511.9c0.3-1.1,1.1-0.9,1.9-0.8c0.4,0.2,0.5,0.3,0.4,0.5s-0.2,0.3-0.3,0.3
	C243.3,511.9,242.7,511.9,242,511.9z"/>
<path class="st1" d="M244,511.9c0-0.3,0-0.6-0.1-0.8c0.7,0,1.3,0,2,0c0.4,0.2,0.5,0.3,0.4,0.5s-0.2,0.3-0.3,0.3
	C245.3,511.9,244.7,511.9,244,511.9z"/>
<path class="st2" d="M246,511.9c0-0.3,0-0.6-0.1-0.9c0.9-0.1,1.6,0,2.1,0.9C247.3,511.9,246.7,511.9,246,511.9z"/>
<path class="st2" d="M264,511.9c0.4-0.9,1.2-1,2.1-0.9c0.3,0.2,0.4,0.4,0.2,0.6c-0.1,0.2-0.2,0.3-0.3,0.3
	C265.3,511.9,264.7,511.9,264,511.9z"/>
<path class="st1" d="M266,511.9c0-0.3,0-0.6,0.1-0.9c0.7,0,1.3,0,2,0c0.3,0.2,0.4,0.4,0.3,0.6s-0.2,0.3-0.3,0.3
	C267.3,511.9,266.7,511.9,266,511.9z"/>
<path class="st0" d="M268,511.9c0-0.3,0-0.6,0.1-0.9c0.8-0.1,1.7-0.3,1.9,0.9C269.3,511.9,268.7,511.9,268,511.9z"/>
<path class="st3" d="M229.2,18c5.5,4.2,7.2,4.2,13.3,0.4c3.9-2.5,7.3-0.9,7.4,3.9c0.3,10.2,2.5,20,5.1,29.7c-0.5,4.5-3,8.1-5.5,11.6
	c-13.9,19.4-21,40.9-21.3,64.9c-0.2,12.7-0.8,25.6-4.4,38.1c-6.3,21.6-18.4,38.9-37.3,51.4c-11.6,7.7-22.1,16.6-30.9,27.5
	c-14.8,18.4-22.1,40.1-26.1,63c-3.1,18.1-2.9,36.5-1.3,54.7c1.5,17.3-12.6,32-30,31c-2.5-0.1-5-0.7-7-2.3
	c-12.2-26.3-17.5-54-17.3-82.8c0.3-49.8,15.9-94.4,46.5-133.7c4.4-5.6,7.4-5.3,10.4,1.2c2.2,4.7,4.8,9.1,8,13.2
	c5.9,7.4,14.4,10.2,23.2,7.5c9.1-2.8,14.8-9.8,15.1-19.5c1.3-37.1,9.4-72.5,26.7-105.5c2.4-4.6,5-9,7.5-13.5c3.3-5.8,2.9-8.9-2-13.6
	C215.5,35.8,222.1,26.7,229.2,18z"/>
<path class="st4" d="M91.3,391.9c8.8,2,17.1,0.9,24.7-4.3c8.1-5.5,12.1-16.4,10.9-26.1c-1.7-13.7-1.3-27.5-0.1-41.2
	c1-12.1,3.6-23.8,7.1-35.4c7-23,19.2-42.5,38.2-57.5c8.6-6.8,17.6-13,25.9-20.1c10.7-9.2,17.5-21.1,22.2-34.3
	c3.8-10.9,5.7-22,6-33.6c0.5-22,2.4-43.8,13.9-63.3c4.8-8.1,9.9-16,14.9-24c6.4,18.2,18.5,32.1,33.5,43.8
	c25,19.6,37.2,46.3,42.5,76.7c0.7,3.8,1.1,7.6,1.8,11.3c1.7,8.5,6.9,13.9,15.1,16.3c8.3,2.4,15.5,0.3,21.4-5.9
	c5.1-5.3,9-11.5,12.2-18.2c2.6-5.6,6-6.1,9.6-1.3c46.9,62.3,60.5,130.9,34.5,204.8c-21.6,61.2-66.8,97.7-130,111
	c-46.3,9.8-90.8,3.4-132.4-19.7C130.3,452.8,106.5,426.2,91.3,391.9z"/>
<path d="M177.1,337.2c-6.4-2.4-7.9-4.5-7.3-11.2c2.9-28.9,15-53.9,33-76.3c2.5-3.1,5.1-6.2,7.9-9.1c7.1-7.6,17.1-9.3,25.9-4.6
	c8.7,4.6,12.9,13.6,10.9,23.6c-2,10-3.6,20-1.6,30.2c0.9,4.6,2.3,9,4.8,13c9.8,15.5,26.8,17.6,39.8,4.7c2.8-2.8,5.1-6.1,7.5-9.3
	c9.6-12.8,28-12.1,36,1.8c30.3,52.7,2.2,121.9-58.6,132.3c-32.3,5.6-61-3.3-84.9-26.1c-5.8-5.6-5.8-9.4-0.6-14.9
	c2.8-3.8,6.3-2.9,9.8-1.4c1.9,0.8,3.2,2.4,4.6,3.7c18.4,17.7,40.5,24,65.5,20.9c22.6-3.3,39.4-15.2,49.8-35.1
	c10.7-20.3,10.9-41.5,2.2-62.8c-0.8-1.9-1.6-3.7-2.7-5.3c-2.6-4.1-4.7-4.3-7.5-0.3c-4.2,5.9-9,11.1-14.9,15.3
	c-18.4,13.1-43.2,9.6-57.3-8.1c-11.2-14.1-13.8-30.3-12.2-47.6c0.2-2.5,0.5-5,1-7.4c0.5-1.9,0.8-3.9,1.2-5.9
	c0.3-1.7,0.3-3.4-1.5-4.3c-1.8-0.9-3.3,0-4.5,1.2c-2.8,2.6-5.1,5.7-7.5,8.7c-14.6,18.9-24.8,39.7-27.6,63.8
	c-0.8,6.7-3.7,10.4-8.2,11.1C178.9,338,177.9,337.9,177.1,337.2z"/>
<path class="st5" d="M177.1,337.2c6.6-0.8,9-3,9.7-9.7c3.2-28.8,16.4-52.9,35.4-74.1c2.9-3.2,6-3.4,7.9-0.8c1.2,1.7,0.8,3.4,0.4,5.2
	c-0.5,1.7-0.9,3.5-1.3,5.3c-3.7,11.1-8.6,21.9-10.3,33.7c-3,21.9,2.5,40.4,20.6,54.4c8.9,6.9,18.5,13,26.4,21.3
	c4.7,4.9,8,10.6,10.4,16.9c2.7,7.1,2,14-1,20.9c-1.1,2.5-2.6,4.7-5.2,5.7c-25.9,3.5-48.6-3.5-67.5-21.6c-3.9-3.7-7.6-5.8-12.8-2.9
	c-6.1-6.9-8.5-15.5-10.7-24.1C176.6,357.3,176.9,347.2,177.1,337.2z"/>
<path class="st6" d="M270,415.8c10.9-13,7.3-28.1-3.6-40.9c-8.6-10.1-20.3-16.4-30.3-24.9c-11.6-9.9-18.4-22.2-19.3-37.7
	c-0.9-16.2,3.5-31.1,9.8-45.7c0.6-1.3,1-2.9,2.4-3.7c-1.2,11.3-1.9,22.5,0.9,33.7c5.5,22.4,23.9,37.4,45.1,36.2
	c14.1-0.8,24.4-8.7,32.9-19.4c1-1.3,1.9-2.7,2.9-4c3.3-4.5,6.3-4.4,9.1,0.4c13.9,24.1,11.7,57.3-5.2,79.7
	C303.5,404.5,288.7,413.5,270,415.8z"/>
</svg>
