<?xml version="1.0" encoding="utf-8"?>
<!-- Generator: Adobe Illustrator 26.0.2, SVG Export Plug-In . SVG Version: 6.00 Build 0)  -->
<svg version="1.1" id="Layer_1" xmlns="http://www.w3.org/2000/svg" xmlns:xlink="http://www.w3.org/1999/xlink" x="0px" y="0px"
	 viewBox="0 0 512 512" style="enable-background:new 0 0 512 512;" xml:space="preserve">
<style type="text/css">
	.st0{fill:#D3EFFC;}
	.st1{fill:#E1E2E8;}
	.st2{fill:#94D8F6;}
	.st3{fill:#F7E880;}
	.st4{fill:#F9F0B0;}
	.st5{fill:#CFF1FB;}
	.st6{fill:#020202;}
	.st7{fill:#010202;}
	.st8{fill:#D7F3FB;}
	.st9{fill:#D8F3FB;}
</style>
<path d="M511.9,267c-8,16.2-16.2,32.2-23.8,48.5c-3.2,6.8-7.1,11.5-15.2,10.8c-2.1,1.5-4.5,1.9-7.1,2.1c-26.4,1.8-52.8,3.9-79.1,5.7
	c-12.8,0.9-25.5,2.3-38.4,2.3c-3.8,0-7.3-0.6-9.7-4c-4.3-6.1-0.8-13.9,7.1-15.5c4.4-0.9,9-0.7,13.4-1.1c16.1-1.1,32.2-2.3,48.3-3.5
	c16.4-1.2,32.9-2.2,49.3-3.6c2-0.2,4-0.5,6-0.3c5.9,0.6,9.2-2.1,11.6-7.4c3.1-7,6.7-13.8,10.3-20.6c2.3-4.8,4.9-9.5,7.1-14.3
	c3.5-7.5-0.5-13-8.8-12.2c-26.8,2.8-53.6,5.7-80.4,8.6c-27.1,2.9-54.3,5.8-81.4,8.8c-35.9,4-71.8,7.9-107.7,11.7
	c-43.4,4.6-86.7,9.2-130,14c-16,1.8-32.1,3.2-48.1,5.2c-13,1.7-18.8,10.5-15.3,23.2c6.6,23.6,13.5,47.1,20.2,70.6
	c2,7.1,6.1,12.1,13.7,13.7c3.8,1.2,7.6,0.6,11.4,0.6c112.3-0.3,224.7,0,337-0.1c2.2,0,4.3,0,6.5-0.1c7.3-0.2,12.6-3.3,16-10
	c6.1-12.2,12.2-24.4,18.3-36.6c1.5-3,3-6,5.5-8.3c3.5-3.3,6.8-3.4,10.5-0.7c5.2,4.5,5.8,7.4,2.8,13.5c-6.8,13.7-13.7,27.3-20.5,40.9
	c-6.5,13-17.3,19.6-31.7,19.6c-117.5,0.1-235.1,0.1-352.6,0c-16.7,0-29.3-9.6-34-25.6c-7.4-25.7-14.6-51.4-21.9-77.1
	c-0.1-0.4-0.6-0.8-0.8-1.1c0-4,0-8,0-12c1.1-2.9,1.9-5.9,3.3-8.7c5.9-12.1,15.7-18.9,29.1-20.4c7.6-0.8,15.1-1.8,22.6-2.8
	c0.3-0.4,0.7-0.8,1.2-1c1.3-0.5,2.6-0.5,3.9-0.5c1.9,0.1,3.7-0.2,5.5-0.7c9.1-1.2,18.2-2,27.2-3.2c23.9-2.1,47.6-5,71.5-7.5
	c29.8-3.2,59.5-6.4,89.3-9.7c26.6-2.9,53.3-5.7,79.9-8.6c5-0.5,9.9-1.1,14.9-1.5c2.5-0.2,3.9-0.8,2.1-3.6
	c-6.4-9.7-12.4-19.7-18.9-29.4c-1.9-2.8-4.2-3.8-7.6-3.5c-9.9,0.9-19.9,1-29.9,1.5c-19.9,1-39.9,1.6-59.8,2.9
	c-6.3,0.4-12.7,0.3-19,0c-5.6-0.2-9.2-3.5-9.7-8.2c-0.6-4.9,2.6-9.3,7.7-10.8c1.3-0.4,2.6-0.6,3.9-0.6c17.8-0.1,35.5-1.6,53.3-2.2
	c13.9-0.5,27.9-1.5,41.8-1.9c3.5-0.1,3.6-1.5,2-4c-3.7-5.7-7-11.7-11.6-16.8c-3.7-2.5-7.7-4.5-12-5.9c-5.5-0.8-11-0.9-16.5,0.2
	c-4.1,0.6-8.3,0.3-12.4,0.4c-3.8-0.1-7.6-0.5-11.4,0.6c-3.9,0.6-7.7,0.4-11.6,0.4c-3.8-0.1-7.6-0.5-11.4,0.6
	c-3.9,0.6-7.7,0.4-11.6,0.4c-3.8-0.1-7.6-0.5-11.4,0.6c-4.2,0.7-8.4,0.3-12.6,0.4c-3.8-0.1-7.6-0.6-11.4,0.6
	c-3.9,0.6-7.7,0.4-11.6,0.4c-3.8-0.1-7.6-0.5-11.4,0.6c-4.2,0.7-8.4,0.3-12.6,0.4c-3.8-0.1-7.6-0.6-11.4,0.6
	c-3.9,0.6-7.7,0.4-11.6,0.4c-3.8-0.1-7.6-0.5-11.4,0.6c-3.8,0.6-7.7,0.4-11.6,0.4c-3.7-0.1-7.5-0.5-11.1,0.5
	c-15.7,2.9-22.7,11.2-22.7,27c0,12.1,0.1,24.2-0.1,36.3c-0.1,6.7-2.7,9.9-8.8,11.4c-0.6-0.1-1.1-0.3-1.6-0.7c-6.4-2-8-4.1-8-10.7
	c0-12.3,0-24.6,0-36.9c0-26.2,16.6-43.7,42.9-45.2c9-0.5,17.9-0.9,26.9-1.3c1.1-0.8,2.3-1.4,3.7-1.3c6.6,0.3,13.1-1.2,19.8-1
	c18.6,0,37.1-2,55.7-2c4,0,4-1.8,2.5-4.7c-5.3-10.1-10.7-20.2-16.2-30.3c-6.2-13.2-6.2-13.3-20.6-13.2c-5.3,0-10.6-0.3-15.8,1.3
	c-9.9,3.1-16.1,9.5-18.4,19.6c-0.6,2.6-0.8,5.3-1.5,7.8c-1.4,5-4.6,7-9.5,6.1c-6.4-1.7-8.5-4.7-8-11.1c1.9-23.8,20.1-41.3,44-41.9
	c8.8-0.3,17.7,0.1,26.5-0.1c5.3-0.1,8.7,2,11.1,6.7c9.8,18.7,19.9,37.2,29.7,55.9c1.6,3.1,3.3,4.1,6.9,3.9c19-1,37.9-1.8,56.9-2.5
	c17.7-0.7,31.1,6.6,40.6,21.5c15.8,25,31.9,49.9,47.6,74.9c1.8,2.9,3.6,3.6,6.8,3.2c34.9-3.9,69.8-7.7,104.7-11.4
	c12.5-1.3,24.2,6.9,27.6,19.1c0.3,0.9-0.1,2.1,1,2.6C511.9,260.3,511.9,263.7,511.9,267z"/>
<path class="st0" d="M141.1,153c-8,0.6-16.1,1.3-24.2,1c-0.2-5.9,0.5-11.8-0.4-17.6c6.4-1,8.2-2.9,8.9-9.3
	c1.9-17.2,12.7-26.7,30-26.8c5.7,0,11.3,0.1,17-0.1c2.6-0.1,4.4,0.6,5.5,3.1c1.6,3.6,3.5,7.1,5.3,10.7c-1.6,2.4-4.3,2.2-6.7,2.4
	c-15.8,1.7-26.9,9.3-32.2,24.7C142.9,145,143.6,149.4,141.1,153z"/>
<path class="st1" d="M55.1,248.2c0.3,0,0.7,0,1,0c2.6,11,2.6,21.9,0,32.9c-0.3,0-0.6,0.1-0.9,0.1C55.1,270.2,55.1,259.2,55.1,248.2z
	"/>
<path class="st2" d="M458.9,354.7c-6.6-1.6-9.3-0.4-12.4,5.8c-6.7,13.2-13.4,26.4-19.8,39.7c-3.8,7.9-9.9,11.6-18.6,11.6
	c-116.6,0-233.1,0-349.7,0c-1.8,0-3.7,0.3-5.4-0.7c2.3-2.3,5.3-1.5,8.1-1.6c7.1-0.2,8.2-1.4,6.3-8.5c-3.7-13.2-7.6-26.3-11.2-39.4
	c-2-7.4-2.5-14.8,0.7-22c4.8-10.9,13.9-15.8,25.2-16.9c30.3-3.2,60.6-6.5,90.9-9.7c32.3-3.5,64.6-7,96.8-10.4
	c29.3-3.1,58.6-6.4,87.9-9.5c30-3.2,59.9-6.5,89.9-9.6c10.4-1.1,20.8-2.3,31.3-3.4c2.4-0.2,5-1,7.1,1c-4.2,8.6-8.6,17.2-12.6,25.9
	c-1.2,2.5-3.2,2.6-5.3,2.8c-24.7,1.8-49.4,3.5-74.2,5.2c-15.4,1.1-30.9,2.1-46.3,3.2c-5.9,0.4-9.6,4.1-9.4,8.9
	c0.2,5.2,4.1,8.4,10.4,8c31.9-2.2,63.7-4.5,95.6-6.8c9.6-0.7,19.2-1.3,28.9-2C468.2,335.8,463.6,345.3,458.9,354.7z"/>
<path class="st0" d="M485.8,281c-11.8,1.2-23.7,2.5-35.5,3.7c-10.4,1.1-20.7,2.2-31.1,3.3c-11.5,1.3-23,2.6-34.5,3.8
	c-10.5,1.1-21.1,2-31.6,3.2c-14.1,1.5-28.2,3.3-42.4,4.8c-10.9,1.2-21.7,2.1-32.6,3.2c-14,1.5-27.9,3.1-41.9,4.7
	c-10.4,1.1-20.7,2.2-31.1,3.3c-14.5,1.6-28.9,3.2-43.4,4.8c-10.2,1.1-20.4,2.1-30.6,3.2c-14.5,1.6-28.9,3.3-43.4,4.8
	c-5.8,0.6-11.5,0.4-16.9,3.2C59,333,53.2,344.9,56.7,358c4,15.1,8.4,30,12.5,45c1.7,6.4,0.5,7.9-5.8,7.9c-3.5,0-7,0.1-10.5,0.1
	c-7.1-0.9-11.5-5.3-13.4-11.7c-7.4-25.4-14.7-50.8-21.7-76.2c-2.8-10.3,4.3-20.8,14.8-22c24.8-2.9,49.6-5.4,74.4-8.1
	c26.3-2.8,52.6-5.6,78.9-8.5c26.5-2.8,52.9-5.7,79.4-8.6c29.4-3.2,58.9-6.4,88.3-9.6c29.1-3.1,58.2-6.3,87.4-9.4
	c13.9-1.5,27.8-2.9,41.7-4.5c4.1-0.5,7.6,0.1,10.2,3.6c2.6,3.5,2.3,7.1,0.3,10.8C490.7,271.5,488.3,276.3,485.8,281z"/>
<path class="st3" d="M303,170.3c7.3,5.7,10.5,14.3,15.5,21.7c1.7,2.5-1.4,1.8-2.5,1.9c-15.6,0.8-31.3,1.5-46.9,2.2
	c-17.1,0.8-34.3,1.5-51.4,2.2c-4.6,0.2-8.7,1.3-10.3,6.2c-2,5.8,2.5,11.2,9.2,10.9c14-0.5,27.9-1.2,41.9-1.8
	c23-1.1,45.9-2.2,68.8-3.3c1.8-0.1,3.1,0,4.2,1.8c7.7,12.2,15.5,24.4,23.6,37.1c-12.1,1.3-23.7,2.6-35.2,3.8
	c-32.9,3.6-65.8,7.1-98.8,10.7c-32.1,3.5-64.2,6.9-96.3,10.3c-10.6,1.1-21.2,2.1-31.8,3.1c-1.7-2-1.5-4.3-1.5-6.6
	c0-14.5-0.1-28.9,0-43.4c0.2-18.7,15.2-33.7,33.7-34.6c16.4-0.7,32.8-1.7,49.2-2c2.4,0.2,4.7,0.1,7-0.6c6-0.8,12-0.3,18-0.4
	c2.4,0.2,4.7,0.1,7-0.6c5.7-0.8,11.4-0.3,17-0.4c2.6,0.2,5.2,0.3,7.7-0.5c8.9-0.4,17.9-1.2,26.8-1.3c9.5,0,18.9-1,28.3-1.3
	c8.1-0.3,12.2-3.8,14.8-11.6C301.6,172.5,301.8,171.2,303,170.3z"/>
<path class="st4" d="M175,192c-17.4,0.7-34.8,1.2-52.2,2.1c-15.4,0.8-29.7,16.1-29.8,31.5c-0.1,17.1,0,34.3,0,51.4
	c-9.2,1.7-18.4,2.6-27.7,3c-1.7,0.9-3.6-0.1-5.2,0.7c-1.3,0.1-2.7,0.2-4,0.2c0-11,0-21.9,0-32.9c6.7-2.7,8-4.6,8-11.8
	c0-13.1,0.1-26.2,0-39.4c-0.1-9.7,8.7-24,23.7-24.1c3.7-1,7.6,0.3,11.3-0.7c3.8-0.1,7.7-0.2,11.5-0.3c3.8-1,7.7,0.2,11.5-0.7
	c3.8-0.1,7.7-0.2,11.5-0.3c3.8-1,7.7,0.2,11.5-0.7c4.2-0.1,8.4-0.2,12.7-0.3c3.7-1,7.6,0.2,11.3-0.7c3.8-0.1,7.7-0.2,11.5-0.3
	c3.8-1,7.7,0.2,11.5-0.7c4.2-0.1,8.4-0.2,12.5-0.3c3.8-1,7.7,0.2,11.5-0.7c3.8-0.1,7.7-0.2,11.5-0.3c3.8-1,7.7,0.2,11.5-0.7
	c3.8-0.1,7.7-0.2,11.5-0.3c3.8-1,7.7,0.2,11.5-0.7c4.2-0.1,8.4-0.2,12.5-0.3c5.9-0.6,11.8-0.7,17.6,0c4.1,0.7,7.4,3.1,10.8,5.3
	c-0.3,10.3-6.2,16.5-16.4,16.7c-10.9,0.2-21.8,1-32.8,1.3c-7.6,0.2-15.2,0.6-22.8,0.8c-2.2,1.3-4.8-0.3-7,1c-6,0-12,0-18,0
	c-1.9,1.2-4.2-0.3-6,1c-6.3,0-12.7,0-19,0C179.2,192.3,176.9,190.7,175,192z"/>
<path class="st2" d="M141.1,153c0.5-21.9,14.8-36.6,36.8-37.9c1.8-0.1,3.5-0.7,5.3-1c6.1,11.2,12.1,22.4,18.3,33.6
	c1.5,2.7,0.2,3.1-2.1,3.2C179.9,151.5,160.5,152.2,141.1,153z"/>
<path class="st5" d="M292.1,165c-5.9,0-11.8,0-17.6,0C280.4,164.1,286.3,163.3,292.1,165z"/>
<path class="st5" d="M262,165.2c-3.7,1.7-7.6,0.6-11.5,0.7C254.3,165,258.1,165.1,262,165.2z"/>
<path class="st5" d="M239,166.2c-3.7,1.7-7.6,0.6-11.5,0.7C231.3,165.9,235.1,166.1,239,166.2z"/>
<path class="st5" d="M216,167.2c-3.7,1.7-7.6,0.6-11.5,0.7C208.3,167,212.2,167.1,216,167.2z"/>
<path class="st5" d="M192,168.2c-3.7,1.6-7.6,0.6-11.5,0.7C184.3,168,188.2,168.1,192,168.2z"/>
<path class="st5" d="M169,169.2c-3.7,1.6-7.5,0.6-11.3,0.7C161.4,169,165.2,169.1,169,169.2z"/>
<path class="st5" d="M145,170.2c-3.7,1.7-7.6,0.6-11.5,0.7C137.3,170,141.2,170.1,145,170.2z"/>
<path class="st5" d="M122,171.2c-3.7,1.7-7.6,0.6-11.5,0.7C114.3,170.9,118.2,171.1,122,171.2z"/>
<path class="st5" d="M99,172.2c-3.7,1.7-7.6,0.6-11.3,0.7C91.4,171.9,95.2,172.1,99,172.2z"/>
<path class="st5" d="M60.1,280.8c1.6-1.4,3.5-0.7,5.2-0.7C63.7,280.9,61.9,281,60.1,280.8z"/>
<path d="M177,355c0.1,9.5-7.5,17.1-17,17.1c-9.6,0-17.1-7.5-17-17.1c0.1-9.2,7.6-16.8,16.8-17C169.1,337.9,177,345.7,177,355z"/>
<path d="M113.1,355.2c0,9.5-7.6,17-17.2,16.9c-9.5-0.1-16.9-7.7-16.8-17.3c0.1-9.1,7.8-16.7,17-16.8
	C105.3,338,113.1,345.8,113.1,355.2z"/>
<path class="st6" d="M175,217.6c0,4.7-4,8.5-8.7,8.4c-4.8-0.1-8.4-3.9-8.3-8.7c0.1-4.5,3.8-8.2,8.3-8.3C170.9,209,175,213,175,217.6
	z"/>
<path class="st7" d="M140.9,217.8c-0.1,4.6-3.9,8.3-8.7,8.3c-4.8,0-8.3-3.7-8.3-8.6c0.1-4.7,3.9-8.5,8.6-8.4
	C137.1,209.2,141,213.2,140.9,217.8z"/>
<path class="st8" d="M224,190c2.1-1.9,4.7-0.6,7-1C228.9,190.9,226.3,189.7,224,190z"/>
<path class="st8" d="M200,191c1.8-1.8,4-0.7,6-1C204.3,191.8,202,190.7,200,191z"/>
<path class="st9" d="M175,192c1.8-1.8,4-0.7,6-1C179.3,192.8,177,191.7,175,192z"/>
</svg>
